<svg width="495" height="295" viewBox="0 0 495 295" fill="none" xmlns="http://www.w3.org/2000/svg">
<path d="M190.891 13.4533C191.142 12.961 190.946 12.359 190.453 12.1087L182.431 8.02881C181.939 7.77846 181.337 7.97457 181.086 8.46685C180.836 8.95913 181.032 9.56116 181.525 9.81151L188.655 13.438L185.029 20.5688C184.778 21.0611 184.975 21.6631 185.467 21.9135C185.959 22.1639 186.561 21.9677 186.812 21.4755L190.891 13.4533ZM58 56L58.3097 56.9508L190.31 13.9508L190 13L189.69 12.0492L57.6903 55.0492L58 56Z" fill="#6B54FF"/>
<path d="M234.293 263.707C234.683 264.098 235.317 264.098 235.707 263.707L242.071 257.343C242.462 256.953 242.462 256.319 242.071 255.929C241.681 255.538 241.047 255.538 240.657 255.929L235 261.586L229.343 255.929C228.953 255.538 228.319 255.538 227.929 255.929C227.538 256.319 227.538 256.953 227.929 257.343L234.293 263.707ZM235 211H234V263H235H236V211H235Z" fill="#6B54FF"/>
<path d="M231.5 176C253.639 176 273.636 179.457 288.062 185.013C295.279 187.792 301.051 191.077 305.001 194.673C308.951 198.269 311 202.098 311 206C311 209.902 308.951 213.731 305.001 217.327C301.051 220.923 295.279 224.208 288.062 226.987C273.636 232.543 253.639 236 231.5 236C209.361 236 189.364 232.543 174.938 226.987C167.721 224.208 161.949 220.923 157.999 217.327C154.049 213.731 152 209.902 152 206C152 202.098 154.049 198.269 157.999 194.673C161.949 191.077 167.721 187.792 174.938 185.013C189.364 179.457 209.361 176 231.5 176Z" fill="#00624D" stroke="#00FFC8" stroke-width="2"/>
<rect x="1" y="57" width="115" height="159" rx="9" fill="#00624D" stroke="#00FFC8" stroke-width="2"/>
<path d="M331.707 284.707C332.098 284.317 332.098 283.683 331.707 283.293L325.343 276.929C324.953 276.538 324.319 276.538 323.929 276.929C323.538 277.319 323.538 277.953 323.929 278.343L329.586 284L323.929 289.657C323.538 290.047 323.538 290.681 323.929 291.071C324.319 291.462 324.953 291.462 325.343 291.071L331.707 284.707ZM298 284V285H331V284V283H298V284Z" fill="#6B54FF"/>
<path d="M231.707 34.2929C231.317 33.9024 230.683 33.9024 230.293 34.2929L223.929 40.6569C223.538 41.0474 223.538 41.6805 223.929 42.0711C224.319 42.4616 224.953 42.4616 225.343 42.0711L231 36.4142L236.657 42.0711C237.047 42.4616 237.681 42.4616 238.071 42.0711C238.462 41.6805 238.462 41.0474 238.071 40.6569L231.707 34.2929ZM231 75L232 75L232 35L231 35L230 35L230 75L231 75Z" fill="#6B54FF"/>
<path d="M230.293 157.707C230.683 158.098 231.317 158.098 231.707 157.707L238.071 151.343C238.462 150.953 238.462 150.319 238.071 149.929C237.681 149.538 237.047 149.538 236.657 149.929L231 155.586L225.343 149.929C224.953 149.538 224.319 149.538 223.929 149.929C223.538 150.319 223.538 150.953 223.929 151.343L230.293 157.707ZM231 157L232 157L232 117L231 117L230 117L230 157L231 157Z" fill="#6B54FF"/>
<path d="M208.678 15V4.47266H210.377V6.03516H210.533C210.934 4.93164 211.92 4.28711 213.346 4.28711C213.668 4.28711 214.029 4.32617 214.195 4.35547V6.00586C213.844 5.94727 213.521 5.9082 213.15 5.9082C211.529 5.9082 210.377 6.93359 210.377 8.47656V15H208.678ZM219.82 15.1855C217.428 15.1855 216.197 13.7793 216.197 11.2891V4.47266H217.896V10.8789C217.896 12.7734 218.58 13.6816 220.26 13.6816C222.115 13.6816 223.102 12.5488 223.102 10.7031V4.47266H224.801V15H223.102V13.4277H222.945C222.428 14.5508 221.363 15.1855 219.82 15.1855ZM227.975 15V4.47266H229.674V6.05469H229.83C230.357 4.94141 231.344 4.28711 232.896 4.28711C235.26 4.28711 236.578 5.68359 236.578 8.18359V15H234.879V8.59375C234.879 6.69922 234.098 5.79102 232.418 5.79102C230.738 5.79102 229.674 6.92383 229.674 8.76953V15H227.975ZM246.178 2.44141C245.533 2.44141 245.006 1.91406 245.006 1.26953C245.006 0.625 245.533 0.0976562 246.178 0.0976562C246.822 0.0976562 247.35 0.625 247.35 1.26953C247.35 1.91406 246.822 2.44141 246.178 2.44141ZM245.318 15V4.47266H247.018V15H245.318ZM253.961 15.0781C251.793 15.0781 250.885 14.2773 250.885 12.2656V5.87891H249.225V4.47266H250.885V1.74805H252.643V4.47266H254.947V5.87891H252.643V11.8359C252.643 13.0762 253.072 13.5742 254.166 13.5742C254.469 13.5742 254.635 13.5645 254.947 13.5352V14.9805C254.615 15.0391 254.293 15.0781 253.961 15.0781Z" fill="#00624D"/>
<path d="M170.943 101.186C167.945 101.186 166.09 99.1152 166.09 95.7461V95.7266C166.09 92.3477 167.945 90.2871 170.943 90.2871C173.941 90.2871 175.797 92.3477 175.797 95.7266V95.7461C175.797 99.1152 173.941 101.186 170.943 101.186ZM170.943 99.6816C172.936 99.6816 174.059 98.2266 174.059 95.7461V95.7266C174.059 93.2363 172.936 91.791 170.943 91.791C168.951 91.791 167.828 93.2363 167.828 95.7266V95.7461C167.828 98.2266 168.951 99.6816 170.943 99.6816ZM182.047 101.186C179.703 101.186 178.092 100.053 177.896 98.3145H179.635C179.918 99.1934 180.758 99.7695 182.105 99.7695C183.521 99.7695 184.527 99.0957 184.527 98.1387V98.1191C184.527 97.4062 183.99 96.9082 182.691 96.5957L181.061 96.2051C179.088 95.7363 178.199 94.877 178.199 93.3633V93.3535C178.199 91.6055 179.879 90.2871 182.115 90.2871C184.322 90.2871 185.855 91.3906 186.09 93.1094H184.42C184.195 92.2793 183.375 91.7031 182.105 91.7031C180.855 91.7031 179.938 92.3477 179.938 93.2754V93.2949C179.938 94.0078 180.465 94.457 181.705 94.7598L183.326 95.1504C185.309 95.6289 186.266 96.4883 186.266 97.9922V98.0117C186.266 99.8867 184.439 101.186 182.047 101.186ZM198.141 101.186C195.797 101.186 194.186 100.053 193.99 98.3145H195.729C196.012 99.1934 196.852 99.7695 198.199 99.7695C199.615 99.7695 200.621 99.0957 200.621 98.1387V98.1191C200.621 97.4062 200.084 96.9082 198.785 96.5957L197.154 96.2051C195.182 95.7363 194.293 94.877 194.293 93.3633V93.3535C194.293 91.6055 195.973 90.2871 198.209 90.2871C200.416 90.2871 201.949 91.3906 202.184 93.1094H200.514C200.289 92.2793 199.469 91.7031 198.199 91.7031C196.949 91.7031 196.031 92.3477 196.031 93.2754V93.2949C196.031 94.0078 196.559 94.457 197.799 94.7598L199.42 95.1504C201.402 95.6289 202.359 96.4883 202.359 97.9922V98.0117C202.359 99.8867 200.533 101.186 198.141 101.186ZM205.602 104.691C205.377 104.691 205.084 104.672 204.85 104.633V103.236C205.055 103.275 205.318 103.285 205.553 103.285C206.52 103.285 207.105 102.846 207.486 101.635L207.682 101.01L203.785 90.4727H205.602L208.492 99.1348H208.648L211.529 90.4727H213.316L209.205 101.645C208.336 104.008 207.467 104.691 205.602 104.691ZM218.883 101.186C216.539 101.186 214.928 100.053 214.732 98.3145H216.471C216.754 99.1934 217.594 99.7695 218.941 99.7695C220.357 99.7695 221.363 99.0957 221.363 98.1387V98.1191C221.363 97.4062 220.826 96.9082 219.527 96.5957L217.896 96.2051C215.924 95.7363 215.035 94.877 215.035 93.3633V93.3535C215.035 91.6055 216.715 90.2871 218.951 90.2871C221.158 90.2871 222.691 91.3906 222.926 93.1094H221.256C221.031 92.2793 220.211 91.7031 218.941 91.7031C217.691 91.7031 216.773 92.3477 216.773 93.2754V93.2949C216.773 94.0078 217.301 94.457 218.541 94.7598L220.162 95.1504C222.145 95.6289 223.102 96.4883 223.102 97.9922V98.0117C223.102 99.8867 221.275 101.186 218.883 101.186ZM229.381 101.078C227.213 101.078 226.305 100.277 226.305 98.2656V91.8789H224.645V90.4727H226.305V87.748H228.062V90.4727H230.367V91.8789H228.062V97.8359C228.062 99.0762 228.492 99.5742 229.586 99.5742C229.889 99.5742 230.055 99.5645 230.367 99.5352V100.98C230.035 101.039 229.713 101.078 229.381 101.078ZM237.047 101.186C234.039 101.186 232.223 99.0762 232.223 95.7754V95.7656C232.223 92.5137 234.078 90.2871 236.939 90.2871C239.801 90.2871 241.539 92.416 241.539 95.5605V96.2246H233.961C234.01 98.4023 235.211 99.6719 237.086 99.6719C238.512 99.6719 239.391 98.998 239.674 98.3633L239.713 98.2754H241.412L241.393 98.3535C241.031 99.7793 239.527 101.186 237.047 101.186ZM236.93 91.8008C235.367 91.8008 234.176 92.8652 233.99 94.8672H239.811C239.635 92.7871 238.482 91.8008 236.93 91.8008ZM244.176 101V90.4727H245.875V92.0742H246.031C246.5 90.9414 247.496 90.2871 248.873 90.2871C250.299 90.2871 251.295 91.0391 251.783 92.1328H251.939C252.506 91.0195 253.707 90.2871 255.162 90.2871C257.311 90.2871 258.512 91.5176 258.512 93.7246V101H256.812V94.1152C256.812 92.5625 256.1 91.791 254.615 91.791C253.15 91.791 252.184 92.8945 252.184 94.2324V101H250.484V93.8516C250.484 92.6016 249.625 91.791 248.297 91.791C246.92 91.791 245.875 92.9922 245.875 94.4766V101H244.176ZM271.51 101.186C268.561 101.186 266.676 99.0469 266.676 95.707V95.6875C266.676 92.416 268.551 90.2871 271.5 90.2871C274.059 90.2871 275.592 91.7617 275.904 93.6367L275.914 93.6953H274.225L274.215 93.666C273.951 92.6309 273.014 91.791 271.5 91.791C269.605 91.791 268.414 93.3145 268.414 95.6875V95.707C268.414 98.1289 269.625 99.6816 271.5 99.6816C272.916 99.6816 273.814 99.0566 274.205 97.8848L274.225 97.8262L275.904 97.8164L275.885 97.9238C275.455 99.8281 274.039 101.186 271.51 101.186ZM281.285 101.186C279.283 101.186 277.77 99.9746 277.77 98.0605V98.041C277.77 96.166 279.156 95.082 281.607 94.9355L284.625 94.75V93.793C284.625 92.4941 283.834 91.791 282.262 91.791C281.002 91.791 280.172 92.2598 279.898 93.0801L279.889 93.1094H278.189L278.199 93.0508C278.473 91.4004 280.074 90.2871 282.32 90.2871C284.889 90.2871 286.324 91.6055 286.324 93.793V101H284.625V99.4473H284.469C283.805 100.57 282.701 101.186 281.285 101.186ZM279.508 98.0215C279.508 99.0859 280.416 99.7109 281.637 99.7109C283.365 99.7109 284.625 98.5781 284.625 97.0742V96.1172L281.812 96.293C280.211 96.3906 279.508 96.957 279.508 98.002V98.0215ZM289.527 101V86.293H291.227V101H289.527ZM294.586 101V86.293H296.285V101H294.586Z" fill="#00624D"/>
<path d="M208.061 213V198.293H209.76V213H208.061ZM217.348 213.186C214.35 213.186 212.494 211.115 212.494 207.746V207.727C212.494 204.348 214.35 202.287 217.348 202.287C220.346 202.287 222.201 204.348 222.201 207.727V207.746C222.201 211.115 220.346 213.186 217.348 213.186ZM217.348 211.682C219.34 211.682 220.463 210.227 220.463 207.746V207.727C220.463 205.236 219.34 203.791 217.348 203.791C215.355 203.791 214.232 205.236 214.232 207.727V207.746C214.232 210.227 215.355 211.682 217.348 211.682ZM227.729 213.186C225.727 213.186 224.213 211.975 224.213 210.061V210.041C224.213 208.166 225.6 207.082 228.051 206.936L231.068 206.75V205.793C231.068 204.494 230.277 203.791 228.705 203.791C227.445 203.791 226.615 204.26 226.342 205.08L226.332 205.109H224.633L224.643 205.051C224.916 203.4 226.518 202.287 228.764 202.287C231.332 202.287 232.768 203.605 232.768 205.793V213H231.068V211.447H230.912C230.248 212.57 229.145 213.186 227.729 213.186ZM225.951 210.021C225.951 211.086 226.859 211.711 228.08 211.711C229.809 211.711 231.068 210.578 231.068 209.074V208.117L228.256 208.293C226.654 208.391 225.951 208.957 225.951 210.002V210.021ZM239.76 213.186C237.094 213.186 235.346 211.027 235.346 207.746V207.727C235.346 204.426 237.084 202.287 239.76 202.287C241.205 202.287 242.465 203.01 243.041 204.133H243.197V198.293H244.896V213H243.197V211.32H243.041C242.396 212.492 241.225 213.186 239.76 213.186ZM240.15 211.682C242.064 211.682 243.236 210.178 243.236 207.746V207.727C243.236 205.295 242.064 203.791 240.15 203.791C238.227 203.791 237.084 205.275 237.084 207.727V207.746C237.084 210.197 238.227 211.682 240.15 211.682ZM252.455 213.186C249.447 213.186 247.631 211.076 247.631 207.775V207.766C247.631 204.514 249.486 202.287 252.348 202.287C255.209 202.287 256.947 204.416 256.947 207.561V208.225H249.369C249.418 210.402 250.619 211.672 252.494 211.672C253.92 211.672 254.799 210.998 255.082 210.363L255.121 210.275H256.82L256.801 210.354C256.439 211.779 254.936 213.186 252.455 213.186ZM252.338 203.801C250.775 203.801 249.584 204.865 249.398 206.867H255.219C255.043 204.787 253.891 203.801 252.338 203.801ZM259.584 213V202.473H261.283V204.035H261.439C261.84 202.932 262.826 202.287 264.252 202.287C264.574 202.287 264.936 202.326 265.102 202.355V204.006C264.75 203.947 264.428 203.908 264.057 203.908C262.436 203.908 261.283 204.934 261.283 206.477V213H259.584Z" fill="#00FFC8"/>
<path d="M201.76 291.078C199.592 291.078 198.684 290.277 198.684 288.266V281.879H197.023V280.473H198.684V277.748H200.441V280.473H202.746V281.879H200.441V287.836C200.441 289.076 200.871 289.574 201.965 289.574C202.268 289.574 202.434 289.564 202.746 289.535V290.98C202.414 291.039 202.092 291.078 201.76 291.078ZM208.176 291.186C206.174 291.186 204.66 289.975 204.66 288.061V288.041C204.66 286.166 206.047 285.082 208.498 284.936L211.516 284.75V283.793C211.516 282.494 210.725 281.791 209.152 281.791C207.893 281.791 207.062 282.26 206.789 283.08L206.779 283.109H205.08L205.09 283.051C205.363 281.4 206.965 280.287 209.211 280.287C211.779 280.287 213.215 281.605 213.215 283.793V291H211.516V289.447H211.359C210.695 290.57 209.592 291.186 208.176 291.186ZM206.398 288.021C206.398 289.086 207.307 289.711 208.527 289.711C210.256 289.711 211.516 288.578 211.516 287.074V286.117L208.703 286.293C207.102 286.391 206.398 286.957 206.398 288.002V288.021ZM216.418 291V276.293H218.117V285.072H218.273L222.824 280.473H224.885L220.295 284.896L225.188 291H223.049L219.104 286.049L218.117 287.006V291H216.418ZM230.988 291.186C227.98 291.186 226.164 289.076 226.164 285.775V285.766C226.164 282.514 228.02 280.287 230.881 280.287C233.742 280.287 235.48 282.416 235.48 285.561V286.225H227.902C227.951 288.402 229.152 289.672 231.027 289.672C232.453 289.672 233.332 288.998 233.615 288.363L233.654 288.275H235.354L235.334 288.354C234.973 289.779 233.469 291.186 230.988 291.186ZM230.871 281.801C229.309 281.801 228.117 282.865 227.932 284.867H233.752C233.576 282.787 232.424 281.801 230.871 281.801ZM243.957 291V276.908H252.688V278.49H245.715V283.012H252.326V284.574H245.715V289.418H252.688V291H243.957ZM254.943 291L259.748 283.92V283.881L255.002 276.908H257.121L260.891 282.582H260.949L264.758 276.908H266.76L261.887 283.969V284.008L266.652 291H264.543L260.793 285.375H260.734L256.936 291H254.943ZM269.445 291V276.908H278.176V278.49H271.203V283.012H277.814V284.574H271.203V289.418H278.176V291H269.445Z" fill="#00624D"/>
<path d="M362.16 291.186C359.211 291.186 357.326 289.047 357.326 285.707V285.688C357.326 282.416 359.201 280.287 362.15 280.287C364.709 280.287 366.242 281.762 366.555 283.637L366.564 283.695H364.875L364.865 283.666C364.602 282.631 363.664 281.791 362.15 281.791C360.256 281.791 359.064 283.314 359.064 285.688V285.707C359.064 288.129 360.275 289.682 362.15 289.682C363.566 289.682 364.465 289.057 364.855 287.885L364.875 287.826L366.555 287.816L366.535 287.924C366.105 289.828 364.689 291.186 362.16 291.186ZM373.371 291.186C370.373 291.186 368.518 289.115 368.518 285.746V285.727C368.518 282.348 370.373 280.287 373.371 280.287C376.369 280.287 378.225 282.348 378.225 285.727V285.746C378.225 289.115 376.369 291.186 373.371 291.186ZM373.371 289.682C375.363 289.682 376.486 288.227 376.486 285.746V285.727C376.486 283.236 375.363 281.791 373.371 281.791C371.379 281.791 370.256 283.236 370.256 285.727V285.746C370.256 288.227 371.379 289.682 373.371 289.682ZM380.861 294.516V280.473H382.561V282.152H382.717C383.361 280.98 384.533 280.287 385.998 280.287C388.664 280.287 390.412 282.445 390.412 285.727V285.746C390.412 289.047 388.674 291.186 385.998 291.186C384.553 291.186 383.293 290.463 382.717 289.34H382.561V294.516H380.861ZM385.607 289.682C387.531 289.682 388.674 288.197 388.674 285.746V285.727C388.674 283.275 387.531 281.791 385.607 281.791C383.693 281.791 382.521 283.295 382.521 285.727V285.746C382.521 288.178 383.693 289.682 385.607 289.682ZM393.967 278.441C393.322 278.441 392.795 277.914 392.795 277.27C392.795 276.625 393.322 276.098 393.967 276.098C394.611 276.098 395.139 276.625 395.139 277.27C395.139 277.914 394.611 278.441 393.967 278.441ZM393.107 291V280.473H394.807V291H393.107ZM402.307 291.186C399.299 291.186 397.482 289.076 397.482 285.775V285.766C397.482 282.514 399.338 280.287 402.199 280.287C405.061 280.287 406.799 282.416 406.799 285.561V286.225H399.221C399.27 288.402 400.471 289.672 402.346 289.672C403.771 289.672 404.65 288.998 404.934 288.363L404.973 288.275H406.672L406.652 288.354C406.291 289.779 404.787 291.186 402.307 291.186ZM402.189 281.801C400.627 281.801 399.436 282.865 399.25 284.867H405.07C404.895 282.787 403.742 281.801 402.189 281.801ZM413.049 291.186C410.705 291.186 409.094 290.053 408.898 288.314H410.637C410.92 289.193 411.76 289.77 413.107 289.77C414.523 289.77 415.529 289.096 415.529 288.139V288.119C415.529 287.406 414.992 286.908 413.693 286.596L412.062 286.205C410.09 285.736 409.201 284.877 409.201 283.363V283.354C409.201 281.605 410.881 280.287 413.117 280.287C415.324 280.287 416.857 281.391 417.092 283.109H415.422C415.197 282.279 414.377 281.703 413.107 281.703C411.857 281.703 410.939 282.348 410.939 283.275V283.295C410.939 284.008 411.467 284.457 412.707 284.76L414.328 285.15C416.311 285.629 417.268 286.488 417.268 287.992V288.012C417.268 289.887 415.441 291.186 413.049 291.186ZM429.27 291.078C427.102 291.078 426.193 290.277 426.193 288.266V281.879H424.533V280.473H426.193V277.748H427.951V280.473H430.256V281.879H427.951V287.836C427.951 289.076 428.381 289.574 429.475 289.574C429.777 289.574 429.943 289.564 430.256 289.535V290.98C429.924 291.039 429.602 291.078 429.27 291.078ZM436.965 291.186C433.967 291.186 432.111 289.115 432.111 285.746V285.727C432.111 282.348 433.967 280.287 436.965 280.287C439.963 280.287 441.818 282.348 441.818 285.727V285.746C441.818 289.115 439.963 291.186 436.965 291.186ZM436.965 289.682C438.957 289.682 440.08 288.227 440.08 285.746V285.727C440.08 283.236 438.957 281.791 436.965 281.791C434.973 281.791 433.85 283.236 433.85 285.727V285.746C433.85 288.227 434.973 289.682 436.965 289.682ZM450.08 291V280.473H451.779V282.074H451.936C452.404 280.941 453.4 280.287 454.777 280.287C456.203 280.287 457.199 281.039 457.688 282.133H457.844C458.41 281.02 459.611 280.287 461.066 280.287C463.215 280.287 464.416 281.518 464.416 283.725V291H462.717V284.115C462.717 282.562 462.004 281.791 460.52 281.791C459.055 281.791 458.088 282.895 458.088 284.232V291H456.389V283.852C456.389 282.602 455.529 281.791 454.201 281.791C452.824 281.791 451.779 282.992 451.779 284.477V291H450.08ZM471.779 291.186C468.771 291.186 466.955 289.076 466.955 285.775V285.766C466.955 282.514 468.811 280.287 471.672 280.287C474.533 280.287 476.271 282.416 476.271 285.561V286.225H468.693C468.742 288.402 469.943 289.672 471.818 289.672C473.244 289.672 474.123 288.998 474.406 288.363L474.445 288.275H476.145L476.125 288.354C475.764 289.779 474.26 291.186 471.779 291.186ZM471.662 281.801C470.1 281.801 468.908 282.865 468.723 284.867H474.543C474.367 282.787 473.215 281.801 471.662 281.801ZM478.908 291V280.473H480.607V282.074H480.764C481.232 280.941 482.229 280.287 483.605 280.287C485.031 280.287 486.027 281.039 486.516 282.133H486.672C487.238 281.02 488.439 280.287 489.895 280.287C492.043 280.287 493.244 281.518 493.244 283.725V291H491.545V284.115C491.545 282.562 490.832 281.791 489.348 281.791C487.883 281.791 486.916 282.895 486.916 284.232V291H485.217V283.852C485.217 282.602 484.357 281.791 483.029 281.791C481.652 281.791 480.607 282.992 480.607 284.477V291H478.908Z" fill="#00624D"/>
<path d="M362.105 211.186C359.107 211.186 357.252 209.115 357.252 205.746V205.727C357.252 202.348 359.107 200.287 362.105 200.287C365.104 200.287 366.959 202.348 366.959 205.727V205.746C366.959 209.115 365.104 211.186 362.105 211.186ZM362.105 209.682C364.098 209.682 365.221 208.227 365.221 205.746V205.727C365.221 203.236 364.098 201.791 362.105 201.791C360.113 201.791 358.99 203.236 358.99 205.727V205.746C358.99 208.227 360.113 209.682 362.105 209.682ZM373.209 211.186C370.865 211.186 369.254 210.053 369.059 208.314H370.797C371.08 209.193 371.92 209.77 373.268 209.77C374.684 209.77 375.689 209.096 375.689 208.139V208.119C375.689 207.406 375.152 206.908 373.854 206.596L372.223 206.205C370.25 205.736 369.361 204.877 369.361 203.363V203.354C369.361 201.605 371.041 200.287 373.277 200.287C375.484 200.287 377.018 201.391 377.252 203.109H375.582C375.357 202.279 374.537 201.703 373.268 201.703C372.018 201.703 371.1 202.348 371.1 203.275V203.295C371.1 204.008 371.627 204.457 372.867 204.76L374.488 205.15C376.471 205.629 377.428 206.488 377.428 207.992V208.012C377.428 209.887 375.602 211.186 373.209 211.186ZM386.393 211V201.879H384.645V200.473H386.393V199.301C386.393 197.201 387.447 196.195 389.449 196.195C389.859 196.195 390.23 196.225 390.582 196.293V197.65C390.377 197.611 390.094 197.602 389.791 197.602C388.58 197.602 388.092 198.197 388.092 199.35V200.473H390.484V201.879H388.092V211H386.393ZM396.461 211.186C394.068 211.186 392.838 209.779 392.838 207.289V200.473H394.537V206.879C394.537 208.773 395.221 209.682 396.9 209.682C398.756 209.682 399.742 208.549 399.742 206.703V200.473H401.441V211H399.742V209.428H399.586C399.068 210.551 398.004 211.186 396.461 211.186ZM404.615 211V200.473H406.314V202.055H406.471C406.998 200.941 407.984 200.287 409.537 200.287C411.9 200.287 413.219 201.684 413.219 204.184V211H411.52V204.594C411.52 202.699 410.738 201.791 409.059 201.791C407.379 201.791 406.314 202.924 406.314 204.77V211H404.615ZM420.602 211.186C417.652 211.186 415.768 209.047 415.768 205.707V205.688C415.768 202.416 417.643 200.287 420.592 200.287C423.15 200.287 424.684 201.762 424.996 203.637L425.006 203.695H423.316L423.307 203.666C423.043 202.631 422.105 201.791 420.592 201.791C418.697 201.791 417.506 203.314 417.506 205.688V205.707C417.506 208.129 418.717 209.682 420.592 209.682C422.008 209.682 422.906 209.057 423.297 207.885L423.316 207.826L424.996 207.816L424.977 207.924C424.547 209.828 423.131 211.186 420.602 211.186ZM431.422 211.078C429.254 211.078 428.346 210.277 428.346 208.266V201.879H426.686V200.473H428.346V197.748H430.104V200.473H432.408V201.879H430.104V207.836C430.104 209.076 430.533 209.574 431.627 209.574C431.93 209.574 432.096 209.564 432.408 209.535V210.98C432.076 211.039 431.754 211.078 431.422 211.078ZM435.846 198.441C435.201 198.441 434.674 197.914 434.674 197.27C434.674 196.625 435.201 196.098 435.846 196.098C436.49 196.098 437.018 196.625 437.018 197.27C437.018 197.914 436.49 198.441 435.846 198.441ZM434.986 211V200.473H436.686V211H434.986ZM444.215 211.186C441.217 211.186 439.361 209.115 439.361 205.746V205.727C439.361 202.348 441.217 200.287 444.215 200.287C447.213 200.287 449.068 202.348 449.068 205.727V205.746C449.068 209.115 447.213 211.186 444.215 211.186ZM444.215 209.682C446.207 209.682 447.33 208.227 447.33 205.746V205.727C447.33 203.236 446.207 201.791 444.215 201.791C442.223 201.791 441.1 203.236 441.1 205.727V205.746C441.1 208.227 442.223 209.682 444.215 209.682ZM451.705 211V200.473H453.404V202.055H453.561C454.088 200.941 455.074 200.287 456.627 200.287C458.99 200.287 460.309 201.684 460.309 204.184V211H458.609V204.594C458.609 202.699 457.828 201.791 456.148 201.791C454.469 201.791 453.404 202.924 453.404 204.77V211H451.705Z" fill="#00624D"/>
<path d="M41.0957 129V114.908H49.8262V116.49H42.8535V121.012H49.4648V122.574H42.8535V127.418H49.8262V129H41.0957ZM52.082 129L56.8867 121.92V121.881L52.1406 114.908H54.2598L58.0293 120.582H58.0879L61.8965 114.908H63.8984L59.0254 121.969V122.008L63.791 129H61.6816L57.9316 123.375H57.873L54.0742 129H52.082ZM66.584 129V114.908H75.3145V116.49H68.3418V121.012H74.9531V122.574H68.3418V127.418H75.3145V129H66.584ZM45.9492 159V149.879H44.2012V148.473H45.9492V147.301C45.9492 145.201 47.0039 144.195 49.0059 144.195C49.416 144.195 49.7871 144.225 50.1387 144.293V145.65C49.9336 145.611 49.6504 145.602 49.3477 145.602C48.1367 145.602 47.6484 146.197 47.6484 147.35V148.473H50.041V149.879H47.6484V159H45.9492ZM53.3906 146.441C52.7461 146.441 52.2188 145.914 52.2188 145.27C52.2188 144.625 52.7461 144.098 53.3906 144.098C54.0352 144.098 54.5625 144.625 54.5625 145.27C54.5625 145.914 54.0352 146.441 53.3906 146.441ZM52.5312 159V148.473H54.2305V159H52.5312ZM57.5312 159V144.293H59.2305V159H57.5312ZM66.7891 159.186C63.7812 159.186 61.9648 157.076 61.9648 153.775V153.766C61.9648 150.514 63.8203 148.287 66.6816 148.287C69.543 148.287 71.2812 150.416 71.2812 153.561V154.225H63.7031C63.752 156.402 64.9531 157.672 66.8281 157.672C68.2539 157.672 69.1328 156.998 69.416 156.363L69.4551 156.275H71.1543L71.1348 156.354C70.7734 157.779 69.2695 159.186 66.7891 159.186ZM66.6719 149.801C65.1094 149.801 63.918 150.865 63.7324 152.867H69.5527C69.377 150.787 68.2246 149.801 66.6719 149.801Z" fill="#00FFC8"/>
</svg>
