<svg width="655" height="489" viewBox="0 0 655 489" fill="none" xmlns="http://www.w3.org/2000/svg">
<path d="M477 55C477 49.4772 481.477 45 487 45H567C572.523 45 577 49.4772 577 55V135V225V315V395C577 400.523 572.523 405 567 405H487C481.477 405 477 400.523 477 395V315V225V135V55Z" fill="#065F00"/>
<path d="M477 225V135M477 225H577M477 225V315M477 135V55C477 49.4772 481.477 45 487 45H567C572.523 45 577 49.4772 577 55V135M477 135H577M577 135V225M577 225V315M477 315V395C477 400.523 481.477 405 487 405H567C572.523 405 577 400.523 577 395V315M477 315H577" stroke="#11FF00" stroke-width="3"/>
<path d="M502.707 100.207C503.098 99.8166 503.098 99.1834 502.707 98.7929L496.343 92.4289C495.953 92.0384 495.319 92.0384 494.929 92.4289C494.538 92.8195 494.538 93.4526 494.929 93.8431L500.586 99.5L494.929 105.157C494.538 105.547 494.538 106.181 494.929 106.571C495.319 106.962 495.953 106.962 496.343 106.571L502.707 100.207ZM120 99.5V100.5H502V99.5V98.5H120V99.5Z" fill="#00F6FF"/>
<path d="M502.782 186.623C503.126 186.191 503.055 185.562 502.623 185.218L495.581 179.612C495.149 179.269 494.52 179.34 494.176 179.772C493.832 180.204 493.904 180.833 494.336 181.177L500.595 186.16L495.612 192.419C495.269 192.851 495.34 193.48 495.772 193.824C496.204 194.168 496.833 194.096 497.177 193.664L502.782 186.623ZM119 229.5L119.113 230.494L502.113 186.994L502 186L501.887 185.006L118.887 228.506L119 229.5Z" fill="#00F6FF"/>
<path d="M502.836 275.548C503.139 275.086 503.01 274.466 502.548 274.164L495.021 269.23C494.559 268.927 493.939 269.056 493.637 269.518C493.334 269.98 493.463 270.6 493.925 270.903L500.615 275.288L496.23 281.979C495.927 282.441 496.056 283.061 496.518 283.363C496.98 283.666 497.6 283.537 497.903 283.075L502.836 275.548ZM120 354.5L120.204 355.479L502.204 275.979L502 275L501.796 274.021L119.796 353.521L120 354.5Z" fill="#00F6FF"/>
<path d="M290.348 159.207C290.738 158.817 290.738 158.183 290.348 157.793L283.984 151.429C283.593 151.038 282.96 151.038 282.57 151.429C282.179 151.819 282.179 152.453 282.57 152.843L288.226 158.5L282.57 164.157C282.179 164.547 282.179 165.181 282.57 165.571C282.96 165.962 283.593 165.962 283.984 165.571L290.348 159.207ZM235.558 158.5L234.801 159.154L235.101 159.5L235.558 159.5L235.558 158.5ZM212.679 132L211.922 132.654L234.801 159.154L235.558 158.5L236.315 157.847L213.436 131.346L212.679 132ZM235.558 158.5L235.558 159.5L289.641 159.5L289.641 158.5L289.641 157.5L235.558 157.5L235.558 158.5Z" fill="#00F7FF"/>
<rect x="68" y="45" width="50" height="100" rx="10" fill="#065F00" stroke="#11FF00" stroke-width="3"/>
<rect x="68" y="175" width="50" height="100" rx="10" fill="#065F00" stroke="#11FF00" stroke-width="3"/>
<rect x="68" y="305" width="50" height="100" rx="10" fill="#065F00" stroke="#11FF00" stroke-width="3"/>
<path d="M182 55C182 49.4772 186.477 45 192 45H232H272C277.523 45 282 49.4772 282 55V95V135C282 140.523 277.523 145 272 145H232H192C186.477 145 182 140.523 182 135V95V55Z" fill="#021E4F"/>
<path d="M182 95V135C182 140.523 186.477 145 192 145H232M182 95V55C182 49.4772 186.477 45 192 45H232M182 95H282M282 95V55C282 49.4772 277.523 45 272 45H232M282 95V135C282 140.523 277.523 145 272 145H232M232 45V145" stroke="#005EFF" stroke-width="3"/>
<path d="M182 185C182 179.477 186.477 175 192 175H232H272C277.523 175 282 179.477 282 185V225V265C282 270.523 277.523 275 272 275H232H192C186.477 275 182 270.523 182 265V225V185Z" fill="#021E4F"/>
<path d="M182 225V265C182 270.523 186.477 275 192 275H232M182 225V185C182 179.477 186.477 175 192 175H232M182 225H282M282 225V185C282 179.477 277.523 175 272 175H232M282 225V265C282 270.523 277.523 275 272 275H232M232 175V275" stroke="#005EFF" stroke-width="3"/>
<path d="M182 315C182 309.477 186.477 305 192 305H232H272C277.523 305 282 309.477 282 315V355V395C282 400.523 277.523 405 272 405H232H192C186.477 405 182 400.523 182 395V355V315Z" fill="#021E4F"/>
<path d="M182 355V395C182 400.523 186.477 405 192 405H232M182 355V315C182 309.477 186.477 305 192 305H232M182 355H282M282 355V315C282 309.477 277.523 305 272 305H232M282 355V395C282 400.523 277.523 405 272 405H232M232 305V405" stroke="#005EFF" stroke-width="3"/>
<path d="M201.998 77L205.602 71.7363L201.959 66.4727H203.961L206.461 70.3887H206.617L209.088 66.4727H210.992L207.418 71.668L211.041 77H209.049L206.559 73.0254H206.402L203.902 77H201.998ZM203.551 130.691C203.326 130.691 203.033 130.672 202.799 130.633V129.236C203.004 129.275 203.268 129.285 203.502 129.285C204.469 129.285 205.055 128.846 205.436 127.635L205.631 127.01L201.734 116.473H203.551L206.441 125.135H206.598L209.479 116.473H211.266L207.154 127.645C206.285 130.008 205.416 130.691 203.551 130.691Z" fill="white"/>
<path d="M88.998 77L92.6016 71.7363L88.959 66.4727H90.9609L93.4609 70.3887H93.6172L96.0879 66.4727H97.9922L94.418 71.668L98.041 77H96.0488L93.5586 73.0254H93.4023L90.9023 77H88.998ZM90.5508 130.691C90.3262 130.691 90.0332 130.672 89.7988 130.633V129.236C90.0039 129.275 90.2676 129.285 90.502 129.285C91.4688 129.285 92.0547 128.846 92.4355 127.635L92.6309 127.01L88.7344 116.473H90.5508L93.4414 125.135H93.5977L96.4785 116.473H98.2656L94.1543 127.645C93.2852 130.008 92.416 130.691 90.5508 130.691Z" fill="white"/>
<path d="M2.99805 102V87.9082H11.5527V89.4902H4.75586V94.334H10.9961V95.8965H4.75586V102H2.99805ZM17.666 102V89.8613H17.5098L13.9258 92.459V90.6035L17.6758 87.9082H19.4238V102H17.666ZM24.4043 102.098C23.7109 102.098 23.1348 101.521 23.1348 100.828C23.1348 100.125 23.7109 99.5586 24.4043 99.5586C25.1074 99.5586 25.6738 100.125 25.6738 100.828C25.6738 101.521 25.1074 102.098 24.4043 102.098ZM32.8906 102.186C29.8926 102.186 28.0371 100.115 28.0371 96.7461V96.7266C28.0371 93.3477 29.8926 91.2871 32.8906 91.2871C35.8887 91.2871 37.7441 93.3477 37.7441 96.7266V96.7461C37.7441 100.115 35.8887 102.186 32.8906 102.186ZM32.8906 100.682C34.8828 100.682 36.0059 99.2266 36.0059 96.7461V96.7266C36.0059 94.2363 34.8828 92.791 32.8906 92.791C30.8984 92.791 29.7754 94.2363 29.7754 96.7266V96.7461C29.7754 99.2266 30.8984 100.682 32.8906 100.682Z" fill="#008489"/>
<path d="M597.49 57.332C594.375 57.332 592.52 54.4902 592.52 49.959V49.9395C592.52 45.4082 594.375 42.5762 597.49 42.5762C600.605 42.5762 602.48 45.4082 602.48 49.9395V49.959C602.48 54.4902 600.605 57.332 597.49 57.332ZM597.49 55.7988C599.512 55.7988 600.713 53.5527 600.713 49.959V49.9395C600.713 46.3457 599.512 44.1191 597.49 44.1191C595.469 44.1191 594.287 46.3457 594.287 49.9395V49.959C594.287 53.5527 595.469 55.7988 597.49 55.7988Z" fill="#008489"/>
<path d="M596.484 142V129.861H596.328L592.744 132.459V130.604L596.494 127.908H598.242V142H596.484ZM607.031 142.332C603.916 142.332 602.061 139.49 602.061 134.959V134.939C602.061 130.408 603.916 127.576 607.031 127.576C610.146 127.576 612.021 130.408 612.021 134.939V134.959C612.021 139.49 610.146 142.332 607.031 142.332ZM607.031 140.799C609.053 140.799 610.254 138.553 610.254 134.959V134.939C610.254 131.346 609.053 129.119 607.031 129.119C605.01 129.119 603.828 131.346 603.828 134.939V134.959C603.828 138.553 605.01 140.799 607.031 140.799ZM619.629 142.332C616.514 142.332 614.658 139.49 614.658 134.959V134.939C614.658 130.408 616.514 127.576 619.629 127.576C622.744 127.576 624.619 130.408 624.619 134.939V134.959C624.619 139.49 622.744 142.332 619.629 142.332ZM619.629 140.799C621.65 140.799 622.852 138.553 622.852 134.959V134.939C622.852 131.346 621.65 129.119 619.629 129.119C617.607 129.119 616.426 131.346 616.426 134.939V134.959C616.426 138.553 617.607 140.799 619.629 140.799ZM632.227 142.332C629.111 142.332 627.256 139.49 627.256 134.959V134.939C627.256 130.408 629.111 127.576 632.227 127.576C635.342 127.576 637.217 130.408 637.217 134.939V134.959C637.217 139.49 635.342 142.332 632.227 142.332ZM632.227 140.799C634.248 140.799 635.449 138.553 635.449 134.959V134.939C635.449 131.346 634.248 129.119 632.227 129.119C630.205 129.119 629.023 131.346 629.023 134.939V134.959C629.023 138.553 630.205 140.799 632.227 140.799Z" fill="#008489"/>
<path d="M602.102 232V219.861H601.945L598.361 222.459V220.604L602.111 217.908H603.859V232H602.102ZM612.561 232.332C609.934 232.332 608.059 230.643 607.854 228.387L607.844 228.279H609.533L609.543 228.357C609.709 229.705 610.93 230.779 612.58 230.779C614.455 230.779 615.744 229.441 615.744 227.537V227.518C615.744 225.643 614.436 224.305 612.609 224.305C611.672 224.305 610.871 224.588 610.266 225.164C610.021 225.398 609.797 225.672 609.621 226.004H608.098L608.84 217.908H616.682V219.48H610.227L609.748 224.246H609.904C610.529 223.299 611.633 222.781 612.912 222.781C615.559 222.781 617.463 224.764 617.463 227.488V227.508C617.463 230.35 615.422 232.332 612.561 232.332ZM625.012 232.332C621.896 232.332 620.041 229.49 620.041 224.959V224.939C620.041 220.408 621.896 217.576 625.012 217.576C628.127 217.576 630.002 220.408 630.002 224.939V224.959C630.002 229.49 628.127 232.332 625.012 232.332ZM625.012 230.799C627.033 230.799 628.234 228.553 628.234 224.959V224.939C628.234 221.346 627.033 219.119 625.012 219.119C622.99 219.119 621.809 221.346 621.809 224.939V224.959C621.809 228.553 622.99 230.799 625.012 230.799ZM637.609 232.332C634.494 232.332 632.639 229.49 632.639 224.959V224.939C632.639 220.408 634.494 217.576 637.609 217.576C640.725 217.576 642.6 220.408 642.6 224.939V224.959C642.6 229.49 640.725 232.332 637.609 232.332ZM637.609 230.799C639.631 230.799 640.832 228.553 640.832 224.959V224.939C640.832 221.346 639.631 219.119 637.609 219.119C635.588 219.119 634.406 221.346 634.406 224.939V224.959C634.406 228.553 635.588 230.799 637.609 230.799Z" fill="#008489"/>
<path d="M305.109 162V147.908H306.818L314.465 158.875H314.621V147.908H316.359V162H314.65L307.004 151.072H306.848V162H305.109ZM322.629 162.186C320.627 162.186 319.113 160.975 319.113 159.061V159.041C319.113 157.166 320.5 156.082 322.951 155.936L325.969 155.75V154.793C325.969 153.494 325.178 152.791 323.605 152.791C322.346 152.791 321.516 153.26 321.242 154.08L321.232 154.109H319.533L319.543 154.051C319.816 152.4 321.418 151.287 323.664 151.287C326.232 151.287 327.668 152.605 327.668 154.793V162H325.969V160.447H325.812C325.148 161.57 324.045 162.186 322.629 162.186ZM320.852 159.021C320.852 160.086 321.76 160.711 322.98 160.711C324.709 160.711 325.969 159.578 325.969 158.074V157.117L323.156 157.293C321.555 157.391 320.852 157.957 320.852 159.002V159.021ZM330.773 162V151.473H332.473V153.074H332.629C333.098 151.941 334.094 151.287 335.471 151.287C336.896 151.287 337.893 152.039 338.381 153.133H338.537C339.104 152.02 340.305 151.287 341.76 151.287C343.908 151.287 345.109 152.518 345.109 154.725V162H343.41V155.115C343.41 153.562 342.697 152.791 341.213 152.791C339.748 152.791 338.781 153.895 338.781 155.232V162H337.082V154.852C337.082 153.602 336.223 152.791 334.895 152.791C333.518 152.791 332.473 153.992 332.473 155.477V162H330.773ZM352.473 162.186C349.465 162.186 347.648 160.076 347.648 156.775V156.766C347.648 153.514 349.504 151.287 352.365 151.287C355.227 151.287 356.965 153.416 356.965 156.561V157.225H349.387C349.436 159.402 350.637 160.672 352.512 160.672C353.938 160.672 354.816 159.998 355.1 159.363L355.139 159.275H356.838L356.818 159.354C356.457 160.779 354.953 162.186 352.473 162.186ZM352.355 152.801C350.793 152.801 349.602 153.865 349.416 155.867H355.236C355.061 153.787 353.908 152.801 352.355 152.801ZM359.172 165.584L360.021 160.027H361.965L360.432 165.584H359.172ZM371.379 162V147.908H376.76C379.475 147.908 381.252 149.568 381.252 152.098V152.117C381.252 154.07 380.188 155.594 378.42 156.15L381.682 162H379.621L376.604 156.424H373.137V162H371.379ZM373.137 154.861H376.604C378.41 154.861 379.436 153.895 379.436 152.176V152.156C379.436 150.477 378.342 149.471 376.525 149.471H373.137V154.861ZM388.234 162.186C385.227 162.186 383.41 160.076 383.41 156.775V156.766C383.41 153.514 385.266 151.287 388.127 151.287C390.988 151.287 392.727 153.416 392.727 156.561V157.225H385.148C385.197 159.402 386.398 160.672 388.273 160.672C389.699 160.672 390.578 159.998 390.861 159.363L390.9 159.275H392.6L392.58 159.354C392.219 160.779 390.715 162.186 388.234 162.186ZM388.117 152.801C386.555 152.801 385.363 153.865 385.178 155.867H390.998C390.822 153.787 389.67 152.801 388.117 152.801ZM395.461 162V147.293H397.16V162H395.461ZM408.938 162.186C406.936 162.186 405.422 160.975 405.422 159.061V159.041C405.422 157.166 406.809 156.082 409.26 155.936L412.277 155.75V154.793C412.277 153.494 411.486 152.791 409.914 152.791C408.654 152.791 407.824 153.26 407.551 154.08L407.541 154.109H405.842L405.852 154.051C406.125 152.4 407.727 151.287 409.973 151.287C412.541 151.287 413.977 152.605 413.977 154.793V162H412.277V160.447H412.121C411.457 161.57 410.354 162.186 408.938 162.186ZM407.16 159.021C407.16 160.086 408.068 160.711 409.289 160.711C411.018 160.711 412.277 159.578 412.277 158.074V157.117L409.465 157.293C407.863 157.391 407.16 157.957 407.16 159.002V159.021ZM420.969 162.186C418.303 162.186 416.555 160.027 416.555 156.746V156.727C416.555 153.426 418.293 151.287 420.969 151.287C422.414 151.287 423.674 152.01 424.25 153.133H424.406V147.293H426.105V162H424.406V160.32H424.25C423.605 161.492 422.434 162.186 420.969 162.186ZM421.359 160.682C423.273 160.682 424.445 159.178 424.445 156.746V156.727C424.445 154.295 423.273 152.791 421.359 152.791C419.436 152.791 418.293 154.275 418.293 156.727V156.746C418.293 159.197 419.436 160.682 421.359 160.682ZM433.254 162.186C430.588 162.186 428.84 160.027 428.84 156.746V156.727C428.84 153.426 430.578 151.287 433.254 151.287C434.699 151.287 435.959 152.01 436.535 153.133H436.691V147.293H438.391V162H436.691V160.32H436.535C435.891 161.492 434.719 162.186 433.254 162.186ZM433.645 160.682C435.559 160.682 436.73 159.178 436.73 156.746V156.727C436.73 154.295 435.559 152.791 433.645 152.791C431.721 152.791 430.578 154.275 430.578 156.727V156.746C430.578 159.197 431.721 160.682 433.645 160.682ZM441.652 162V151.473H443.352V153.035H443.508C443.908 151.932 444.895 151.287 446.32 151.287C446.643 151.287 447.004 151.326 447.17 151.355V153.006C446.818 152.947 446.496 152.908 446.125 152.908C444.504 152.908 443.352 153.934 443.352 155.477V162H441.652Z" fill="#008489"/>
<path d="M187.686 447.332C184.6 447.332 182.607 445.711 182.402 443.416L182.393 443.309H184.15L184.16 443.416C184.287 444.822 185.752 445.711 187.783 445.711C189.697 445.711 191.094 444.725 191.094 443.289V443.279C191.094 442.107 190.283 441.307 188.35 440.877L186.787 440.535C183.965 439.91 182.744 438.611 182.744 436.57V436.561C182.754 434.227 184.795 432.576 187.705 432.576C190.518 432.576 192.48 434.236 192.627 436.336L192.637 436.473H190.879L190.859 436.346C190.664 435.105 189.492 434.188 187.656 434.197C185.898 434.207 184.541 435.037 184.541 436.512V436.521C184.541 437.645 185.312 438.406 187.227 438.826L188.789 439.178C191.729 439.832 192.891 441.014 192.891 443.045V443.055C192.891 445.691 190.83 447.332 187.686 447.332ZM196.504 450.691C196.279 450.691 195.986 450.672 195.752 450.633V449.236C195.957 449.275 196.221 449.285 196.455 449.285C197.422 449.285 198.008 448.846 198.389 447.635L198.584 447.01L194.688 436.473H196.504L199.395 445.135H199.551L202.432 436.473H204.219L200.107 447.645C199.238 450.008 198.369 450.691 196.504 450.691ZM206.465 447V436.473H208.164V438.074H208.32C208.789 436.941 209.785 436.287 211.162 436.287C212.588 436.287 213.584 437.039 214.072 438.133H214.229C214.795 437.02 215.996 436.287 217.451 436.287C219.6 436.287 220.801 437.518 220.801 439.725V447H219.102V440.115C219.102 438.562 218.389 437.791 216.904 437.791C215.439 437.791 214.473 438.895 214.473 440.232V447H212.773V439.852C212.773 438.602 211.914 437.791 210.586 437.791C209.209 437.791 208.164 438.992 208.164 440.477V447H206.465ZM229.707 447V432.908H231.465V445.418H238.262V447H229.707ZM241.758 434.441C241.113 434.441 240.586 433.914 240.586 433.27C240.586 432.625 241.113 432.098 241.758 432.098C242.402 432.098 242.93 432.625 242.93 433.27C242.93 433.914 242.402 434.441 241.758 434.441ZM240.898 447V436.473H242.598V447H240.898ZM251.035 447.186C249.57 447.186 248.398 446.492 247.754 445.32H247.598V447H245.898V432.293H247.598V438.133H247.754C248.33 437.01 249.59 436.287 251.035 436.287C253.711 436.287 255.449 438.426 255.449 441.727V441.746C255.449 445.027 253.701 447.186 251.035 447.186ZM250.645 445.682C252.568 445.682 253.711 444.197 253.711 441.746V441.727C253.711 439.275 252.568 437.791 250.645 437.791C248.73 437.791 247.559 439.295 247.559 441.727V441.746C247.559 444.178 248.73 445.682 250.645 445.682ZM258.086 447V436.473H259.785V438.035H259.941C260.342 436.932 261.328 436.287 262.754 436.287C263.076 436.287 263.438 436.326 263.604 436.355V438.006C263.252 437.947 262.93 437.908 262.559 437.908C260.938 437.908 259.785 438.934 259.785 440.477V447H258.086ZM268.594 447.186C266.592 447.186 265.078 445.975 265.078 444.061V444.041C265.078 442.166 266.465 441.082 268.916 440.936L271.934 440.75V439.793C271.934 438.494 271.143 437.791 269.57 437.791C268.311 437.791 267.48 438.26 267.207 439.08L267.197 439.109H265.498L265.508 439.051C265.781 437.4 267.383 436.287 269.629 436.287C272.197 436.287 273.633 437.605 273.633 439.793V447H271.934V445.447H271.777C271.113 446.57 270.01 447.186 268.594 447.186ZM266.816 444.021C266.816 445.086 267.725 445.711 268.945 445.711C270.674 445.711 271.934 444.578 271.934 443.074V442.117L269.121 442.293C267.52 442.391 266.816 442.957 266.816 444.002V444.021ZM276.738 447V436.473H278.438V438.035H278.594C278.994 436.932 279.98 436.287 281.406 436.287C281.729 436.287 282.09 436.326 282.256 436.355V438.006C281.904 437.947 281.582 437.908 281.211 437.908C279.59 437.908 278.438 438.934 278.438 440.477V447H276.738ZM285.352 450.691C285.127 450.691 284.834 450.672 284.6 450.633V449.236C284.805 449.275 285.068 449.285 285.303 449.285C286.27 449.285 286.855 448.846 287.236 447.635L287.432 447.01L283.535 436.473H285.352L288.242 445.135H288.398L291.279 436.473H293.066L288.955 447.645C288.086 450.008 287.217 450.691 285.352 450.691Z" fill="#008489"/>
<path d="M458.777 445V430.293H460.477V445H458.777ZM468.064 445.186C465.066 445.186 463.211 443.115 463.211 439.746V439.727C463.211 436.348 465.066 434.287 468.064 434.287C471.062 434.287 472.918 436.348 472.918 439.727V439.746C472.918 443.115 471.062 445.186 468.064 445.186ZM468.064 443.682C470.057 443.682 471.18 442.227 471.18 439.746V439.727C471.18 437.236 470.057 435.791 468.064 435.791C466.072 435.791 464.949 437.236 464.949 439.727V439.746C464.949 442.227 466.072 443.682 468.064 443.682ZM479.861 445.186C476.912 445.186 475.027 443.047 475.027 439.707V439.688C475.027 436.416 476.902 434.287 479.852 434.287C482.41 434.287 483.943 435.762 484.256 437.637L484.266 437.695H482.576L482.566 437.666C482.303 436.631 481.365 435.791 479.852 435.791C477.957 435.791 476.766 437.314 476.766 439.688V439.707C476.766 442.129 477.977 443.682 479.852 443.682C481.268 443.682 482.166 443.057 482.557 441.885L482.576 441.826L484.256 441.816L484.236 441.924C483.807 443.828 482.391 445.186 479.861 445.186ZM489.637 445.186C487.635 445.186 486.121 443.975 486.121 442.061V442.041C486.121 440.166 487.508 439.082 489.959 438.936L492.977 438.75V437.793C492.977 436.494 492.186 435.791 490.613 435.791C489.354 435.791 488.523 436.26 488.25 437.08L488.24 437.109H486.541L486.551 437.051C486.824 435.4 488.426 434.287 490.672 434.287C493.24 434.287 494.676 435.605 494.676 437.793V445H492.977V443.447H492.82C492.156 444.57 491.053 445.186 489.637 445.186ZM487.859 442.021C487.859 443.086 488.768 443.711 489.988 443.711C491.717 443.711 492.977 442.578 492.977 441.074V440.117L490.164 440.293C488.562 440.391 487.859 440.957 487.859 442.002V442.021ZM497.879 445V430.293H499.578V445H497.879ZM508.465 445V434.473H510.164V436.035H510.32C510.721 434.932 511.707 434.287 513.133 434.287C513.455 434.287 513.816 434.326 513.982 434.355V436.006C513.631 435.947 513.309 435.908 512.938 435.908C511.316 435.908 510.164 436.934 510.164 438.477V445H508.465ZM520.086 445.186C517.078 445.186 515.262 443.076 515.262 439.775V439.766C515.262 436.514 517.117 434.287 519.979 434.287C522.84 434.287 524.578 436.416 524.578 439.561V440.225H517C517.049 442.402 518.25 443.672 520.125 443.672C521.551 443.672 522.43 442.998 522.713 442.363L522.752 442.275H524.451L524.432 442.354C524.07 443.779 522.566 445.186 520.086 445.186ZM519.969 435.801C518.406 435.801 517.215 436.865 517.029 438.867H522.85C522.674 436.787 521.521 435.801 519.969 435.801ZM527.918 445V435.879H526.17V434.473H527.918V433.301C527.918 431.201 528.973 430.195 530.975 430.195C531.385 430.195 531.756 430.225 532.107 430.293V431.65C531.902 431.611 531.619 431.602 531.316 431.602C530.105 431.602 529.617 432.197 529.617 433.35V434.473H532.01V435.879H529.617V445H527.918ZM538.309 445.186C535.301 445.186 533.484 443.076 533.484 439.775V439.766C533.484 436.514 535.34 434.287 538.201 434.287C541.062 434.287 542.801 436.416 542.801 439.561V440.225H535.223C535.271 442.402 536.473 443.672 538.348 443.672C539.773 443.672 540.652 442.998 540.936 442.363L540.975 442.275H542.674L542.654 442.354C542.293 443.779 540.789 445.186 538.309 445.186ZM538.191 435.801C536.629 435.801 535.438 436.865 535.252 438.867H541.072C540.896 436.787 539.744 435.801 538.191 435.801ZM545.438 445V434.473H547.137V436.035H547.293C547.693 434.932 548.68 434.287 550.105 434.287C550.428 434.287 550.789 434.326 550.955 434.355V436.006C550.604 435.947 550.281 435.908 549.91 435.908C548.289 435.908 547.137 436.934 547.137 438.477V445H545.438ZM557.059 445.186C554.051 445.186 552.234 443.076 552.234 439.775V439.766C552.234 436.514 554.09 434.287 556.951 434.287C559.812 434.287 561.551 436.416 561.551 439.561V440.225H553.973C554.021 442.402 555.223 443.672 557.098 443.672C558.523 443.672 559.402 442.998 559.686 442.363L559.725 442.275H561.424L561.404 442.354C561.043 443.779 559.539 445.186 557.059 445.186ZM556.941 435.801C555.379 435.801 554.188 436.865 554.002 438.867H559.822C559.646 436.787 558.494 435.801 556.941 435.801ZM564.188 445V434.473H565.887V436.055H566.043C566.57 434.941 567.557 434.287 569.109 434.287C571.473 434.287 572.791 435.684 572.791 438.184V445H571.092V438.594C571.092 436.699 570.311 435.791 568.631 435.791C566.951 435.791 565.887 436.924 565.887 438.77V445H564.188ZM580.174 445.186C577.225 445.186 575.34 443.047 575.34 439.707V439.688C575.34 436.416 577.215 434.287 580.164 434.287C582.723 434.287 584.256 435.762 584.568 437.637L584.578 437.695H582.889L582.879 437.666C582.615 436.631 581.678 435.791 580.164 435.791C578.27 435.791 577.078 437.314 577.078 439.688V439.707C577.078 442.129 578.289 443.682 580.164 443.682C581.58 443.682 582.479 443.057 582.869 441.885L582.889 441.826L584.568 441.816L584.549 441.924C584.119 443.828 582.703 445.186 580.174 445.186ZM591.355 445.186C588.348 445.186 586.531 443.076 586.531 439.775V439.766C586.531 436.514 588.387 434.287 591.248 434.287C594.109 434.287 595.848 436.416 595.848 439.561V440.225H588.27C588.318 442.402 589.52 443.672 591.395 443.672C592.82 443.672 593.699 442.998 593.982 442.363L594.021 442.275H595.721L595.701 442.354C595.34 443.779 593.836 445.186 591.355 445.186ZM591.238 435.801C589.676 435.801 588.484 436.865 588.299 438.867H594.119C593.943 436.787 592.791 435.801 591.238 435.801ZM405.154 485.186C402.205 485.186 400.32 483.047 400.32 479.707V479.688C400.32 476.416 402.195 474.287 405.145 474.287C407.703 474.287 409.236 475.762 409.549 477.637L409.559 477.695H407.869L407.859 477.666C407.596 476.631 406.658 475.791 405.145 475.791C403.25 475.791 402.059 477.314 402.059 479.688V479.707C402.059 482.129 403.27 483.682 405.145 483.682C406.561 483.682 407.459 483.057 407.85 481.885L407.869 481.826L409.549 481.816L409.529 481.924C409.1 483.828 407.684 485.186 405.154 485.186ZM412.137 485V470.293H413.836V476.055H413.992C414.52 474.941 415.506 474.287 417.059 474.287C419.422 474.287 420.74 475.684 420.74 478.184V485H419.041V478.594C419.041 476.699 418.26 475.791 416.58 475.791C414.9 475.791 413.836 476.924 413.836 478.77V485H412.137ZM426.707 485.186C424.705 485.186 423.191 483.975 423.191 482.061V482.041C423.191 480.166 424.578 479.082 427.029 478.936L430.047 478.75V477.793C430.047 476.494 429.256 475.791 427.684 475.791C426.424 475.791 425.594 476.26 425.32 477.08L425.311 477.109H423.611L423.621 477.051C423.895 475.4 425.496 474.287 427.742 474.287C430.311 474.287 431.746 475.605 431.746 477.793V485H430.047V483.447H429.891C429.227 484.57 428.123 485.186 426.707 485.186ZM424.93 482.021C424.93 483.086 425.838 483.711 427.059 483.711C428.787 483.711 430.047 482.578 430.047 481.074V480.117L427.234 480.293C425.633 480.391 424.93 480.957 424.93 482.002V482.021ZM434.852 485V474.473H436.551V476.055H436.707C437.234 474.941 438.221 474.287 439.773 474.287C442.137 474.287 443.455 475.684 443.455 478.184V485H441.756V478.594C441.756 476.699 440.975 475.791 439.295 475.791C437.615 475.791 436.551 476.924 436.551 478.77V485H434.852ZM450.867 488.711C448.328 488.711 446.707 487.568 446.443 485.84L446.463 485.83H448.221L448.23 485.84C448.416 486.641 449.354 487.207 450.867 487.207C452.752 487.207 453.875 486.318 453.875 484.766V482.637H453.719C453.055 483.799 451.863 484.453 450.418 484.453C447.693 484.453 446.004 482.344 446.004 479.395V479.375C446.004 476.426 447.703 474.287 450.457 474.287C451.941 474.287 453.094 475.02 453.738 476.211H453.855V474.473H455.555V484.854C455.555 487.207 453.738 488.711 450.867 488.711ZM450.789 482.949C452.742 482.949 453.914 481.484 453.914 479.395V479.375C453.914 477.285 452.732 475.791 450.789 475.791C448.836 475.791 447.742 477.285 447.742 479.375V479.395C447.742 481.484 448.836 482.949 450.789 482.949ZM463.016 485.186C460.008 485.186 458.191 483.076 458.191 479.775V479.766C458.191 476.514 460.047 474.287 462.908 474.287C465.77 474.287 467.508 476.416 467.508 479.561V480.225H459.93C459.979 482.402 461.18 483.672 463.055 483.672C464.48 483.672 465.359 482.998 465.643 482.363L465.682 482.275H467.381L467.361 482.354C467 483.779 465.496 485.186 463.016 485.186ZM462.898 475.801C461.336 475.801 460.145 476.865 459.959 478.867H465.779C465.604 476.787 464.451 475.801 462.898 475.801ZM474.031 485.186C471.365 485.186 469.617 483.027 469.617 479.746V479.727C469.617 476.426 471.355 474.287 474.031 474.287C475.477 474.287 476.736 475.01 477.312 476.133H477.469V470.293H479.168V485H477.469V483.32H477.312C476.668 484.492 475.496 485.186 474.031 485.186ZM474.422 483.682C476.336 483.682 477.508 482.178 477.508 479.746V479.727C477.508 477.295 476.336 475.791 474.422 475.791C472.498 475.791 471.355 477.275 471.355 479.727V479.746C471.355 482.197 472.498 483.682 474.422 483.682ZM491.795 485.078C489.627 485.078 488.719 484.277 488.719 482.266V475.879H487.059V474.473H488.719V471.748H490.477V474.473H492.781V475.879H490.477V481.836C490.477 483.076 490.906 483.574 492 483.574C492.303 483.574 492.469 483.564 492.781 483.535V484.98C492.449 485.039 492.127 485.078 491.795 485.078ZM499.49 485.186C496.492 485.186 494.637 483.115 494.637 479.746V479.727C494.637 476.348 496.492 474.287 499.49 474.287C502.488 474.287 504.344 476.348 504.344 479.727V479.746C504.344 483.115 502.488 485.186 499.49 485.186ZM499.49 483.682C501.482 483.682 502.605 482.227 502.605 479.746V479.727C502.605 477.236 501.482 475.791 499.49 475.791C497.498 475.791 496.375 477.236 496.375 479.727V479.746C496.375 482.227 497.498 483.682 499.49 483.682ZM512.605 485V474.473H514.305V476.035H514.461C514.861 474.932 515.848 474.287 517.273 474.287C517.596 474.287 517.957 474.326 518.123 474.355V476.006C517.771 475.947 517.449 475.908 517.078 475.908C515.457 475.908 514.305 476.934 514.305 478.477V485H512.605ZM524.227 485.186C521.219 485.186 519.402 483.076 519.402 479.775V479.766C519.402 476.514 521.258 474.287 524.119 474.287C526.98 474.287 528.719 476.416 528.719 479.561V480.225H521.141C521.189 482.402 522.391 483.672 524.266 483.672C525.691 483.672 526.57 482.998 526.854 482.363L526.893 482.275H528.592L528.572 482.354C528.211 483.779 526.707 485.186 524.227 485.186ZM524.109 475.801C522.547 475.801 521.355 476.865 521.17 478.867H526.99C526.814 476.787 525.662 475.801 524.109 475.801ZM531.453 485V470.293H533.152V485H531.453ZM539.305 485.186C537.303 485.186 535.789 483.975 535.789 482.061V482.041C535.789 480.166 537.176 479.082 539.627 478.936L542.645 478.75V477.793C542.645 476.494 541.854 475.791 540.281 475.791C539.021 475.791 538.191 476.26 537.918 477.08L537.908 477.109H536.209L536.219 477.051C536.492 475.4 538.094 474.287 540.34 474.287C542.908 474.287 544.344 475.605 544.344 477.793V485H542.645V483.447H542.488C541.824 484.57 540.721 485.186 539.305 485.186ZM537.527 482.021C537.527 483.086 538.436 483.711 539.656 483.711C541.385 483.711 542.645 482.578 542.645 481.074V480.117L539.832 480.293C538.23 480.391 537.527 480.957 537.527 482.002V482.021ZM551.189 485.078C549.021 485.078 548.113 484.277 548.113 482.266V475.879H546.453V474.473H548.113V471.748H549.871V474.473H552.176V475.879H549.871V481.836C549.871 483.076 550.301 483.574 551.395 483.574C551.697 483.574 551.863 483.564 552.176 483.535V484.98C551.844 485.039 551.521 485.078 551.189 485.078ZM555.613 472.441C554.969 472.441 554.441 471.914 554.441 471.27C554.441 470.625 554.969 470.098 555.613 470.098C556.258 470.098 556.785 470.625 556.785 471.27C556.785 471.914 556.258 472.441 555.613 472.441ZM554.754 485V474.473H556.453V485H554.754ZM562.635 485L558.738 474.473H560.535L563.416 483.145H563.572L566.453 474.473H568.25L564.354 485H562.635ZM574.402 485.186C571.395 485.186 569.578 483.076 569.578 479.775V479.766C569.578 476.514 571.434 474.287 574.295 474.287C577.156 474.287 578.895 476.416 578.895 479.561V480.225H571.316C571.365 482.402 572.566 483.672 574.441 483.672C575.867 483.672 576.746 482.998 577.029 482.363L577.068 482.275H578.768L578.748 482.354C578.387 483.779 576.883 485.186 574.402 485.186ZM574.285 475.801C572.723 475.801 571.531 476.865 571.346 478.867H577.166C576.99 476.787 575.838 475.801 574.285 475.801ZM591.658 470.293L587.205 488.516H585.574L590.027 470.293H591.658ZM603.211 488.711C600.672 488.711 599.051 487.568 598.787 485.84L598.807 485.83H600.564L600.574 485.84C600.76 486.641 601.697 487.207 603.211 487.207C605.096 487.207 606.219 486.318 606.219 484.766V482.637H606.062C605.398 483.799 604.207 484.453 602.762 484.453C600.037 484.453 598.348 482.344 598.348 479.395V479.375C598.348 476.426 600.047 474.287 602.801 474.287C604.285 474.287 605.438 475.02 606.082 476.211H606.199V474.473H607.898V484.854C607.898 487.207 606.082 488.711 603.211 488.711ZM603.133 482.949C605.086 482.949 606.258 481.484 606.258 479.395V479.375C606.258 477.285 605.076 475.791 603.133 475.791C601.18 475.791 600.086 477.285 600.086 479.375V479.395C600.086 481.484 601.18 482.949 603.133 482.949ZM611.16 485V470.293H612.859V485H611.16ZM620.447 485.186C617.449 485.186 615.594 483.115 615.594 479.746V479.727C615.594 476.348 617.449 474.287 620.447 474.287C623.445 474.287 625.301 476.348 625.301 479.727V479.746C625.301 483.115 623.445 485.186 620.447 485.186ZM620.447 483.682C622.439 483.682 623.562 482.227 623.562 479.746V479.727C623.562 477.236 622.439 475.791 620.447 475.791C618.455 475.791 617.332 477.236 617.332 479.727V479.746C617.332 482.227 618.455 483.682 620.447 483.682ZM633.172 485.186C631.707 485.186 630.535 484.492 629.891 483.32H629.734V485H628.035V470.293H629.734V476.133H629.891C630.467 475.01 631.727 474.287 633.172 474.287C635.848 474.287 637.586 476.426 637.586 479.727V479.746C637.586 483.027 635.838 485.186 633.172 485.186ZM632.781 483.682C634.705 483.682 635.848 482.197 635.848 479.746V479.727C635.848 477.275 634.705 475.791 632.781 475.791C630.867 475.791 629.695 477.295 629.695 479.727V479.746C629.695 482.178 630.867 483.682 632.781 483.682ZM643.113 485.186C641.111 485.186 639.598 483.975 639.598 482.061V482.041C639.598 480.166 640.984 479.082 643.436 478.936L646.453 478.75V477.793C646.453 476.494 645.662 475.791 644.09 475.791C642.83 475.791 642 476.26 641.727 477.08L641.717 477.109H640.018L640.027 477.051C640.301 475.4 641.902 474.287 644.148 474.287C646.717 474.287 648.152 475.605 648.152 477.793V485H646.453V483.447H646.297C645.633 484.57 644.529 485.186 643.113 485.186ZM641.336 482.021C641.336 483.086 642.244 483.711 643.465 483.711C645.193 483.711 646.453 482.578 646.453 481.074V480.117L643.641 480.293C642.039 480.391 641.336 480.957 641.336 482.002V482.021ZM651.355 485V470.293H653.055V485H651.355Z" fill="#008489"/>
<path d="M171.746 15.332C168.66 15.332 166.668 13.7109 166.463 11.416L166.453 11.3086H168.211L168.221 11.416C168.348 12.8223 169.812 13.7109 171.844 13.7109C173.758 13.7109 175.154 12.7246 175.154 11.2891V11.2793C175.154 10.1074 174.344 9.30664 172.41 8.87695L170.848 8.53516C168.025 7.91016 166.805 6.61133 166.805 4.57031V4.56055C166.814 2.22656 168.855 0.576172 171.766 0.576172C174.578 0.576172 176.541 2.23633 176.688 4.33594L176.697 4.47266H174.939L174.92 4.3457C174.725 3.10547 173.553 2.1875 171.717 2.19727C169.959 2.20703 168.602 3.03711 168.602 4.51172V4.52148C168.602 5.64453 169.373 6.40625 171.287 6.82617L172.85 7.17773C175.789 7.83203 176.951 9.01367 176.951 11.0449V11.0547C176.951 13.6914 174.891 15.332 171.746 15.332ZM180.564 18.6914C180.34 18.6914 180.047 18.6719 179.812 18.6328V17.2363C180.018 17.2754 180.281 17.2852 180.516 17.2852C181.482 17.2852 182.068 16.8457 182.449 15.6348L182.645 15.0098L178.748 4.47266H180.564L183.455 13.1348H183.611L186.492 4.47266H188.279L184.168 15.6445C183.299 18.0078 182.43 18.6914 180.564 18.6914ZM190.525 15V4.47266H192.225V6.07422H192.381C192.85 4.94141 193.846 4.28711 195.223 4.28711C196.648 4.28711 197.645 5.03906 198.133 6.13281H198.289C198.855 5.01953 200.057 4.28711 201.512 4.28711C203.66 4.28711 204.861 5.51758 204.861 7.72461V15H203.162V8.11523C203.162 6.5625 202.449 5.79102 200.965 5.79102C199.5 5.79102 198.533 6.89453 198.533 8.23242V15H196.834V7.85156C196.834 6.60156 195.975 5.79102 194.646 5.79102C193.27 5.79102 192.225 6.99219 192.225 8.47656V15H190.525ZM213.162 15.1855C211.697 15.1855 210.525 14.4922 209.881 13.3203H209.725V15H208.025V0.292969H209.725V6.13281H209.881C210.457 5.00977 211.717 4.28711 213.162 4.28711C215.838 4.28711 217.576 6.42578 217.576 9.72656V9.74609C217.576 13.0273 215.828 15.1855 213.162 15.1855ZM212.771 13.6816C214.695 13.6816 215.838 12.1973 215.838 9.74609V9.72656C215.838 7.27539 214.695 5.79102 212.771 5.79102C210.857 5.79102 209.686 7.29492 209.686 9.72656V9.74609C209.686 12.1777 210.857 13.6816 212.771 13.6816ZM224.539 15.1855C221.541 15.1855 219.686 13.1152 219.686 9.74609V9.72656C219.686 6.34766 221.541 4.28711 224.539 4.28711C227.537 4.28711 229.393 6.34766 229.393 9.72656V9.74609C229.393 13.1152 227.537 15.1855 224.539 15.1855ZM224.539 13.6816C226.531 13.6816 227.654 12.2266 227.654 9.74609V9.72656C227.654 7.23633 226.531 5.79102 224.539 5.79102C222.547 5.79102 221.424 7.23633 221.424 9.72656V9.74609C221.424 12.2266 222.547 13.6816 224.539 13.6816ZM232.127 15V0.292969H233.826V15H232.127ZM246.453 15.0781C244.285 15.0781 243.377 14.2773 243.377 12.2656V5.87891H241.717V4.47266H243.377V1.74805H245.135V4.47266H247.439V5.87891H245.135V11.8359C245.135 13.0762 245.564 13.5742 246.658 13.5742C246.961 13.5742 247.127 13.5645 247.439 13.5352V14.9805C247.107 15.0391 246.785 15.0781 246.453 15.0781ZM252.869 15.1855C250.867 15.1855 249.354 13.9746 249.354 12.0605V12.041C249.354 10.166 250.74 9.08203 253.191 8.93555L256.209 8.75V7.79297C256.209 6.49414 255.418 5.79102 253.846 5.79102C252.586 5.79102 251.756 6.25977 251.482 7.08008L251.473 7.10938H249.773L249.783 7.05078C250.057 5.40039 251.658 4.28711 253.904 4.28711C256.473 4.28711 257.908 5.60547 257.908 7.79297V15H256.209V13.4473H256.053C255.389 14.5703 254.285 15.1855 252.869 15.1855ZM251.092 12.0215C251.092 13.0859 252 13.7109 253.221 13.7109C254.949 13.7109 256.209 12.5781 256.209 11.0742V10.1172L253.396 10.293C251.795 10.3906 251.092 10.957 251.092 12.002V12.0215ZM266.248 15.1855C264.783 15.1855 263.611 14.4922 262.967 13.3203H262.811V15H261.111V0.292969H262.811V6.13281H262.967C263.543 5.00977 264.803 4.28711 266.248 4.28711C268.924 4.28711 270.662 6.42578 270.662 9.72656V9.74609C270.662 13.0273 268.914 15.1855 266.248 15.1855ZM265.857 13.6816C267.781 13.6816 268.924 12.1973 268.924 9.74609V9.72656C268.924 7.27539 267.781 5.79102 265.857 5.79102C263.943 5.79102 262.771 7.29492 262.771 9.72656V9.74609C262.771 12.1777 263.943 13.6816 265.857 13.6816ZM273.396 15V0.292969H275.096V15H273.396ZM282.654 15.1855C279.646 15.1855 277.83 13.0762 277.83 9.77539V9.76562C277.83 6.51367 279.686 4.28711 282.547 4.28711C285.408 4.28711 287.146 6.41602 287.146 9.56055V10.2246H279.568C279.617 12.4023 280.818 13.6719 282.693 13.6719C284.119 13.6719 284.998 12.998 285.281 12.3633L285.32 12.2754H287.02L287 12.3535C286.639 13.7793 285.135 15.1855 282.654 15.1855ZM282.537 5.80078C280.975 5.80078 279.783 6.86523 279.598 8.86719H285.418C285.242 6.78711 284.09 5.80078 282.537 5.80078ZM293.396 15.1855C291.053 15.1855 289.441 14.0527 289.246 12.3145H290.984C291.268 13.1934 292.107 13.7695 293.455 13.7695C294.871 13.7695 295.877 13.0957 295.877 12.1387V12.1191C295.877 11.4062 295.34 10.9082 294.041 10.5957L292.41 10.2051C290.438 9.73633 289.549 8.87695 289.549 7.36328V7.35352C289.549 5.60547 291.229 4.28711 293.465 4.28711C295.672 4.28711 297.205 5.39062 297.439 7.10938H295.77C295.545 6.2793 294.725 5.70312 293.455 5.70312C292.205 5.70312 291.287 6.34766 291.287 7.27539V7.29492C291.287 8.00781 291.814 8.45703 293.055 8.75977L294.676 9.15039C296.658 9.62891 297.615 10.4883 297.615 11.9922V12.0117C297.615 13.8867 295.789 15.1855 293.396 15.1855Z" fill="#008489"/>
<path d="M2.10156 232V217.908H10.6562V219.49H3.85938V224.334H10.0996V225.896H3.85938V232H2.10156ZM13.127 232V230.789L17.8926 225.633C19.6895 223.689 20.2168 222.957 20.2168 221.727V221.707C20.2168 220.223 19.2109 219.109 17.5508 219.109C15.8613 219.109 14.7383 220.213 14.7383 221.873L14.7285 221.893L13.0488 221.883L13.0293 221.873C13.0391 219.373 14.9727 217.576 17.668 217.576C20.1289 217.576 22.0137 219.246 22.0137 221.521V221.541C22.0137 223.152 21.3203 224.324 18.7715 226.951L15.5684 230.262V230.418H22.248V232H13.127ZM26.3008 232.098C25.6074 232.098 25.0312 231.521 25.0312 230.828C25.0312 230.125 25.6074 229.559 26.3008 229.559C27.0039 229.559 27.5703 230.125 27.5703 230.828C27.5703 231.521 27.0039 232.098 26.3008 232.098ZM34.7871 232.186C31.7891 232.186 29.9336 230.115 29.9336 226.746V226.727C29.9336 223.348 31.7891 221.287 34.7871 221.287C37.7852 221.287 39.6406 223.348 39.6406 226.727V226.746C39.6406 230.115 37.7852 232.186 34.7871 232.186ZM34.7871 230.682C36.7793 230.682 37.9023 229.227 37.9023 226.746V226.727C37.9023 224.236 36.7793 222.791 34.7871 222.791C32.7949 222.791 31.6719 224.236 31.6719 226.727V226.746C31.6719 229.227 32.7949 230.682 34.7871 230.682Z" fill="#008489"/>
<path d="M1.95312 362V347.293H3.65234V362H1.95312ZM7.8125 349.441C7.16797 349.441 6.64062 348.914 6.64062 348.27C6.64062 347.625 7.16797 347.098 7.8125 347.098C8.45703 347.098 8.98438 347.625 8.98438 348.27C8.98438 348.914 8.45703 349.441 7.8125 349.441ZM6.95312 362V351.473H8.65234V362H6.95312ZM17.0898 362.186C15.625 362.186 14.4531 361.492 13.8086 360.32H13.6523V362H11.9531V347.293H13.6523V353.133H13.8086C14.3848 352.01 15.6445 351.287 17.0898 351.287C19.7656 351.287 21.5039 353.426 21.5039 356.727V356.746C21.5039 360.027 19.7559 362.186 17.0898 362.186ZM16.6992 360.682C18.623 360.682 19.7656 359.197 19.7656 356.746V356.727C19.7656 354.275 18.623 352.791 16.6992 352.791C14.7852 352.791 13.6133 354.295 13.6133 356.727V356.746C13.6133 359.178 14.7852 360.682 16.6992 360.682ZM25.332 362.098C24.6387 362.098 24.0625 361.521 24.0625 360.828C24.0625 360.125 24.6387 359.559 25.332 359.559C26.0352 359.559 26.6016 360.125 26.6016 360.828C26.6016 361.521 26.0352 362.098 25.332 362.098ZM33.8184 362.186C30.8203 362.186 28.9648 360.115 28.9648 356.746V356.727C28.9648 353.348 30.8203 351.287 33.8184 351.287C36.8164 351.287 38.6719 353.348 38.6719 356.727V356.746C38.6719 360.115 36.8164 362.186 33.8184 362.186ZM33.8184 360.682C35.8105 360.682 36.9336 359.227 36.9336 356.746V356.727C36.9336 354.236 35.8105 352.791 33.8184 352.791C31.8262 352.791 30.7031 354.236 30.7031 356.727V356.746C30.7031 359.227 31.8262 360.682 33.8184 360.682Z" fill="#008489"/>
<path d="M92.4551 207.186C90.4531 207.186 88.9395 205.975 88.9395 204.061V204.041C88.9395 202.166 90.3262 201.082 92.7773 200.936L95.7949 200.75V199.793C95.7949 198.494 95.0039 197.791 93.4316 197.791C92.1719 197.791 91.3418 198.26 91.0684 199.08L91.0586 199.109H89.3594L89.3691 199.051C89.6426 197.4 91.2441 196.287 93.4902 196.287C96.0586 196.287 97.4941 197.605 97.4941 199.793V207H95.7949V205.447H95.6387C94.9746 206.57 93.8711 207.186 92.4551 207.186ZM90.6777 204.021C90.6777 205.086 91.5859 205.711 92.8066 205.711C94.5352 205.711 95.7949 204.578 95.7949 203.074V202.117L92.9824 202.293C91.3809 202.391 90.6777 202.957 90.6777 204.002V204.021ZM94.1738 257.186C92.709 257.186 91.5371 256.492 90.8926 255.32H90.7363V257H89.0371V242.293H90.7363V248.133H90.8926C91.4688 247.01 92.7285 246.287 94.1738 246.287C96.8496 246.287 98.5879 248.426 98.5879 251.727V251.746C98.5879 255.027 96.8398 257.186 94.1738 257.186ZM93.7832 255.682C95.707 255.682 96.8496 254.197 96.8496 251.746V251.727C96.8496 249.275 95.707 247.791 93.7832 247.791C91.8691 247.791 90.6973 249.295 90.6973 251.727V251.746C90.6973 254.178 91.8691 255.682 93.7832 255.682Z" fill="white"/>
<path d="M205.455 207.186C203.453 207.186 201.939 205.975 201.939 204.061V204.041C201.939 202.166 203.326 201.082 205.777 200.936L208.795 200.75V199.793C208.795 198.494 208.004 197.791 206.432 197.791C205.172 197.791 204.342 198.26 204.068 199.08L204.059 199.109H202.359L202.369 199.051C202.643 197.4 204.244 196.287 206.49 196.287C209.059 196.287 210.494 197.605 210.494 199.793V207H208.795V205.447H208.639C207.975 206.57 206.871 207.186 205.455 207.186ZM203.678 204.021C203.678 205.086 204.586 205.711 205.807 205.711C207.535 205.711 208.795 204.578 208.795 203.074V202.117L205.982 202.293C204.381 202.391 203.678 202.957 203.678 204.002V204.021ZM207.174 257.186C205.709 257.186 204.537 256.492 203.893 255.32H203.736V257H202.037V242.293H203.736V248.133H203.893C204.469 247.01 205.729 246.287 207.174 246.287C209.85 246.287 211.588 248.426 211.588 251.727V251.746C211.588 255.027 209.84 257.186 207.174 257.186ZM206.783 255.682C208.707 255.682 209.85 254.197 209.85 251.746V251.727C209.85 249.275 208.707 247.791 206.783 247.791C204.869 247.791 203.697 249.295 203.697 251.727V251.746C203.697 254.178 204.869 255.682 206.783 255.682Z" fill="white"/>
<path d="M93.793 337.186C90.8438 337.186 88.959 335.047 88.959 331.707V331.688C88.959 328.416 90.834 326.287 93.7832 326.287C96.3418 326.287 97.875 327.762 98.1875 329.637L98.1973 329.695H96.5078L96.498 329.666C96.2344 328.631 95.2969 327.791 93.7832 327.791C91.8887 327.791 90.6973 329.314 90.6973 331.688V331.707C90.6973 334.129 91.9082 335.682 93.7832 335.682C95.1992 335.682 96.0977 335.057 96.4883 333.885L96.5078 333.826L98.1875 333.816L98.168 333.924C97.7383 335.828 96.3223 337.186 93.793 337.186ZM92.8262 387.186C90.1602 387.186 88.4121 385.027 88.4121 381.746V381.727C88.4121 378.426 90.1504 376.287 92.8262 376.287C94.2715 376.287 95.5312 377.01 96.1074 378.133H96.2637V372.293H97.9629V387H96.2637V385.32H96.1074C95.4629 386.492 94.291 387.186 92.8262 387.186ZM93.2168 385.682C95.1309 385.682 96.3027 384.178 96.3027 381.746V381.727C96.3027 379.295 95.1309 377.791 93.2168 377.791C91.293 377.791 90.1504 379.275 90.1504 381.727V381.746C90.1504 384.197 91.293 385.682 93.2168 385.682Z" fill="white"/>
</svg>
