<svg width="884" height="711" viewBox="0 0 884 711" fill="none" xmlns="http://www.w3.org/2000/svg">
<rect x="85.5" y="154.5" width="162" height="305" rx="13.5" fill="#4A6500" stroke="#BBFF00" stroke-width="3"/>
<rect x="404.5" y="41.5" width="162" height="668" rx="13.5" fill="#4A6500" stroke="#BBFF00" stroke-width="3"/>
<path d="M126.973 125V110.908H136.309V113.34H129.922V116.738H135.947V119.004H129.922V122.568H136.309V125H126.973ZM138.564 125L143.037 117.9V117.871L138.584 110.908H142.061L145.049 115.986H145.166L148.135 110.908H151.436L146.816 117.92V117.959L151.367 125H148.008L144.922 120.059H144.824L141.748 125H138.564ZM154.004 125V110.908H163.34V113.34H156.953V116.738H162.979V119.004H156.953V122.568H163.34V125H154.004Z" fill="#C3A900"/>
<path d="M162.643 503V492.248H165.494V493.918H165.67C166.012 492.756 166.988 492.072 168.385 492.072C168.766 492.072 169.166 492.131 169.449 492.209V494.699C169.02 494.602 168.58 494.533 168.141 494.533C166.52 494.533 165.494 495.461 165.494 496.984V503H162.643ZM175.826 503.225C172.555 503.225 170.572 501.086 170.572 497.639V497.629C170.572 494.211 172.574 492.014 175.709 492.014C178.844 492.014 180.797 494.162 180.797 497.414V498.303H173.395C173.424 500.07 174.371 501.096 175.885 501.096C177.135 501.096 177.828 500.432 178.023 500.021L178.053 499.963H180.709L180.689 500.061C180.357 501.408 178.971 503.225 175.826 503.225ZM175.758 494.152C174.518 494.152 173.6 494.992 173.424 496.516H178.062C177.887 494.953 176.998 494.152 175.758 494.152ZM183.229 503V488.137H186.08V503H183.229ZM191.959 503.166C189.908 503.166 188.453 501.896 188.453 499.943V499.924C188.453 497.99 189.947 496.857 192.623 496.701L195.221 496.545V495.656C195.221 494.729 194.586 494.201 193.414 494.201C192.389 494.201 191.734 494.562 191.51 495.197L191.49 495.236H188.854L188.863 495.148C189.088 493.264 190.865 492.014 193.57 492.014C196.422 492.014 198.033 493.361 198.033 495.656V503H195.221V501.574H195.045C194.498 502.57 193.365 503.166 191.959 503.166ZM191.236 499.768C191.236 500.588 191.93 501.086 192.916 501.086C194.234 501.086 195.221 500.217 195.221 499.084V498.293L193.053 498.43C191.832 498.508 191.236 498.967 191.236 499.748V499.768ZM205.289 503.039C202.672 503.039 201.617 502.189 201.617 500.1V494.396H199.957V492.248H201.617V489.68H204.498V492.248H206.715V494.396H204.498V499.445C204.498 500.412 204.908 500.842 205.875 500.842C206.246 500.842 206.441 500.822 206.715 500.793V502.912C206.363 502.98 205.836 503.039 205.289 503.039ZM210.543 490.598C209.664 490.598 208.932 489.895 208.932 489.016C208.932 488.127 209.664 487.424 210.543 487.424C211.422 487.424 212.145 488.127 212.145 489.016C212.145 489.895 211.422 490.598 210.543 490.598ZM209.107 503V492.248H211.959V503H209.107ZM219.605 503.225C216.295 503.225 214.303 501.125 214.303 497.629V497.609C214.303 494.143 216.324 492.014 219.605 492.014C222.887 492.014 224.908 494.133 224.908 497.609V497.629C224.908 501.135 222.916 503.225 219.605 503.225ZM219.605 500.988C221.119 500.988 221.988 499.748 221.988 497.629V497.609C221.988 495.51 221.109 494.25 219.605 494.25C218.092 494.25 217.223 495.51 217.223 497.609V497.629C217.223 499.748 218.082 500.988 219.605 500.988ZM227.232 503V492.248H230.084V493.908H230.26C230.748 492.746 231.812 492.014 233.346 492.014C235.738 492.014 237.027 493.479 237.027 496.047V503H234.176V496.691C234.176 495.178 233.551 494.377 232.203 494.377C230.885 494.377 230.084 495.324 230.084 496.779V503H227.232ZM251.295 503.166C249.771 503.166 248.629 502.492 248.072 501.33H247.896V503H245.045V488.137H247.896V493.967H248.072C248.619 492.795 249.82 492.072 251.295 492.072C254.02 492.072 255.66 494.152 255.66 497.609V497.629C255.66 501.066 253.98 503.166 251.295 503.166ZM250.318 500.803C251.832 500.803 252.76 499.611 252.76 497.629V497.609C252.76 495.646 251.822 494.436 250.318 494.436C248.824 494.436 247.867 495.646 247.867 497.619V497.639C247.867 499.611 248.814 500.803 250.318 500.803ZM259.43 490.598C258.551 490.598 257.818 489.895 257.818 489.016C257.818 488.127 258.551 487.424 259.43 487.424C260.309 487.424 261.031 488.127 261.031 489.016C261.031 489.895 260.309 490.598 259.43 490.598ZM257.994 503V492.248H260.846V503H257.994ZM268.18 503.039C265.562 503.039 264.508 502.189 264.508 500.1V494.396H262.848V492.248H264.508V489.68H267.389V492.248H269.605V494.396H267.389V499.445C267.389 500.412 267.799 500.842 268.766 500.842C269.137 500.842 269.332 500.822 269.605 500.793V502.912C269.254 502.98 268.727 503.039 268.18 503.039ZM276.158 503.225C273.238 503.225 271.578 501.916 271.373 500.07L271.363 500.031H274.166L274.186 500.07C274.41 500.734 275.064 501.213 276.188 501.213C277.281 501.213 278.023 500.744 278.023 500.031V500.012C278.023 499.436 277.594 499.074 276.5 498.83L274.703 498.449C272.652 498.01 271.637 497.004 271.637 495.393V495.383C271.637 493.361 273.434 492.014 276.119 492.014C278.941 492.014 280.504 493.42 280.621 495.148V495.188H277.975L277.965 495.139C277.809 494.562 277.174 494.025 276.109 494.025C275.123 494.025 274.42 494.484 274.42 495.207V495.217C274.42 495.793 274.82 496.125 275.934 496.369L277.721 496.75C279.869 497.209 280.875 498.107 280.875 499.699V499.709C280.875 501.838 278.912 503.225 276.158 503.225Z" fill="#C3A900"/>
<path d="M289.771 435V424.248H292.623V425.918H292.799C293.141 424.756 294.117 424.072 295.514 424.072C295.895 424.072 296.295 424.131 296.578 424.209V426.699C296.148 426.602 295.709 426.533 295.27 426.533C293.648 426.533 292.623 427.461 292.623 428.984V435H289.771ZM302.955 435.225C299.684 435.225 297.701 433.086 297.701 429.639V429.629C297.701 426.211 299.703 424.014 302.838 424.014C305.973 424.014 307.926 426.162 307.926 429.414V430.303H300.523C300.553 432.07 301.5 433.096 303.014 433.096C304.264 433.096 304.957 432.432 305.152 432.021L305.182 431.963H307.838L307.818 432.061C307.486 433.408 306.1 435.225 302.955 435.225ZM302.887 426.152C301.646 426.152 300.729 426.992 300.553 428.516H305.191C305.016 426.953 304.127 426.152 302.887 426.152ZM310.357 435V420.137H313.209V435H310.357ZM320.934 435.225C317.623 435.225 315.631 433.125 315.631 429.629V429.609C315.631 426.143 317.652 424.014 320.934 424.014C324.215 424.014 326.236 426.133 326.236 429.609V429.629C326.236 433.135 324.244 435.225 320.934 435.225ZM320.934 432.988C322.447 432.988 323.316 431.748 323.316 429.629V429.609C323.316 427.51 322.438 426.25 320.934 426.25C319.42 426.25 318.551 427.51 318.551 429.609V429.629C318.551 431.748 319.41 432.988 320.934 432.988ZM333.297 435.225C329.938 435.225 328.033 433.184 328.033 429.609V429.59C328.033 426.055 329.928 424.014 333.297 424.014C336.148 424.014 337.838 425.566 338.092 427.969V427.998H335.436L335.426 427.979C335.24 426.934 334.527 426.25 333.307 426.25C331.773 426.25 330.934 427.441 330.934 429.59V429.609C330.934 431.787 331.783 432.988 333.307 432.988C334.479 432.988 335.172 432.432 335.426 431.357L335.445 431.318H338.082L338.072 431.377C337.779 433.721 336.1 435.225 333.297 435.225ZM343.248 435.166C341.197 435.166 339.742 433.896 339.742 431.943V431.924C339.742 429.99 341.236 428.857 343.912 428.701L346.51 428.545V427.656C346.51 426.729 345.875 426.201 344.703 426.201C343.678 426.201 343.023 426.562 342.799 427.197L342.779 427.236H340.143L340.152 427.148C340.377 425.264 342.154 424.014 344.859 424.014C347.711 424.014 349.322 425.361 349.322 427.656V435H346.51V433.574H346.334C345.787 434.57 344.654 435.166 343.248 435.166ZM342.525 431.768C342.525 432.588 343.219 433.086 344.205 433.086C345.523 433.086 346.51 432.217 346.51 431.084V430.293L344.342 430.43C343.121 430.508 342.525 430.967 342.525 431.748V431.768ZM356.578 435.039C353.961 435.039 352.906 434.189 352.906 432.1V426.396H351.246V424.248H352.906V421.68H355.787V424.248H358.004V426.396H355.787V431.445C355.787 432.412 356.197 432.842 357.164 432.842C357.535 432.842 357.73 432.822 358.004 432.793V434.912C357.652 434.98 357.125 435.039 356.578 435.039ZM361.832 422.598C360.953 422.598 360.221 421.895 360.221 421.016C360.221 420.127 360.953 419.424 361.832 419.424C362.711 419.424 363.434 420.127 363.434 421.016C363.434 421.895 362.711 422.598 361.832 422.598ZM360.396 435V424.248H363.248V435H360.396ZM370.895 435.225C367.584 435.225 365.592 433.125 365.592 429.629V429.609C365.592 426.143 367.613 424.014 370.895 424.014C374.176 424.014 376.197 426.133 376.197 429.609V429.629C376.197 433.135 374.205 435.225 370.895 435.225ZM370.895 432.988C372.408 432.988 373.277 431.748 373.277 429.629V429.609C373.277 427.51 372.398 426.25 370.895 426.25C369.381 426.25 368.512 427.51 368.512 429.609V429.629C368.512 431.748 369.371 432.988 370.895 432.988ZM378.521 435V424.248H381.373V425.908H381.549C382.037 424.746 383.102 424.014 384.635 424.014C387.027 424.014 388.316 425.479 388.316 428.047V435H385.465V428.691C385.465 427.178 384.84 426.377 383.492 426.377C382.174 426.377 381.373 427.324 381.373 428.779V435H378.521Z" fill="#00D5FF"/>
<path d="M431.758 12V1.24805H434.609V2.92773H434.785C435.244 1.7168 436.357 1.01367 437.764 1.01367C439.229 1.01367 440.312 1.75586 440.752 2.99609H440.928C441.416 1.80469 442.666 1.01367 444.17 1.01367C446.309 1.01367 447.646 2.40039 447.646 4.61719V12H444.795V5.33008C444.795 4.03125 444.209 3.37695 443.018 3.37695C441.865 3.37695 441.123 4.22656 441.123 5.38867V12H438.271V5.20312C438.271 4.05078 437.617 3.37695 436.504 3.37695C435.391 3.37695 434.609 4.28516 434.609 5.51562V12H431.758ZM455.137 12.2246C451.865 12.2246 449.883 10.0859 449.883 6.63867V6.62891C449.883 3.21094 451.885 1.01367 455.02 1.01367C458.154 1.01367 460.107 3.16211 460.107 6.41406V7.30273H452.705C452.734 9.07031 453.682 10.0957 455.195 10.0957C456.445 10.0957 457.139 9.43164 457.334 9.02148L457.363 8.96289H460.02L460 9.06055C459.668 10.4082 458.281 12.2246 455.137 12.2246ZM455.068 3.15234C453.828 3.15234 452.91 3.99219 452.734 5.51562H457.373C457.197 3.95312 456.309 3.15234 455.068 3.15234ZM462.441 12V1.24805H465.293V2.92773H465.469C465.928 1.7168 467.041 1.01367 468.447 1.01367C469.912 1.01367 470.996 1.75586 471.436 2.99609H471.611C472.1 1.80469 473.35 1.01367 474.854 1.01367C476.992 1.01367 478.33 2.40039 478.33 4.61719V12H475.479V5.33008C475.479 4.03125 474.893 3.37695 473.701 3.37695C472.549 3.37695 471.807 4.22656 471.807 5.38867V12H468.955V5.20312C468.955 4.05078 468.301 3.37695 467.188 3.37695C466.074 3.37695 465.293 4.28516 465.293 5.51562V12H462.441Z" fill="#C3A900"/>
<path d="M2.03516 223V208.908H11.2637V211.34H4.98438V215.119H10.7168V217.453H4.98438V223H2.03516ZM17.1523 223V211.691H16.9766L13.5195 214.094V211.438L17.1621 208.908H20.1016V223H17.1523ZM25.4434 223.244C24.4473 223.244 23.7246 222.512 23.7246 221.545C23.7246 220.578 24.4473 219.855 25.4434 219.855C26.4492 219.855 27.1621 220.578 27.1621 221.545C27.1621 222.512 26.4492 223.244 25.4434 223.244ZM34.8281 223.361C31.3516 223.361 29.2324 220.51 29.2324 215.959V215.939C29.2324 211.379 31.3516 208.547 34.8281 208.547C38.3145 208.547 40.4238 211.379 40.4238 215.939V215.959C40.4238 220.51 38.3145 223.361 34.8281 223.361ZM34.8281 221.027C36.498 221.027 37.4453 219.143 37.4453 215.959V215.939C37.4453 212.746 36.498 210.881 34.8281 210.881C33.168 210.881 32.2207 212.746 32.2207 215.939V215.959C32.2207 219.143 33.168 221.027 34.8281 221.027Z" fill="#00D5FF"/>
<path d="M353.064 103L357.537 95.9004V95.8711L353.084 88.9082H356.561L359.549 93.9863H359.666L362.635 88.9082H365.936L361.316 95.9199V95.959L365.867 103H362.508L359.422 98.0586H359.324L356.248 103H353.064Z" fill="#00D5FF"/>
<path d="M131.457 244.166C129.406 244.166 127.951 242.896 127.951 240.943V240.924C127.951 238.99 129.445 237.857 132.121 237.701L134.719 237.545V236.656C134.719 235.729 134.084 235.201 132.912 235.201C131.887 235.201 131.232 235.562 131.008 236.197L130.988 236.236H128.352L128.361 236.148C128.586 234.264 130.363 233.014 133.068 233.014C135.92 233.014 137.531 234.361 137.531 236.656V244H134.719V242.574H134.543C133.996 243.57 132.863 244.166 131.457 244.166ZM130.734 240.768C130.734 241.588 131.428 242.086 132.414 242.086C133.732 242.086 134.719 241.217 134.719 240.084V239.293L132.551 239.43C131.33 239.508 130.734 239.967 130.734 240.748V240.768ZM134.26 314.166C132.736 314.166 131.594 313.492 131.037 312.33H130.861V314H128.01V299.137H130.861V304.967H131.037C131.584 303.795 132.785 303.072 134.26 303.072C136.984 303.072 138.625 305.152 138.625 308.609V308.629C138.625 312.066 136.945 314.166 134.26 314.166ZM133.283 311.803C134.797 311.803 135.725 310.611 135.725 308.629V308.609C135.725 306.646 134.787 305.436 133.283 305.436C131.789 305.436 130.832 306.646 130.832 308.619V308.639C130.832 310.611 131.779 311.803 133.283 311.803ZM133.283 384.225C129.924 384.225 128.02 382.184 128.02 378.609V378.59C128.02 375.055 129.914 373.014 133.283 373.014C136.135 373.014 137.824 374.566 138.078 376.969V376.998H135.422L135.412 376.979C135.227 375.934 134.514 375.25 133.293 375.25C131.76 375.25 130.92 376.441 130.92 378.59V378.609C130.92 380.787 131.77 381.988 133.293 381.988C134.465 381.988 135.158 381.432 135.412 380.357L135.432 380.318H138.068L138.059 380.377C137.766 382.721 136.086 384.225 133.283 384.225Z" fill="#BBFF00"/>
<path d="M201.256 244V232.691H201.08L197.623 235.094V232.438L201.266 229.908H204.205V244H201.256ZM201.256 314V302.691H201.08L197.623 305.094V302.438L201.266 299.908H204.205V314H201.256ZM201.256 384V372.691H201.08L197.623 375.094V372.438L201.266 369.908H204.205V384H201.256Z" fill="#BBFF00"/>
<path d="M466.271 248.166C464.221 248.166 462.766 246.896 462.766 244.943V244.924C462.766 242.99 464.26 241.857 466.936 241.701L469.533 241.545V240.656C469.533 239.729 468.898 239.201 467.727 239.201C466.701 239.201 466.047 239.562 465.822 240.197L465.803 240.236H463.166L463.176 240.148C463.4 238.264 465.178 237.014 467.883 237.014C470.734 237.014 472.346 238.361 472.346 240.656V248H469.533V246.574H469.357C468.811 247.57 467.678 248.166 466.271 248.166ZM465.549 244.768C465.549 245.588 466.242 246.086 467.229 246.086C468.547 246.086 469.533 245.217 469.533 244.084V243.293L467.365 243.43C466.145 243.508 465.549 243.967 465.549 244.748V244.768ZM480.08 243.596V241.027H484.299V236.936H486.867V241.027H491.096V243.596H486.867V247.688H484.299V243.596H480.08ZM498.107 248L501.477 242.678L498.078 237.248H501.35L503.254 240.812H503.43L505.334 237.248H508.439L505.051 242.561L508.459 248H505.305L503.293 244.445H503.117L501.115 248H498.107ZM469.074 388.166C467.551 388.166 466.408 387.492 465.852 386.33H465.676V388H462.824V373.137H465.676V378.967H465.852C466.398 377.795 467.6 377.072 469.074 377.072C471.799 377.072 473.439 379.152 473.439 382.609V382.629C473.439 386.066 471.76 388.166 469.074 388.166ZM468.098 385.803C469.611 385.803 470.539 384.611 470.539 382.629V382.609C470.539 380.646 469.602 379.436 468.098 379.436C466.604 379.436 465.646 380.646 465.646 382.619V382.639C465.646 384.611 466.594 385.803 468.098 385.803ZM480.695 383.596V381.027H484.914V376.936H487.482V381.027H491.711V383.596H487.482V387.688H484.914V383.596H480.695ZM498.723 388L502.092 382.678L498.693 377.248H501.965L503.869 380.812H504.045L505.949 377.248H509.055L505.666 382.561L509.074 388H505.92L503.908 384.445H503.732L501.73 388H498.723Z" fill="#BBFF00"/>
<path d="M624.162 268.225C620.803 268.225 618.898 266.184 618.898 262.609V262.59C618.898 259.055 620.793 257.014 624.162 257.014C627.014 257.014 628.703 258.566 628.957 260.969V260.998H626.301L626.291 260.979C626.105 259.934 625.393 259.25 624.172 259.25C622.639 259.25 621.799 260.441 621.799 262.59V262.609C621.799 264.787 622.648 265.988 624.172 265.988C625.344 265.988 626.037 265.432 626.291 264.357L626.311 264.318H628.947L628.938 264.377C628.645 266.721 626.965 268.225 624.162 268.225ZM635.959 268.225C632.648 268.225 630.656 266.125 630.656 262.629V262.609C630.656 259.143 632.678 257.014 635.959 257.014C639.24 257.014 641.262 259.133 641.262 262.609V262.629C641.262 266.135 639.27 268.225 635.959 268.225ZM635.959 265.988C637.473 265.988 638.342 264.748 638.342 262.629V262.609C638.342 260.51 637.463 259.25 635.959 259.25C634.445 259.25 633.576 260.51 633.576 262.609V262.629C633.576 264.748 634.436 265.988 635.959 265.988ZM647.424 268.166C644.738 268.166 643.059 266.066 643.059 262.629V262.609C643.059 259.152 644.699 257.072 647.424 257.072C648.898 257.072 650.1 257.795 650.637 258.967H650.812V253.137H653.664V268H650.812V266.33H650.637C650.08 267.492 648.938 268.166 647.424 268.166ZM648.391 265.803C649.904 265.803 650.842 264.611 650.842 262.639V262.619C650.842 260.646 649.895 259.436 648.391 259.436C646.887 259.436 645.959 260.646 645.959 262.609V262.629C645.959 264.611 646.887 265.803 648.391 265.803ZM661.34 268.225C658.068 268.225 656.086 266.086 656.086 262.639V262.629C656.086 259.211 658.088 257.014 661.223 257.014C664.357 257.014 666.311 259.162 666.311 262.414V263.303H658.908C658.938 265.07 659.885 266.096 661.398 266.096C662.648 266.096 663.342 265.432 663.537 265.021L663.566 264.963H666.223L666.203 265.061C665.871 266.408 664.484 268.225 661.34 268.225ZM661.271 259.152C660.031 259.152 659.113 259.992 658.938 261.516H663.576C663.4 259.953 662.512 259.152 661.271 259.152ZM623.264 308.166C620.578 308.166 618.898 306.066 618.898 302.629V302.609C618.898 299.152 620.539 297.072 623.264 297.072C624.738 297.072 625.939 297.795 626.477 298.967H626.652V293.137H629.504V308H626.652V306.33H626.477C625.92 307.492 624.777 308.166 623.264 308.166ZM624.23 305.803C625.744 305.803 626.682 304.611 626.682 302.639V302.619C626.682 300.646 625.734 299.436 624.23 299.436C622.727 299.436 621.799 300.646 621.799 302.609V302.629C621.799 304.611 622.727 305.803 624.23 305.803ZM635.383 308.166C633.332 308.166 631.877 306.896 631.877 304.943V304.924C631.877 302.99 633.371 301.857 636.047 301.701L638.645 301.545V300.656C638.645 299.729 638.01 299.201 636.838 299.201C635.812 299.201 635.158 299.562 634.934 300.197L634.914 300.236H632.277L632.287 300.148C632.512 298.264 634.289 297.014 636.994 297.014C639.846 297.014 641.457 298.361 641.457 300.656V308H638.645V306.574H638.469C637.922 307.57 636.789 308.166 635.383 308.166ZM634.66 304.768C634.66 305.588 635.354 306.086 636.34 306.086C637.658 306.086 638.645 305.217 638.645 304.084V303.293L636.477 303.43C635.256 303.508 634.66 303.967 634.66 304.748V304.768ZM648.713 308.039C646.096 308.039 645.041 307.189 645.041 305.1V299.396H643.381V297.248H645.041V294.68H647.922V297.248H650.139V299.396H647.922V304.445C647.922 305.412 648.332 305.842 649.299 305.842C649.67 305.842 649.865 305.822 650.139 305.793V307.912C649.787 307.98 649.26 308.039 648.713 308.039ZM655.441 308.166C653.391 308.166 651.936 306.896 651.936 304.943V304.924C651.936 302.99 653.43 301.857 656.105 301.701L658.703 301.545V300.656C658.703 299.729 658.068 299.201 656.896 299.201C655.871 299.201 655.217 299.562 654.992 300.197L654.973 300.236H652.336L652.346 300.148C652.57 298.264 654.348 297.014 657.053 297.014C659.904 297.014 661.516 298.361 661.516 300.656V308H658.703V306.574H658.527C657.98 307.57 656.848 308.166 655.441 308.166ZM654.719 304.768C654.719 305.588 655.412 306.086 656.398 306.086C657.717 306.086 658.703 305.217 658.703 304.084V303.293L656.535 303.43C655.314 303.508 654.719 303.967 654.719 304.748V304.768ZM623.703 348.225C620.783 348.225 619.123 346.916 618.918 345.07L618.908 345.031H621.711L621.73 345.07C621.955 345.734 622.609 346.213 623.732 346.213C624.826 346.213 625.568 345.744 625.568 345.031V345.012C625.568 344.436 625.139 344.074 624.045 343.83L622.248 343.449C620.197 343.01 619.182 342.004 619.182 340.393V340.383C619.182 338.361 620.979 337.014 623.664 337.014C626.486 337.014 628.049 338.42 628.166 340.148V340.188H625.52L625.51 340.139C625.354 339.562 624.719 339.025 623.654 339.025C622.668 339.025 621.965 339.484 621.965 340.207V340.217C621.965 340.793 622.365 341.125 623.479 341.369L625.266 341.75C627.414 342.209 628.42 343.107 628.42 344.699V344.709C628.42 346.838 626.457 348.225 623.703 348.225ZM635.158 348.039C632.541 348.039 631.486 347.189 631.486 345.1V339.396H629.826V337.248H631.486V334.68H634.367V337.248H636.584V339.396H634.367V344.445C634.367 345.412 634.777 345.842 635.744 345.842C636.115 345.842 636.311 345.822 636.584 345.793V347.912C636.232 347.98 635.705 348.039 635.158 348.039ZM641.887 348.166C639.836 348.166 638.381 346.896 638.381 344.943V344.924C638.381 342.99 639.875 341.857 642.551 341.701L645.148 341.545V340.656C645.148 339.729 644.514 339.201 643.342 339.201C642.316 339.201 641.662 339.562 641.438 340.197L641.418 340.236H638.781L638.791 340.148C639.016 338.264 640.793 337.014 643.498 337.014C646.35 337.014 647.961 338.361 647.961 340.656V348H645.148V346.574H644.973C644.426 347.57 643.293 348.166 641.887 348.166ZM641.164 344.768C641.164 345.588 641.857 346.086 642.844 346.086C644.162 346.086 645.148 345.217 645.148 344.084V343.293L642.98 343.43C641.76 343.508 641.164 343.967 641.164 344.748V344.768ZM655.49 348.225C652.131 348.225 650.227 346.184 650.227 342.609V342.59C650.227 339.055 652.121 337.014 655.49 337.014C658.342 337.014 660.031 338.566 660.285 340.969V340.998H657.629L657.619 340.979C657.434 339.934 656.721 339.25 655.5 339.25C653.967 339.25 653.127 340.441 653.127 342.59V342.609C653.127 344.787 653.977 345.988 655.5 345.988C656.672 345.988 657.365 345.432 657.619 344.357L657.639 344.318H660.275L660.266 344.377C659.973 346.721 658.293 348.225 655.49 348.225ZM662.609 348V333.137H665.461V341.496H665.637L669.23 337.248H672.463L668.332 341.809L672.746 348H669.377L666.242 343.566L665.461 344.396V348H662.609ZM619.523 388V373.137H622.375V378.908H622.551C623.039 377.746 624.104 377.014 625.637 377.014C628.029 377.014 629.318 378.479 629.318 381.047V388H626.467V381.691C626.467 380.178 625.842 379.377 624.494 379.377C623.176 379.377 622.375 380.324 622.375 381.779V388H619.523ZM636.809 388.225C633.537 388.225 631.555 386.086 631.555 382.639V382.629C631.555 379.211 633.557 377.014 636.691 377.014C639.826 377.014 641.779 379.162 641.779 382.414V383.303H634.377C634.406 385.07 635.354 386.096 636.867 386.096C638.117 386.096 638.811 385.432 639.006 385.021L639.035 384.963H641.691L641.672 385.061C641.34 386.408 639.953 388.225 636.809 388.225ZM636.74 379.152C635.5 379.152 634.582 379.992 634.406 381.516H639.045C638.869 379.953 637.98 379.152 636.74 379.152ZM647.043 388.166C644.992 388.166 643.537 386.896 643.537 384.943V384.924C643.537 382.99 645.031 381.857 647.707 381.701L650.305 381.545V380.656C650.305 379.729 649.67 379.201 648.498 379.201C647.473 379.201 646.818 379.562 646.594 380.197L646.574 380.236H643.938L643.947 380.148C644.172 378.264 645.949 377.014 648.654 377.014C651.506 377.014 653.117 378.361 653.117 380.656V388H650.305V386.574H650.129C649.582 387.57 648.449 388.166 647.043 388.166ZM646.32 384.768C646.32 385.588 647.014 386.086 648 386.086C649.318 386.086 650.305 385.217 650.305 384.084V383.293L648.137 383.43C646.916 383.508 646.32 383.967 646.32 384.748V384.768ZM655.91 391.564V377.248H658.762V378.908H658.938C659.494 377.756 660.637 377.072 662.16 377.072C664.846 377.072 666.525 379.182 666.525 382.609V382.629C666.525 386.086 664.885 388.166 662.16 388.166C660.686 388.166 659.484 387.453 658.938 386.281H658.762V391.564H655.91ZM661.184 385.803C662.688 385.803 663.625 384.602 663.625 382.629V382.609C663.625 380.637 662.697 379.436 661.184 379.436C659.68 379.436 658.732 380.637 658.732 382.609V382.629C658.732 384.602 659.689 385.803 661.184 385.803ZM620.881 455.598C620.002 455.598 619.27 454.895 619.27 454.016C619.27 453.127 620.002 452.424 620.881 452.424C621.76 452.424 622.482 453.127 622.482 454.016C622.482 454.895 621.76 455.598 620.881 455.598ZM619.445 468V457.248H622.297V468H619.445ZM625.168 468V457.248H628.02V458.908H628.195C628.684 457.746 629.748 457.014 631.281 457.014C633.674 457.014 634.963 458.479 634.963 461.047V468H632.111V461.691C632.111 460.178 631.486 459.377 630.139 459.377C628.82 459.377 628.02 460.324 628.02 461.779V468H625.168ZM647.658 468.225C644.348 468.225 642.355 466.125 642.355 462.629V462.609C642.355 459.143 644.377 457.014 647.658 457.014C650.939 457.014 652.961 459.133 652.961 462.609V462.629C652.961 466.135 650.969 468.225 647.658 468.225ZM647.658 465.988C649.172 465.988 650.041 464.748 650.041 462.629V462.609C650.041 460.51 649.162 459.25 647.658 459.25C646.145 459.25 645.275 460.51 645.275 462.609V462.629C645.275 464.748 646.135 465.988 647.658 465.988ZM655.285 468V457.248H658.137V458.908H658.312C658.801 457.746 659.865 457.014 661.398 457.014C663.791 457.014 665.08 458.479 665.08 461.047V468H662.229V461.691C662.229 460.178 661.604 459.377 660.256 459.377C658.938 459.377 658.137 460.324 658.137 461.779V468H655.285ZM672.57 468.225C669.299 468.225 667.316 466.086 667.316 462.639V462.629C667.316 459.211 669.318 457.014 672.453 457.014C675.588 457.014 677.541 459.162 677.541 462.414V463.303H670.139C670.168 465.07 671.115 466.096 672.629 466.096C673.879 466.096 674.572 465.432 674.768 465.021L674.797 464.963H677.453L677.434 465.061C677.102 466.408 675.715 468.225 672.57 468.225ZM672.502 459.152C671.262 459.152 670.344 459.992 670.168 461.516H674.807C674.631 459.953 673.742 459.152 672.502 459.152ZM689.768 468.225C686.408 468.225 684.504 466.184 684.504 462.609V462.59C684.504 459.055 686.398 457.014 689.768 457.014C692.619 457.014 694.309 458.566 694.562 460.969V460.998H691.906L691.896 460.979C691.711 459.934 690.998 459.25 689.777 459.25C688.244 459.25 687.404 460.441 687.404 462.59V462.609C687.404 464.787 688.254 465.988 689.777 465.988C690.949 465.988 691.643 465.432 691.896 464.357L691.916 464.318H694.553L694.543 464.377C694.25 466.721 692.57 468.225 689.768 468.225ZM701.564 468.225C698.254 468.225 696.262 466.125 696.262 462.629V462.609C696.262 459.143 698.283 457.014 701.564 457.014C704.846 457.014 706.867 459.133 706.867 462.609V462.629C706.867 466.135 704.875 468.225 701.564 468.225ZM701.564 465.988C703.078 465.988 703.947 464.748 703.947 462.629V462.609C703.947 460.51 703.068 459.25 701.564 459.25C700.051 459.25 699.182 460.51 699.182 462.609V462.629C699.182 464.748 700.041 465.988 701.564 465.988ZM709.191 468V457.248H712.043V458.908H712.219C712.707 457.746 713.771 457.014 715.305 457.014C717.697 457.014 718.986 458.479 718.986 461.047V468H716.135V461.691C716.135 460.178 715.51 459.377 714.162 459.377C712.844 459.377 712.043 460.324 712.043 461.779V468H709.191ZM726.213 468.039C723.596 468.039 722.541 467.189 722.541 465.1V459.396H720.881V457.248H722.541V454.68H725.422V457.248H727.639V459.396H725.422V464.445C725.422 465.412 725.832 465.842 726.799 465.842C727.17 465.842 727.365 465.822 727.639 465.793V467.912C727.287 467.98 726.76 468.039 726.213 468.039ZM731.467 455.598C730.588 455.598 729.855 454.895 729.855 454.016C729.855 453.127 730.588 452.424 731.467 452.424C732.346 452.424 733.068 453.127 733.068 454.016C733.068 454.895 732.346 455.598 731.467 455.598ZM730.031 468V457.248H732.883V468H730.031ZM740.5 471.779C737.521 471.779 735.793 470.529 735.559 468.703V468.654H738.381L738.391 468.693C738.547 469.318 739.289 469.748 740.559 469.748C742.082 469.748 742.971 469.035 742.971 467.785V465.783H742.795C742.199 466.916 741.066 467.531 739.572 467.531C736.867 467.531 735.197 465.441 735.197 462.385V462.365C735.197 459.201 736.867 457.072 739.621 457.072C741.096 457.072 742.248 457.795 742.824 459.006H742.961V457.248H745.812V467.668C745.812 470.188 743.752 471.779 740.5 471.779ZM740.539 465.344C742.082 465.344 743 464.143 743 462.375V462.355C743 460.588 742.072 459.387 740.539 459.387C739.006 459.387 738.117 460.588 738.117 462.355V462.375C738.117 464.143 738.996 465.344 740.539 465.344ZM752.219 468.225C749.807 468.225 748.566 466.76 748.566 464.201V457.248H751.418V463.547C751.418 465.07 751.994 465.861 753.342 465.861C754.748 465.861 755.51 464.914 755.51 463.459V457.248H758.361V468H755.51V466.34H755.334C754.846 467.512 753.752 468.225 752.219 468.225ZM765.998 468.225C762.688 468.225 760.695 466.125 760.695 462.629V462.609C760.695 459.143 762.717 457.014 765.998 457.014C769.279 457.014 771.301 459.133 771.301 462.609V462.629C771.301 466.135 769.309 468.225 765.998 468.225ZM765.998 465.988C767.512 465.988 768.381 464.748 768.381 462.629V462.609C768.381 460.51 767.502 459.25 765.998 459.25C764.484 459.25 763.615 460.51 763.615 462.609V462.629C763.615 464.748 764.475 465.988 765.998 465.988ZM777.18 468.225C774.768 468.225 773.527 466.76 773.527 464.201V457.248H776.379V463.547C776.379 465.07 776.955 465.861 778.303 465.861C779.709 465.861 780.471 464.914 780.471 463.459V457.248H783.322V468H780.471V466.34H780.295C779.807 467.512 778.713 468.225 777.18 468.225ZM790.461 468.225C787.541 468.225 785.881 466.916 785.676 465.07L785.666 465.031H788.469L788.488 465.07C788.713 465.734 789.367 466.213 790.49 466.213C791.584 466.213 792.326 465.744 792.326 465.031V465.012C792.326 464.436 791.896 464.074 790.803 463.83L789.006 463.449C786.955 463.01 785.939 462.004 785.939 460.393V460.383C785.939 458.361 787.736 457.014 790.422 457.014C793.244 457.014 794.807 458.42 794.924 460.148V460.188H792.277L792.268 460.139C792.111 459.562 791.477 459.025 790.412 459.025C789.426 459.025 788.723 459.484 788.723 460.207V460.217C788.723 460.793 789.123 461.125 790.236 461.369L792.023 461.75C794.172 462.209 795.178 463.107 795.178 464.699V464.709C795.178 466.838 793.215 468.225 790.461 468.225ZM802.668 468V457.248H805.52V458.928H805.695C806.154 457.717 807.268 457.014 808.674 457.014C810.139 457.014 811.223 457.756 811.662 458.996H811.838C812.326 457.805 813.576 457.014 815.08 457.014C817.219 457.014 818.557 458.4 818.557 460.617V468H815.705V461.33C815.705 460.031 815.119 459.377 813.928 459.377C812.775 459.377 812.033 460.227 812.033 461.389V468H809.182V461.203C809.182 460.051 808.527 459.377 807.414 459.377C806.301 459.377 805.52 460.285 805.52 461.516V468H802.668ZM826.047 468.225C822.775 468.225 820.793 466.086 820.793 462.639V462.629C820.793 459.211 822.795 457.014 825.93 457.014C829.064 457.014 831.018 459.162 831.018 462.414V463.303H823.615C823.645 465.07 824.592 466.096 826.105 466.096C827.355 466.096 828.049 465.432 828.244 465.021L828.273 464.963H830.93L830.91 465.061C830.578 466.408 829.191 468.225 826.047 468.225ZM825.979 459.152C824.738 459.152 823.82 459.992 823.645 461.516H828.283C828.107 459.953 827.219 459.152 825.979 459.152ZM833.352 468V457.248H836.203V458.928H836.379C836.838 457.717 837.951 457.014 839.357 457.014C840.822 457.014 841.906 457.756 842.346 458.996H842.521C843.01 457.805 844.26 457.014 845.764 457.014C847.902 457.014 849.24 458.4 849.24 460.617V468H846.389V461.33C846.389 460.031 845.803 459.377 844.611 459.377C843.459 459.377 842.717 460.227 842.717 461.389V468H839.865V461.203C839.865 460.051 839.211 459.377 838.098 459.377C836.984 459.377 836.203 460.285 836.203 461.516V468H833.352ZM856.779 468.225C853.469 468.225 851.477 466.125 851.477 462.629V462.609C851.477 459.143 853.498 457.014 856.779 457.014C860.061 457.014 862.082 459.133 862.082 462.609V462.629C862.082 466.135 860.09 468.225 856.779 468.225ZM856.779 465.988C858.293 465.988 859.162 464.748 859.162 462.629V462.609C859.162 460.51 858.283 459.25 856.779 459.25C855.266 459.25 854.396 460.51 854.396 462.609V462.629C854.396 464.748 855.256 465.988 856.779 465.988ZM864.406 468V457.248H867.258V458.918H867.434C867.775 457.756 868.752 457.072 870.148 457.072C870.529 457.072 870.93 457.131 871.213 457.209V459.699C870.783 459.602 870.344 459.533 869.904 459.533C868.283 459.533 867.258 460.461 867.258 461.984V468H864.406ZM874.592 471.789C874.26 471.789 873.898 471.779 873.566 471.76V469.611C873.762 469.631 874.045 469.641 874.309 469.641C875.324 469.641 875.91 469.25 876.115 468.41L876.213 468L872.434 457.248H875.568L877.824 465.393H878.02L880.275 457.248H883.283L879.621 467.99C878.664 470.832 877.248 471.789 874.592 471.789Z" fill="#C3A900"/>
<line x1="403" y1="159.5" x2="568" y2="159.5" stroke="#BBFF00" stroke-width="3"/>
<line x1="403" y1="466.5" x2="568" y2="466.5" stroke="#BBFF00" stroke-width="3"/>
<path d="M376.414 162.414C377.195 161.633 377.195 160.367 376.414 159.586L363.686 146.858C362.905 146.077 361.639 146.077 360.858 146.858C360.077 147.639 360.077 148.905 360.858 149.686L372.172 161L360.858 172.314C360.077 173.095 360.077 174.361 360.858 175.142C361.639 175.923 362.905 175.923 363.686 175.142L376.414 162.414ZM262 161L262 163L375 163L375 161L375 159L262 159L262 161Z" fill="#068099"/>
<path d="M443.013 383.725C443.965 383.165 444.284 381.94 443.725 380.987L434.608 365.467C434.048 364.514 432.823 364.196 431.87 364.755C430.918 365.315 430.599 366.54 431.159 367.493L439.263 381.289L425.467 389.392C424.514 389.952 424.196 391.177 424.755 392.13C425.314 393.082 426.54 393.401 427.492 392.841L443.013 383.725ZM164 346L162.8 347.6L163.333 348L164 348L164 346ZM303.5 346L304.003 344.064L303.756 344L303.5 344L303.5 346ZM134 323.5L132.8 325.1L162.8 347.6L164 346L165.2 344.4L135.2 321.9L134 323.5ZM164 346L164 348L303.5 348L303.5 346L303.5 344L164 344L164 346ZM303.5 346L302.997 347.936L441.497 383.936L442 382L442.503 380.064L304.003 344.064L303.5 346Z" fill="#068099"/>
<path d="M451.283 257.534C452.13 256.825 452.243 255.564 451.534 254.717L439.986 240.91C439.277 240.062 438.016 239.95 437.169 240.659C436.321 241.367 436.209 242.629 436.918 243.476L447.183 255.749L434.91 266.014C434.063 266.723 433.95 267.984 434.659 268.831C435.367 269.679 436.629 269.791 437.476 269.082L451.283 257.534ZM225.5 236L225.323 237.992L449.823 257.992L450 256L450.178 254.008L225.677 234.008L225.5 236Z" fill="#068099"/>
<path d="M206.561 408.939C205.975 408.354 205.025 408.354 204.439 408.939L194.893 418.485C194.308 419.071 194.308 420.021 194.893 420.607C195.479 421.192 196.429 421.192 197.015 420.607L205.5 412.121L213.985 420.607C214.571 421.192 215.521 421.192 216.107 420.607C216.692 420.021 216.692 419.071 216.107 418.485L206.561 408.939ZM205.5 476H207V410H205.5H204V476H205.5Z" fill="#FFF200"/>
<circle cx="202" cy="236" r="23.5" stroke="#FFF200" stroke-width="3"/>
<rect x="109.5" y="212.5" width="47" height="47" stroke="#FFF200" stroke-width="3"/>
</svg>
