<svg width="521" height="480" viewBox="0 0 521 480" fill="none" xmlns="http://www.w3.org/2000/svg">
<rect x="1" y="14" width="97" height="174" rx="19" fill="#FF639A" fill-opacity="0.2" stroke="#FF639A" stroke-width="2"/>
<path d="M29.2415 46.4545L30.4432 48.7429L31.6747 46.4545H33.5369L31.6406 49.7273L33.5881 53H31.7344L30.4432 50.7372L29.1733 53H27.2983L29.2415 49.7273L27.3665 46.4545H29.2415ZM30.6818 98.1278C30.0114 98.1278 29.4347 97.9858 28.9517 97.7017C28.4716 97.4148 28.1023 97.017 27.8438 96.5085C27.5881 96 27.4602 95.4148 27.4602 94.7528C27.4602 94.0824 27.5895 93.4943 27.848 92.9886C28.1094 92.4801 28.4801 92.0838 28.9602 91.7997C29.4403 91.5128 30.0114 91.3693 30.6733 91.3693C31.2443 91.3693 31.7443 91.473 32.1733 91.6804C32.6023 91.8878 32.9418 92.179 33.1918 92.554C33.4418 92.929 33.5795 93.3693 33.6051 93.875H31.892C31.8438 93.5483 31.7159 93.2855 31.5085 93.0866C31.304 92.8849 31.0355 92.7841 30.7031 92.7841C30.4219 92.7841 30.1761 92.8608 29.9659 93.0142C29.7585 93.1648 29.5966 93.3849 29.4801 93.6747C29.3636 93.9645 29.3054 94.3153 29.3054 94.7273C29.3054 95.1449 29.3622 95.5 29.4759 95.7926C29.5923 96.0852 29.7557 96.3082 29.9659 96.4616C30.1761 96.6151 30.4219 96.6918 30.7031 96.6918C30.9105 96.6918 31.0966 96.6491 31.2614 96.5639C31.429 96.4787 31.5668 96.3551 31.6747 96.1932C31.7855 96.0284 31.858 95.831 31.892 95.6009H33.6051C33.5767 96.1009 33.4403 96.5412 33.196 96.9219C32.9545 97.2997 32.6207 97.5952 32.1946 97.8082C31.7685 98.0213 31.2642 98.1278 30.6818 98.1278ZM36.6339 98.1236C36.2163 98.1236 35.8441 98.0511 35.5174 97.9062C35.1907 97.7585 34.9322 97.5412 34.7418 97.2543C34.5543 96.9645 34.4606 96.6037 34.4606 96.1719C34.4606 95.8082 34.5273 95.5028 34.6609 95.2557C34.7944 95.0085 34.9762 94.8097 35.2063 94.6591C35.4364 94.5085 35.6978 94.3949 35.9904 94.3182C36.2859 94.2415 36.5955 94.1875 36.9194 94.1562C37.3001 94.1165 37.6069 94.0795 37.8398 94.0455C38.0728 94.0085 38.2418 93.9545 38.3469 93.8835C38.4521 93.8125 38.5046 93.7074 38.5046 93.5682V93.5426C38.5046 93.2727 38.4194 93.0639 38.2489 92.9162C38.0813 92.7685 37.8427 92.6946 37.533 92.6946C37.2063 92.6946 36.9464 92.767 36.7532 92.9119C36.56 93.054 36.4322 93.233 36.3697 93.4489L34.6907 93.3125C34.7759 92.9148 34.9435 92.571 35.1935 92.2812C35.4435 91.9886 35.766 91.7642 36.1609 91.608C36.5586 91.4489 37.0188 91.3693 37.5415 91.3693C37.9052 91.3693 38.2532 91.4119 38.5856 91.4972C38.9208 91.5824 39.2177 91.7145 39.4762 91.8935C39.7376 92.0724 39.9435 92.3026 40.0941 92.5838C40.2447 92.8622 40.32 93.196 40.32 93.5852V98H38.5984V97.0923H38.5472C38.4421 97.2969 38.3015 97.4773 38.1254 97.6335C37.9492 97.7869 37.7376 97.9077 37.4904 97.9957C37.2433 98.081 36.9577 98.1236 36.6339 98.1236ZM37.1538 96.8707C37.4208 96.8707 37.6566 96.8182 37.8612 96.7131C38.0657 96.6051 38.2262 96.4602 38.3427 96.2784C38.4592 96.0966 38.5174 95.8906 38.5174 95.6605V94.9659C38.4606 95.0028 38.3825 95.0369 38.283 95.0682C38.1864 95.0966 38.0771 95.1236 37.9549 95.1491C37.8327 95.1719 37.7106 95.1932 37.5884 95.2131C37.4663 95.2301 37.3555 95.2457 37.256 95.2599C37.043 95.2912 36.8569 95.3409 36.6978 95.4091C36.5387 95.4773 36.4151 95.5696 36.3271 95.6861C36.239 95.7997 36.195 95.9418 36.195 96.1122C36.195 96.3594 36.2844 96.5483 36.4634 96.679C36.6452 96.8068 36.8754 96.8707 37.1538 96.8707ZM43.5437 89.2727V98H41.7283V89.2727H43.5437ZM46.8132 89.2727V98H44.9979V89.2727H46.8132ZM52.1655 100.455C51.9354 100.455 51.7195 100.436 51.5178 100.399C51.3189 100.365 51.1541 100.321 51.0234 100.267L51.4325 98.9119C51.6456 98.9773 51.8374 99.0128 52.0078 99.0185C52.1811 99.0241 52.3303 98.9844 52.4553 98.8991C52.5831 98.8139 52.6868 98.669 52.7663 98.4645L52.8729 98.1875L50.5249 91.4545H52.4339L53.7891 96.2614H53.8572L55.2251 91.4545H57.147L54.603 98.7074C54.4808 99.0597 54.3146 99.3665 54.1044 99.6278C53.897 99.892 53.6342 100.095 53.3161 100.237C52.9979 100.382 52.6143 100.455 52.1655 100.455Z" fill="#FF639A"/>
<path d="M28.7855 218.111C28.5043 218.111 28.2628 218.011 28.0611 217.812C27.8622 217.611 27.7628 217.369 27.7628 217.088C27.7628 216.81 27.8622 216.571 28.0611 216.372C28.2628 216.173 28.5043 216.074 28.7855 216.074C29.0582 216.074 29.2969 216.173 29.5014 216.372C29.706 216.571 29.8082 216.81 29.8082 217.088C29.8082 217.276 29.7599 217.447 29.6634 217.604C29.5696 217.757 29.446 217.881 29.2926 217.974C29.1392 218.065 28.9702 218.111 28.7855 218.111ZM39.033 212.328H37.1665C37.1325 212.087 37.0629 211.872 36.9577 211.685C36.8526 211.494 36.7177 211.332 36.5529 211.199C36.3881 211.065 36.1978 210.963 35.9819 210.892C35.7688 210.821 35.5373 210.786 35.2873 210.786C34.8356 210.786 34.4421 210.898 34.1069 211.122C33.7717 211.344 33.5117 211.668 33.3271 212.094C33.1424 212.517 33.0501 213.031 33.0501 213.636C33.0501 214.259 33.1424 214.781 33.3271 215.205C33.5146 215.628 33.7759 215.947 34.1112 216.163C34.4464 216.379 34.8342 216.487 35.2745 216.487C35.5217 216.487 35.7504 216.455 35.9606 216.389C36.1737 216.324 36.3626 216.229 36.5273 216.104C36.6921 215.976 36.8285 215.821 36.9364 215.639C37.0472 215.457 37.1239 215.25 37.1665 215.017L39.033 215.026C38.9847 215.426 38.864 215.812 38.6708 216.185C38.4805 216.554 38.2234 216.885 37.8995 217.178C37.5785 217.467 37.195 217.697 36.7489 217.868C36.3058 218.036 35.8043 218.119 35.2447 218.119C34.4663 218.119 33.7702 217.943 33.1566 217.591C32.5458 217.239 32.0629 216.729 31.7077 216.061C31.3555 215.393 31.1793 214.585 31.1793 213.636C31.1793 212.685 31.3583 211.875 31.7163 211.207C32.0742 210.54 32.56 210.031 33.1737 209.682C33.7873 209.33 34.4776 209.153 35.2447 209.153C35.7504 209.153 36.2191 209.224 36.6509 209.366C37.0856 209.509 37.4705 209.716 37.8058 209.989C38.141 210.259 38.4137 210.589 38.6239 210.982C38.837 211.374 38.9734 211.822 39.033 212.328Z" fill="#FF0000"/>
<rect x="221" y="13" width="97" height="174" rx="19" fill="#FF639A" fill-opacity="0.2" stroke="#FF639A" stroke-width="2"/>
<path d="M195.129 12.1918C194.396 12.1889 193.766 12.0085 193.237 11.6506C192.712 11.2926 192.307 10.7741 192.023 10.0952C191.741 9.41619 191.602 8.59943 191.605 7.64489C191.605 6.69318 191.746 5.8821 192.027 5.21165C192.311 4.54119 192.716 4.03125 193.241 3.68182C193.77 3.32955 194.399 3.15341 195.129 3.15341C195.859 3.15341 196.487 3.32955 197.013 3.68182C197.541 4.03409 197.947 4.54545 198.232 5.21591C198.516 5.88352 198.656 6.69318 198.653 7.64489C198.653 8.60227 198.511 9.42045 198.227 10.0994C197.946 10.7784 197.543 11.2969 197.017 11.6548C196.491 12.0128 195.862 12.1918 195.129 12.1918ZM195.129 10.6619C195.629 10.6619 196.028 10.4105 196.327 9.90767C196.625 9.40483 196.773 8.65057 196.77 7.64489C196.77 6.98295 196.702 6.43182 196.565 5.99148C196.432 5.55114 196.241 5.22017 195.994 4.99858C195.75 4.77699 195.462 4.66619 195.129 4.66619C194.632 4.66619 194.234 4.91477 193.936 5.41193C193.638 5.90909 193.487 6.65341 193.484 7.64489C193.484 8.31534 193.551 8.875 193.685 9.32386C193.821 9.76989 194.013 10.1051 194.26 10.3295C194.507 10.5511 194.797 10.6619 195.129 10.6619ZM191.759 87V78.2727H193.604V85.4787H197.345V87H191.759ZM199.351 84.1364L200.135 85.6449L200.915 84.1364H202.257L200.983 86.3438L202.266 88.5H200.941L200.135 87.0639L199.334 88.5H197.988L199.275 86.3438L198.017 84.1364H199.351Z" fill="#FF0000"/>
<rect x="7" y="273" width="97" height="174" rx="19" fill="#FF639A" fill-opacity="0.2" stroke="#FF639A" stroke-width="2"/>
<path d="M34.8452 314.455C34.6151 314.455 34.3991 314.436 34.1974 314.399C33.9986 314.365 33.8338 314.321 33.7031 314.267L34.1122 312.912C34.3253 312.977 34.517 313.013 34.6875 313.018C34.8608 313.024 35.0099 312.984 35.1349 312.899C35.2628 312.814 35.3665 312.669 35.446 312.464L35.5526 312.188L33.2045 305.455H35.1136L36.4688 310.261H36.5369L37.9048 305.455H39.8267L37.2827 312.707C37.1605 313.06 36.9943 313.366 36.7841 313.628C36.5767 313.892 36.3139 314.095 35.9957 314.237C35.6776 314.382 35.294 314.455 34.8452 314.455ZM36.6818 357.128C36.0114 357.128 35.4347 356.986 34.9517 356.702C34.4716 356.415 34.1023 356.017 33.8438 355.509C33.5881 355 33.4602 354.415 33.4602 353.753C33.4602 353.082 33.5895 352.494 33.848 351.989C34.1094 351.48 34.4801 351.084 34.9602 350.8C35.4403 350.513 36.0114 350.369 36.6733 350.369C37.2443 350.369 37.7443 350.473 38.1733 350.68C38.6023 350.888 38.9418 351.179 39.1918 351.554C39.4418 351.929 39.5795 352.369 39.6051 352.875H37.892C37.8438 352.548 37.7159 352.286 37.5085 352.087C37.304 351.885 37.0355 351.784 36.7031 351.784C36.4219 351.784 36.1761 351.861 35.9659 352.014C35.7585 352.165 35.5966 352.385 35.4801 352.675C35.3636 352.964 35.3054 353.315 35.3054 353.727C35.3054 354.145 35.3622 354.5 35.4759 354.793C35.5923 355.085 35.7557 355.308 35.9659 355.462C36.1761 355.615 36.4219 355.692 36.7031 355.692C36.9105 355.692 37.0966 355.649 37.2614 355.564C37.429 355.479 37.5668 355.355 37.6747 355.193C37.7855 355.028 37.858 354.831 37.892 354.601H39.6051C39.5767 355.101 39.4403 355.541 39.196 355.922C38.9545 356.3 38.6207 356.595 38.1946 356.808C37.7685 357.021 37.2642 357.128 36.6818 357.128ZM42.6339 357.124C42.2163 357.124 41.8441 357.051 41.5174 356.906C41.1907 356.759 40.9322 356.541 40.7418 356.254C40.5543 355.964 40.4606 355.604 40.4606 355.172C40.4606 354.808 40.5273 354.503 40.6609 354.256C40.7944 354.009 40.9762 353.81 41.2063 353.659C41.4364 353.509 41.6978 353.395 41.9904 353.318C42.2859 353.241 42.5955 353.188 42.9194 353.156C43.3001 353.116 43.6069 353.08 43.8398 353.045C44.0728 353.009 44.2418 352.955 44.3469 352.884C44.4521 352.812 44.5046 352.707 44.5046 352.568V352.543C44.5046 352.273 44.4194 352.064 44.2489 351.916C44.0813 351.768 43.8427 351.695 43.533 351.695C43.2063 351.695 42.9464 351.767 42.7532 351.912C42.56 352.054 42.4322 352.233 42.3697 352.449L40.6907 352.312C40.7759 351.915 40.9435 351.571 41.1935 351.281C41.4435 350.989 41.766 350.764 42.1609 350.608C42.5586 350.449 43.0188 350.369 43.5415 350.369C43.9052 350.369 44.2532 350.412 44.5856 350.497C44.9208 350.582 45.2177 350.714 45.4762 350.893C45.7376 351.072 45.9435 351.303 46.0941 351.584C46.2447 351.862 46.32 352.196 46.32 352.585V357H44.5984V356.092H44.5472C44.4421 356.297 44.3015 356.477 44.1254 356.634C43.9492 356.787 43.7376 356.908 43.4904 356.996C43.2433 357.081 42.9577 357.124 42.6339 357.124ZM43.1538 355.871C43.4208 355.871 43.6566 355.818 43.8612 355.713C44.0657 355.605 44.2262 355.46 44.3427 355.278C44.4592 355.097 44.5174 354.891 44.5174 354.661V353.966C44.4606 354.003 44.3825 354.037 44.283 354.068C44.1864 354.097 44.0771 354.124 43.9549 354.149C43.8327 354.172 43.7106 354.193 43.5884 354.213C43.4663 354.23 43.3555 354.246 43.256 354.26C43.043 354.291 42.8569 354.341 42.6978 354.409C42.5387 354.477 42.4151 354.57 42.3271 354.686C42.239 354.8 42.195 354.942 42.195 355.112C42.195 355.359 42.2844 355.548 42.4634 355.679C42.6452 355.807 42.8754 355.871 43.1538 355.871ZM49.5437 348.273V357H47.7283V348.273H49.5437ZM52.8132 348.273V357H50.9979V348.273H52.8132ZM58.5618 350.455L59.7635 352.743L60.995 350.455H62.8572L60.9609 353.727L62.9084 357H61.0547L59.7635 354.737L58.4936 357H56.6186L58.5618 353.727L56.6868 350.455H58.5618Z" fill="#FF639A"/>
<path d="M34.7855 477.111C34.5043 477.111 34.2628 477.011 34.0611 476.812C33.8622 476.611 33.7628 476.369 33.7628 476.088C33.7628 475.81 33.8622 475.571 34.0611 475.372C34.2628 475.173 34.5043 475.074 34.7855 475.074C35.0582 475.074 35.2969 475.173 35.5014 475.372C35.706 475.571 35.8082 475.81 35.8082 476.088C35.8082 476.276 35.7599 476.447 35.6634 476.604C35.5696 476.757 35.446 476.881 35.2926 476.974C35.1392 477.065 34.9702 477.111 34.7855 477.111ZM45.033 471.328H43.1665C43.1325 471.087 43.0629 470.872 42.9577 470.685C42.8526 470.494 42.7177 470.332 42.5529 470.199C42.3881 470.065 42.1978 469.963 41.9819 469.892C41.7688 469.821 41.5373 469.786 41.2873 469.786C40.8356 469.786 40.4421 469.898 40.1069 470.122C39.7717 470.344 39.5117 470.668 39.3271 471.094C39.1424 471.517 39.0501 472.031 39.0501 472.636C39.0501 473.259 39.1424 473.781 39.3271 474.205C39.5146 474.628 39.7759 474.947 40.1112 475.163C40.4464 475.379 40.8342 475.487 41.2745 475.487C41.5217 475.487 41.7504 475.455 41.9606 475.389C42.1737 475.324 42.3626 475.229 42.5273 475.104C42.6921 474.976 42.8285 474.821 42.9364 474.639C43.0472 474.457 43.1239 474.25 43.1665 474.017L45.033 474.026C44.9847 474.426 44.864 474.812 44.6708 475.185C44.4805 475.554 44.2234 475.885 43.8995 476.178C43.5785 476.467 43.195 476.697 42.7489 476.868C42.3058 477.036 41.8043 477.119 41.2447 477.119C40.4663 477.119 39.7702 476.943 39.1566 476.591C38.5458 476.239 38.0629 475.729 37.7077 475.061C37.3555 474.393 37.1793 473.585 37.1793 472.636C37.1793 471.685 37.3583 470.875 37.7163 470.207C38.0742 469.54 38.56 469.031 39.1737 468.682C39.7873 468.33 40.4776 468.153 41.2447 468.153C41.7504 468.153 42.2191 468.224 42.6509 468.366C43.0856 468.509 43.4705 468.716 43.8058 468.989C44.141 469.259 44.4137 469.589 44.6239 469.982C44.837 470.374 44.9734 470.822 45.033 471.328Z" fill="#FF0000"/>
<path d="M166.707 85.7071C167.098 85.3166 167.098 84.6834 166.707 84.2929L160.343 77.9289C159.953 77.5384 159.319 77.5384 158.929 77.9289C158.538 78.3195 158.538 78.9526 158.929 79.3431L164.586 85L158.929 90.6569C158.538 91.0474 158.538 91.6805 158.929 92.0711C159.319 92.4616 159.953 92.4616 160.343 92.0711L166.707 85.7071ZM105 85V86H166V85V84H105V85Z" fill="#FF9900"/>
<path d="M350.707 472.707C351.098 472.317 351.098 471.683 350.707 471.293L344.343 464.929C343.953 464.538 343.319 464.538 342.929 464.929C342.538 465.319 342.538 465.953 342.929 466.343L348.586 472L342.929 477.657C342.538 478.047 342.538 478.681 342.929 479.071C343.319 479.462 343.953 479.462 344.343 479.071L350.707 472.707ZM289 472V473H350V472V471H289V472Z" fill="#FF9900"/>
<path d="M333.334 151.328H331.467C331.433 151.087 331.364 150.872 331.259 150.685C331.153 150.494 331.018 150.332 330.854 150.199C330.689 150.065 330.499 149.963 330.283 149.892C330.07 149.821 329.838 149.786 329.588 149.786C329.136 149.786 328.743 149.898 328.408 150.122C328.072 150.344 327.813 150.668 327.628 151.094C327.443 151.517 327.351 152.031 327.351 152.636C327.351 153.259 327.443 153.781 327.628 154.205C327.815 154.628 328.077 154.947 328.412 155.163C328.747 155.379 329.135 155.487 329.575 155.487C329.822 155.487 330.051 155.455 330.261 155.389C330.474 155.324 330.663 155.229 330.828 155.104C330.993 154.976 331.129 154.821 331.237 154.639C331.348 154.457 331.425 154.25 331.467 154.017L333.334 154.026C333.286 154.426 333.165 154.812 332.972 155.185C332.781 155.554 332.524 155.885 332.2 156.178C331.879 156.467 331.496 156.697 331.05 156.868C330.607 157.036 330.105 157.119 329.545 157.119C328.767 157.119 328.071 156.943 327.457 156.591C326.847 156.239 326.364 155.729 326.009 155.061C325.656 154.393 325.48 153.585 325.48 152.636C325.48 151.685 325.659 150.875 326.017 150.207C326.375 149.54 326.861 149.031 327.474 148.682C328.088 148.33 328.778 148.153 329.545 148.153C330.051 148.153 330.52 148.224 330.952 148.366C331.386 148.509 331.771 148.716 332.107 148.989C332.442 149.259 332.714 149.589 332.925 149.982C333.138 150.374 333.274 150.822 333.334 151.328ZM336.489 157.124C336.072 157.124 335.7 157.051 335.373 156.906C335.046 156.759 334.788 156.541 334.597 156.254C334.41 155.964 334.316 155.604 334.316 155.172C334.316 154.808 334.383 154.503 334.516 154.256C334.65 154.009 334.832 153.81 335.062 153.659C335.292 153.509 335.553 153.395 335.846 153.318C336.141 153.241 336.451 153.188 336.775 153.156C337.156 153.116 337.462 153.08 337.695 153.045C337.928 153.009 338.097 152.955 338.202 152.884C338.308 152.812 338.36 152.707 338.36 152.568V152.543C338.36 152.273 338.275 152.064 338.104 151.916C337.937 151.768 337.698 151.695 337.388 151.695C337.062 151.695 336.802 151.767 336.609 151.912C336.415 152.054 336.288 152.233 336.225 152.449L334.546 152.312C334.631 151.915 334.799 151.571 335.049 151.281C335.299 150.989 335.621 150.764 336.016 150.608C336.414 150.449 336.874 150.369 337.397 150.369C337.761 150.369 338.109 150.412 338.441 150.497C338.776 150.582 339.073 150.714 339.332 150.893C339.593 151.072 339.799 151.303 339.95 151.584C340.1 151.862 340.175 152.196 340.175 152.585V157H338.454V156.092H338.403C338.298 156.297 338.157 156.477 337.981 156.634C337.805 156.787 337.593 156.908 337.346 156.996C337.099 157.081 336.813 157.124 336.489 157.124ZM337.009 155.871C337.276 155.871 337.512 155.818 337.717 155.713C337.921 155.605 338.082 155.46 338.198 155.278C338.315 155.097 338.373 154.891 338.373 154.661V153.966C338.316 154.003 338.238 154.037 338.138 154.068C338.042 154.097 337.933 154.124 337.81 154.149C337.688 154.172 337.566 154.193 337.444 154.213C337.322 154.23 337.211 154.246 337.112 154.26C336.898 154.291 336.712 154.341 336.553 154.409C336.394 154.477 336.271 154.57 336.183 154.686C336.094 154.8 336.05 154.942 336.05 155.112C336.05 155.359 336.14 155.548 336.319 155.679C336.501 155.807 336.731 155.871 337.009 155.871ZM343.399 148.273V157H341.584V148.273H343.399ZM346.669 148.273V157H344.853V148.273H346.669ZM356.346 152.321L354.684 152.423C354.656 152.281 354.595 152.153 354.501 152.04C354.407 151.923 354.284 151.831 354.13 151.763C353.98 151.692 353.799 151.656 353.589 151.656C353.308 151.656 353.071 151.716 352.877 151.835C352.684 151.952 352.588 152.108 352.588 152.304C352.588 152.46 352.65 152.592 352.775 152.7C352.9 152.808 353.115 152.895 353.419 152.96L354.603 153.199C355.24 153.33 355.714 153.54 356.027 153.83C356.339 154.119 356.495 154.5 356.495 154.972C356.495 155.401 356.369 155.777 356.116 156.101C355.866 156.425 355.522 156.678 355.085 156.859C354.65 157.038 354.149 157.128 353.581 157.128C352.714 157.128 352.024 156.947 351.51 156.587C350.998 156.223 350.699 155.729 350.61 155.104L352.396 155.01C352.45 155.274 352.581 155.476 352.788 155.615C352.995 155.751 353.261 155.82 353.585 155.82C353.903 155.82 354.159 155.759 354.352 155.636C354.548 155.511 354.647 155.351 354.65 155.155C354.647 154.99 354.578 154.855 354.441 154.75C354.305 154.642 354.095 154.56 353.811 154.503L352.677 154.277C352.038 154.149 351.562 153.928 351.25 153.612C350.94 153.297 350.785 152.895 350.785 152.406C350.785 151.986 350.899 151.624 351.126 151.32C351.356 151.016 351.679 150.781 352.093 150.616C352.511 150.452 353 150.369 353.559 150.369C354.386 150.369 355.037 150.544 355.511 150.893C355.988 151.243 356.267 151.719 356.346 152.321ZM358.759 159.455C358.529 159.455 358.313 159.436 358.112 159.399C357.913 159.365 357.748 159.321 357.617 159.267L358.026 157.912C358.239 157.977 358.431 158.013 358.602 158.018C358.775 158.024 358.924 157.984 359.049 157.899C359.177 157.814 359.281 157.669 359.36 157.464L359.467 157.188L357.119 150.455H359.028L360.383 155.261H360.451L361.819 150.455H363.741L361.197 157.707C361.075 158.06 360.908 158.366 360.698 158.628C360.491 158.892 360.228 159.095 359.91 159.237C359.592 159.382 359.208 159.455 358.759 159.455ZM364.67 157V150.455H366.4V151.609H366.477C366.613 151.226 366.84 150.923 367.158 150.702C367.477 150.48 367.857 150.369 368.3 150.369C368.749 150.369 369.131 150.482 369.447 150.706C369.762 150.928 369.972 151.229 370.077 151.609H370.146C370.279 151.234 370.521 150.935 370.87 150.71C371.222 150.483 371.638 150.369 372.119 150.369C372.729 150.369 373.225 150.564 373.606 150.953C373.989 151.339 374.181 151.888 374.181 152.598V157H372.37V152.956C372.37 152.592 372.273 152.32 372.08 152.138C371.887 151.956 371.646 151.865 371.356 151.865C371.026 151.865 370.769 151.97 370.585 152.18C370.4 152.388 370.308 152.662 370.308 153.003V157H368.548V152.918C368.548 152.597 368.455 152.341 368.271 152.151C368.089 151.96 367.849 151.865 367.55 151.865C367.349 151.865 367.167 151.916 367.005 152.018C366.846 152.118 366.719 152.259 366.626 152.44C366.532 152.619 366.485 152.83 366.485 153.071V157H364.67ZM376.161 158.896V148.111H379.523V149.466H377.916V157.537H379.523V158.896H376.161ZM381.646 159.455C381.416 159.455 381.2 159.436 380.998 159.399C380.799 159.365 380.635 159.321 380.504 159.267L380.913 157.912C381.126 157.977 381.318 158.013 381.488 158.018C381.662 158.024 381.811 157.984 381.936 157.899C382.064 157.814 382.167 157.669 382.247 157.464L382.353 157.188L380.005 150.455H381.914L383.27 155.261H383.338L384.706 150.455H386.627L384.083 157.707C383.961 158.06 383.795 158.366 383.585 158.628C383.377 158.892 383.115 159.095 382.797 159.237C382.478 159.382 382.095 159.455 381.646 159.455ZM390.471 148.111V158.896H387.109V157.537H388.716V149.466H387.109V148.111H390.471Z" fill="#FF639A"/>
<path d="M255.786 217.111C255.504 217.111 255.263 217.011 255.061 216.812C254.862 216.611 254.763 216.369 254.763 216.088C254.763 215.81 254.862 215.571 255.061 215.372C255.263 215.173 255.504 215.074 255.786 215.074C256.058 215.074 256.297 215.173 256.501 215.372C256.706 215.571 256.808 215.81 256.808 216.088C256.808 216.276 256.76 216.447 256.663 216.604C256.57 216.757 256.446 216.881 256.293 216.974C256.139 217.065 255.97 217.111 255.786 217.111ZM266.353 212.636C266.353 213.588 266.172 214.398 265.811 215.065C265.453 215.733 264.965 216.243 264.346 216.595C263.729 216.945 263.036 217.119 262.266 217.119C261.49 217.119 260.794 216.943 260.178 216.591C259.561 216.239 259.074 215.729 258.716 215.061C258.358 214.393 258.179 213.585 258.179 212.636C258.179 211.685 258.358 210.875 258.716 210.207C259.074 209.54 259.561 209.031 260.178 208.682C260.794 208.33 261.49 208.153 262.266 208.153C263.036 208.153 263.729 208.33 264.346 208.682C264.965 209.031 265.453 209.54 265.811 210.207C266.172 210.875 266.353 211.685 266.353 212.636ZM264.482 212.636C264.482 212.02 264.39 211.5 264.205 211.077C264.023 210.653 263.766 210.332 263.434 210.114C263.101 209.895 262.712 209.786 262.266 209.786C261.82 209.786 261.431 209.895 261.098 210.114C260.766 210.332 260.507 210.653 260.323 211.077C260.141 211.5 260.05 212.02 260.05 212.636C260.05 213.253 260.141 213.773 260.323 214.196C260.507 214.619 260.766 214.94 261.098 215.159C261.431 215.378 261.82 215.487 262.266 215.487C262.712 215.487 263.101 215.378 263.434 215.159C263.766 214.94 264.023 214.619 264.205 214.196C264.39 213.773 264.482 213.253 264.482 212.636Z" fill="#FF0000"/>
<rect x="221" y="273" width="97" height="174" rx="19" fill="#FF639A" fill-opacity="0.2" stroke="#FF639A" stroke-width="2"/>
<path d="M195.129 272.192C194.396 272.189 193.766 272.009 193.237 271.651C192.712 271.293 192.307 270.774 192.023 270.095C191.741 269.416 191.602 268.599 191.605 267.645C191.605 266.693 191.746 265.882 192.027 265.212C192.311 264.541 192.716 264.031 193.241 263.682C193.77 263.33 194.399 263.153 195.129 263.153C195.859 263.153 196.487 263.33 197.013 263.682C197.541 264.034 197.947 264.545 198.232 265.216C198.516 265.884 198.656 266.693 198.653 267.645C198.653 268.602 198.511 269.42 198.227 270.099C197.946 270.778 197.543 271.297 197.017 271.655C196.491 272.013 195.862 272.192 195.129 272.192ZM195.129 270.662C195.629 270.662 196.028 270.411 196.327 269.908C196.625 269.405 196.773 268.651 196.77 267.645C196.77 266.983 196.702 266.432 196.565 265.991C196.432 265.551 196.241 265.22 195.994 264.999C195.75 264.777 195.462 264.666 195.129 264.666C194.632 264.666 194.234 264.915 193.936 265.412C193.638 265.909 193.487 266.653 193.484 267.645C193.484 268.315 193.551 268.875 193.685 269.324C193.821 269.77 194.013 270.105 194.26 270.33C194.507 270.551 194.797 270.662 195.129 270.662ZM191.759 347V338.273H193.604V345.479H197.345V347H191.759ZM199.351 344.136L200.135 345.645L200.915 344.136H202.257L200.983 346.344L202.266 348.5H200.941L200.135 347.064L199.334 348.5H197.988L199.275 346.344L198.017 344.136H199.351Z" fill="#FF0000"/>
<path d="M333.334 411.328H331.467C331.433 411.087 331.364 410.872 331.259 410.685C331.153 410.494 331.018 410.332 330.854 410.199C330.689 410.065 330.499 409.963 330.283 409.892C330.07 409.821 329.838 409.786 329.588 409.786C329.136 409.786 328.743 409.898 328.408 410.122C328.072 410.344 327.813 410.668 327.628 411.094C327.443 411.517 327.351 412.031 327.351 412.636C327.351 413.259 327.443 413.781 327.628 414.205C327.815 414.628 328.077 414.947 328.412 415.163C328.747 415.379 329.135 415.487 329.575 415.487C329.822 415.487 330.051 415.455 330.261 415.389C330.474 415.324 330.663 415.229 330.828 415.104C330.993 414.976 331.129 414.821 331.237 414.639C331.348 414.457 331.425 414.25 331.467 414.017L333.334 414.026C333.286 414.426 333.165 414.812 332.972 415.185C332.781 415.554 332.524 415.885 332.2 416.178C331.879 416.467 331.496 416.697 331.05 416.868C330.607 417.036 330.105 417.119 329.545 417.119C328.767 417.119 328.071 416.943 327.457 416.591C326.847 416.239 326.364 415.729 326.009 415.061C325.656 414.393 325.48 413.585 325.48 412.636C325.48 411.685 325.659 410.875 326.017 410.207C326.375 409.54 326.861 409.031 327.474 408.682C328.088 408.33 328.778 408.153 329.545 408.153C330.051 408.153 330.52 408.224 330.952 408.366C331.386 408.509 331.771 408.716 332.107 408.989C332.442 409.259 332.714 409.589 332.925 409.982C333.138 410.374 333.274 410.822 333.334 411.328ZM336.489 417.124C336.072 417.124 335.7 417.051 335.373 416.906C335.046 416.759 334.788 416.541 334.597 416.254C334.41 415.964 334.316 415.604 334.316 415.172C334.316 414.808 334.383 414.503 334.516 414.256C334.65 414.009 334.832 413.81 335.062 413.659C335.292 413.509 335.553 413.395 335.846 413.318C336.141 413.241 336.451 413.188 336.775 413.156C337.156 413.116 337.462 413.08 337.695 413.045C337.928 413.009 338.097 412.955 338.202 412.884C338.308 412.812 338.36 412.707 338.36 412.568V412.543C338.36 412.273 338.275 412.064 338.104 411.916C337.937 411.768 337.698 411.695 337.388 411.695C337.062 411.695 336.802 411.767 336.609 411.912C336.415 412.054 336.288 412.233 336.225 412.449L334.546 412.312C334.631 411.915 334.799 411.571 335.049 411.281C335.299 410.989 335.621 410.764 336.016 410.608C336.414 410.449 336.874 410.369 337.397 410.369C337.761 410.369 338.109 410.412 338.441 410.497C338.776 410.582 339.073 410.714 339.332 410.893C339.593 411.072 339.799 411.303 339.95 411.584C340.1 411.862 340.175 412.196 340.175 412.585V417H338.454V416.092H338.403C338.298 416.297 338.157 416.477 337.981 416.634C337.805 416.787 337.593 416.908 337.346 416.996C337.099 417.081 336.813 417.124 336.489 417.124ZM337.009 415.871C337.276 415.871 337.512 415.818 337.717 415.713C337.921 415.605 338.082 415.46 338.198 415.278C338.315 415.097 338.373 414.891 338.373 414.661V413.966C338.316 414.003 338.238 414.037 338.138 414.068C338.042 414.097 337.933 414.124 337.81 414.149C337.688 414.172 337.566 414.193 337.444 414.213C337.322 414.23 337.211 414.246 337.112 414.26C336.898 414.291 336.712 414.341 336.553 414.409C336.394 414.477 336.271 414.57 336.183 414.686C336.094 414.8 336.05 414.942 336.05 415.112C336.05 415.359 336.14 415.548 336.319 415.679C336.501 415.807 336.731 415.871 337.009 415.871ZM343.399 408.273V417H341.584V408.273H343.399ZM346.669 408.273V417H344.853V408.273H346.669ZM356.346 412.321L354.684 412.423C354.656 412.281 354.595 412.153 354.501 412.04C354.407 411.923 354.284 411.831 354.13 411.763C353.98 411.692 353.799 411.656 353.589 411.656C353.308 411.656 353.071 411.716 352.877 411.835C352.684 411.952 352.588 412.108 352.588 412.304C352.588 412.46 352.65 412.592 352.775 412.7C352.9 412.808 353.115 412.895 353.419 412.96L354.603 413.199C355.24 413.33 355.714 413.54 356.027 413.83C356.339 414.119 356.495 414.5 356.495 414.972C356.495 415.401 356.369 415.777 356.116 416.101C355.866 416.425 355.522 416.678 355.085 416.859C354.65 417.038 354.149 417.128 353.581 417.128C352.714 417.128 352.024 416.947 351.51 416.587C350.998 416.223 350.699 415.729 350.61 415.104L352.396 415.01C352.45 415.274 352.581 415.476 352.788 415.615C352.995 415.751 353.261 415.82 353.585 415.82C353.903 415.82 354.159 415.759 354.352 415.636C354.548 415.511 354.647 415.351 354.65 415.155C354.647 414.99 354.578 414.855 354.441 414.75C354.305 414.642 354.095 414.56 353.811 414.503L352.677 414.277C352.038 414.149 351.562 413.928 351.25 413.612C350.94 413.297 350.785 412.895 350.785 412.406C350.785 411.986 350.899 411.624 351.126 411.32C351.356 411.016 351.679 410.781 352.093 410.616C352.511 410.452 353 410.369 353.559 410.369C354.386 410.369 355.037 410.544 355.511 410.893C355.988 411.243 356.267 411.719 356.346 412.321ZM358.759 419.455C358.529 419.455 358.313 419.436 358.112 419.399C357.913 419.365 357.748 419.321 357.617 419.267L358.026 417.912C358.239 417.977 358.431 418.013 358.602 418.018C358.775 418.024 358.924 417.984 359.049 417.899C359.177 417.814 359.281 417.669 359.36 417.464L359.467 417.188L357.119 410.455H359.028L360.383 415.261H360.451L361.819 410.455H363.741L361.197 417.707C361.075 418.06 360.908 418.366 360.698 418.628C360.491 418.892 360.228 419.095 359.91 419.237C359.592 419.382 359.208 419.455 358.759 419.455ZM364.67 417V410.455H366.4V411.609H366.477C366.613 411.226 366.84 410.923 367.158 410.702C367.477 410.48 367.857 410.369 368.3 410.369C368.749 410.369 369.131 410.482 369.447 410.706C369.762 410.928 369.972 411.229 370.077 411.609H370.146C370.279 411.234 370.521 410.935 370.87 410.71C371.222 410.483 371.638 410.369 372.119 410.369C372.729 410.369 373.225 410.564 373.606 410.953C373.989 411.339 374.181 411.888 374.181 412.598V417H372.37V412.956C372.37 412.592 372.273 412.32 372.08 412.138C371.887 411.956 371.646 411.865 371.356 411.865C371.026 411.865 370.769 411.97 370.585 412.18C370.4 412.388 370.308 412.662 370.308 413.003V417H368.548V412.918C368.548 412.597 368.455 412.341 368.271 412.151C368.089 411.96 367.849 411.865 367.55 411.865C367.349 411.865 367.167 411.916 367.005 412.018C366.846 412.118 366.719 412.259 366.626 412.44C366.532 412.619 366.485 412.83 366.485 413.071V417H364.67ZM376.161 418.896V408.111H379.523V409.466H377.916V417.537H379.523V418.896H376.161ZM381.646 419.455C381.416 419.455 381.2 419.436 380.998 419.399C380.799 419.365 380.635 419.321 380.504 419.267L380.913 417.912C381.126 417.977 381.318 418.013 381.488 418.018C381.662 418.024 381.811 417.984 381.936 417.899C382.064 417.814 382.167 417.669 382.247 417.464L382.353 417.188L380.005 410.455H381.914L383.27 415.261H383.338L384.706 410.455H386.627L384.083 417.707C383.961 418.06 383.795 418.366 383.585 418.628C383.377 418.892 383.115 419.095 382.797 419.237C382.478 419.382 382.095 419.455 381.646 419.455ZM390.471 408.111V418.896H387.109V417.537H388.716V409.466H387.109V408.111H390.471Z" fill="#FF639A"/>
<path d="M255.786 477.111C255.504 477.111 255.263 477.011 255.061 476.812C254.862 476.611 254.763 476.369 254.763 476.088C254.763 475.81 254.862 475.571 255.061 475.372C255.263 475.173 255.504 475.074 255.786 475.074C256.058 475.074 256.297 475.173 256.501 475.372C256.706 475.571 256.808 475.81 256.808 476.088C256.808 476.276 256.76 476.447 256.663 476.604C256.57 476.757 256.446 476.881 256.293 476.974C256.139 477.065 255.97 477.111 255.786 477.111ZM266.353 472.636C266.353 473.588 266.172 474.398 265.811 475.065C265.453 475.733 264.965 476.243 264.346 476.595C263.729 476.945 263.036 477.119 262.266 477.119C261.49 477.119 260.794 476.943 260.178 476.591C259.561 476.239 259.074 475.729 258.716 475.061C258.358 474.393 258.179 473.585 258.179 472.636C258.179 471.685 258.358 470.875 258.716 470.207C259.074 469.54 259.561 469.031 260.178 468.682C260.794 468.33 261.49 468.153 262.266 468.153C263.036 468.153 263.729 468.33 264.346 468.682C264.965 469.031 265.453 469.54 265.811 470.207C266.172 470.875 266.353 471.685 266.353 472.636ZM264.482 472.636C264.482 472.02 264.39 471.5 264.205 471.077C264.023 470.653 263.766 470.332 263.434 470.114C263.101 469.895 262.712 469.786 262.266 469.786C261.82 469.786 261.431 469.895 261.098 470.114C260.766 470.332 260.507 470.653 260.323 471.077C260.141 471.5 260.05 472.02 260.05 472.636C260.05 473.253 260.141 473.773 260.323 474.196C260.507 474.619 260.766 474.94 261.098 475.159C261.431 475.378 261.82 475.487 262.266 475.487C262.712 475.487 263.101 475.378 263.434 475.159C263.766 474.94 264.023 474.619 264.205 474.196C264.39 473.773 264.482 473.253 264.482 472.636Z" fill="#FF0000"/>
<path d="M375.682 472.128C375.02 472.128 374.447 471.987 373.964 471.706C373.484 471.422 373.114 471.027 372.852 470.521C372.591 470.013 372.46 469.423 372.46 468.753C372.46 468.077 372.591 467.486 372.852 466.98C373.114 466.472 373.484 466.077 373.964 465.795C374.447 465.511 375.02 465.369 375.682 465.369C376.344 465.369 376.915 465.511 377.395 465.795C377.878 466.077 378.25 466.472 378.511 466.98C378.773 467.486 378.903 468.077 378.903 468.753C378.903 469.423 378.773 470.013 378.511 470.521C378.25 471.027 377.878 471.422 377.395 471.706C376.915 471.987 376.344 472.128 375.682 472.128ZM375.69 470.722C375.991 470.722 376.243 470.636 376.445 470.466C376.646 470.293 376.798 470.057 376.901 469.759C377.006 469.46 377.058 469.121 377.058 468.74C377.058 468.359 377.006 468.02 376.901 467.722C376.798 467.423 376.646 467.187 376.445 467.014C376.243 466.841 375.991 466.754 375.69 466.754C375.386 466.754 375.131 466.841 374.923 467.014C374.719 467.187 374.564 467.423 374.459 467.722C374.357 468.02 374.305 468.359 374.305 468.74C374.305 469.121 374.357 469.46 374.459 469.759C374.564 470.057 374.719 470.293 374.923 470.466C375.131 470.636 375.386 470.722 375.69 470.722ZM380.118 472V463.273H381.933V466.554H381.989C382.068 466.378 382.183 466.199 382.334 466.017C382.487 465.832 382.686 465.679 382.93 465.557C383.178 465.432 383.484 465.369 383.851 465.369C384.328 465.369 384.768 465.494 385.172 465.744C385.575 465.991 385.898 466.365 386.139 466.865C386.381 467.362 386.501 467.986 386.501 468.736C386.501 469.466 386.384 470.082 386.148 470.585C385.915 471.085 385.597 471.464 385.193 471.723C384.793 471.979 384.344 472.107 383.847 472.107C383.494 472.107 383.195 472.048 382.947 471.932C382.703 471.815 382.503 471.669 382.347 471.493C382.19 471.314 382.071 471.134 381.989 470.952H381.908V472H380.118ZM381.895 468.727C381.895 469.116 381.949 469.456 382.057 469.746C382.165 470.036 382.321 470.261 382.526 470.423C382.73 470.582 382.979 470.662 383.271 470.662C383.567 470.662 383.817 470.581 384.021 470.419C384.226 470.254 384.381 470.027 384.486 469.737C384.594 469.445 384.648 469.108 384.648 468.727C384.648 468.349 384.595 468.017 384.49 467.73C384.385 467.443 384.23 467.219 384.026 467.057C383.821 466.895 383.57 466.814 383.271 466.814C382.976 466.814 382.726 466.892 382.521 467.048C382.32 467.205 382.165 467.426 382.057 467.713C381.949 468 381.895 468.338 381.895 468.727ZM387.713 465.455H389.528V472.324C389.528 472.83 389.429 473.239 389.23 473.551C389.031 473.864 388.745 474.092 388.373 474.237C388.004 474.382 387.562 474.455 387.048 474.455C386.985 474.455 386.926 474.453 386.869 474.45C386.809 474.45 386.747 474.449 386.681 474.446V473.027C386.73 473.03 386.772 473.031 386.809 473.031C386.843 473.034 386.88 473.036 386.92 473.036C387.213 473.036 387.417 472.973 387.534 472.848C387.653 472.726 387.713 472.541 387.713 472.294V465.455ZM388.616 464.611C388.349 464.611 388.119 464.521 387.926 464.342C387.733 464.161 387.636 463.943 387.636 463.69C387.636 463.44 387.733 463.226 387.926 463.047C388.119 462.865 388.349 462.774 388.616 462.774C388.889 462.774 389.12 462.865 389.311 463.047C389.504 463.226 389.6 463.44 389.6 463.69C389.6 463.943 389.504 464.161 389.311 464.342C389.12 464.521 388.889 464.611 388.616 464.611ZM393.965 472.128C393.292 472.128 392.712 471.991 392.227 471.719C391.744 471.443 391.371 471.054 391.11 470.551C390.849 470.045 390.718 469.447 390.718 468.757C390.718 468.084 390.849 467.493 391.11 466.984C391.371 466.476 391.739 466.08 392.214 465.795C392.691 465.511 393.251 465.369 393.893 465.369C394.325 465.369 394.727 465.439 395.099 465.578C395.474 465.714 395.8 465.92 396.079 466.196C396.36 466.472 396.579 466.818 396.735 467.236C396.891 467.651 396.969 468.136 396.969 468.693V469.192H391.442V468.067H395.261C395.261 467.805 395.204 467.574 395.09 467.372C394.977 467.17 394.819 467.013 394.617 466.899C394.418 466.783 394.187 466.724 393.923 466.724C393.647 466.724 393.403 466.788 393.19 466.916C392.979 467.041 392.815 467.21 392.695 467.423C392.576 467.634 392.515 467.868 392.512 468.126V469.196C392.512 469.52 392.572 469.8 392.691 470.036C392.813 470.271 392.985 470.453 393.207 470.581C393.428 470.709 393.691 470.773 393.995 470.773C394.197 470.773 394.381 470.744 394.549 470.688C394.717 470.631 394.86 470.545 394.979 470.432C395.099 470.318 395.19 470.179 395.252 470.014L396.931 470.125C396.846 470.528 396.671 470.881 396.407 471.182C396.146 471.48 395.808 471.713 395.393 471.881C394.981 472.045 394.505 472.128 393.965 472.128ZM401.112 472.128C400.441 472.128 399.864 471.986 399.381 471.702C398.901 471.415 398.532 471.017 398.273 470.509C398.018 470 397.89 469.415 397.89 468.753C397.89 468.082 398.019 467.494 398.278 466.989C398.539 466.48 398.91 466.084 399.39 465.8C399.87 465.513 400.441 465.369 401.103 465.369C401.674 465.369 402.174 465.473 402.603 465.68C403.032 465.888 403.371 466.179 403.621 466.554C403.871 466.929 404.009 467.369 404.035 467.875H402.322C402.273 467.548 402.146 467.286 401.938 467.087C401.734 466.885 401.465 466.784 401.133 466.784C400.852 466.784 400.606 466.861 400.396 467.014C400.188 467.165 400.026 467.385 399.91 467.675C399.793 467.964 399.735 468.315 399.735 468.727C399.735 469.145 399.792 469.5 399.906 469.793C400.022 470.085 400.185 470.308 400.396 470.462C400.606 470.615 400.852 470.692 401.133 470.692C401.34 470.692 401.526 470.649 401.691 470.564C401.859 470.479 401.996 470.355 402.104 470.193C402.215 470.028 402.288 469.831 402.322 469.601H404.035C404.006 470.101 403.87 470.541 403.626 470.922C403.384 471.3 403.05 471.595 402.624 471.808C402.198 472.021 401.694 472.128 401.112 472.128ZM408.679 465.455V466.818H404.737V465.455H408.679ZM405.632 463.886H407.447V469.989C407.447 470.156 407.473 470.287 407.524 470.381C407.575 470.472 407.646 470.536 407.737 470.572C407.831 470.609 407.939 470.628 408.061 470.628C408.146 470.628 408.231 470.621 408.316 470.607C408.402 470.589 408.467 470.577 408.512 470.568L408.798 471.919C408.707 471.947 408.579 471.98 408.414 472.017C408.25 472.057 408.049 472.081 407.814 472.089C407.376 472.107 406.993 472.048 406.663 471.915C406.336 471.781 406.082 471.574 405.9 471.293C405.718 471.011 405.629 470.656 405.632 470.227V463.886Z" fill="#FF0000"/>
<path d="M246.707 153.707C247.098 153.317 247.098 152.683 246.707 152.293L240.343 145.929C239.953 145.538 239.319 145.538 238.929 145.929C238.538 146.319 238.538 146.953 238.929 147.343L244.586 153L238.929 158.657C238.538 159.047 238.538 159.681 238.929 160.071C239.319 160.462 239.953 160.462 240.343 160.071L246.707 153.707ZM220 153V154H246V153V152H220V153Z" fill="#A81919"/>
<path d="M246.707 413.707C247.098 413.317 247.098 412.683 246.707 412.293L240.343 405.929C239.953 405.538 239.319 405.538 238.929 405.929C238.538 406.319 238.538 406.953 238.929 407.343L244.586 413L238.929 418.657C238.538 419.047 238.538 419.681 238.929 420.071C239.319 420.462 239.953 420.462 240.343 420.071L246.707 413.707ZM220 413V414H246V413V412H220V413Z" fill="#A81919"/>
<path d="M238.707 344.707C239.098 344.317 239.098 343.683 238.707 343.293L232.343 336.929C231.953 336.538 231.319 336.538 230.929 336.929C230.538 337.319 230.538 337.953 230.929 338.343L236.586 344L230.929 349.657C230.538 350.047 230.538 350.681 230.929 351.071C231.319 351.462 231.953 351.462 232.343 351.071L238.707 344.707ZM212 344V345H238V344V343H212V344Z" fill="#A81919"/>
<path d="M238.707 84.7071C239.098 84.3166 239.098 83.6834 238.707 83.2929L232.343 76.9289C231.953 76.5384 231.319 76.5384 230.929 76.9289C230.538 77.3195 230.538 77.9526 230.929 78.3431L236.586 84L230.929 89.6569C230.538 90.0474 230.538 90.6805 230.929 91.0711C231.319 91.4616 231.953 91.4616 232.343 91.0711L238.707 84.7071ZM212 84V85H238V84V83H212V84Z" fill="#A81919"/>
</svg>
