<svg width="1586" height="625" viewBox="0 0 1586 625" fill="none" xmlns="http://www.w3.org/2000/svg">
<rect x="2.5" y="16.5" width="226" height="251" rx="7.5" fill="#350000" stroke="#FF0000" stroke-width="5"/>
<path d="M385.423 138.405C386.199 137.619 386.191 136.353 385.405 135.577L372.596 122.931C371.81 122.155 370.544 122.163 369.768 122.949C368.991 123.735 369 125.001 369.786 125.777L381.172 137.018L369.931 148.404C369.155 149.19 369.163 150.456 369.949 151.232C370.735 152.009 372.001 152 372.777 151.214L385.423 138.405ZM228 138L228.013 140L384.013 139L384 137L383.987 135L227.987 136L228 138Z" fill="#FF0000"/>
<path d="M785.414 139.414C786.195 138.633 786.195 137.367 785.414 136.586L772.686 123.858C771.905 123.077 770.639 123.077 769.858 123.858C769.077 124.639 769.077 125.905 769.858 126.686L781.172 138L769.858 149.314C769.077 150.095 769.077 151.361 769.858 152.142C770.639 152.923 771.905 152.923 772.686 152.142L785.414 139.414ZM628 138V140H784V138V136H628V138Z" fill="#FF0000"/>
<path d="M385.414 498.414C386.195 497.633 386.195 496.367 385.414 495.586L372.686 482.858C371.905 482.077 370.639 482.077 369.858 482.858C369.077 483.639 369.077 484.905 369.858 485.686L381.172 497L369.858 508.314C369.077 509.095 369.077 510.361 369.858 511.142C370.639 511.923 371.905 511.923 372.686 511.142L385.414 498.414ZM228 497V499H384V497V495H228V497Z" fill="#FF0000"/>
<path d="M785.414 498.414C786.195 497.633 786.195 496.367 785.414 495.586L772.686 482.858C771.905 482.077 770.639 482.077 769.858 482.858C769.077 483.639 769.077 484.905 769.858 485.686L781.172 497L769.858 508.314C769.077 509.095 769.077 510.361 769.858 511.142C770.639 511.923 771.905 511.923 772.686 511.142L785.414 498.414ZM628 497V499H784V497V495H628V497Z" fill="#FF0000"/>
<path d="M1186.41 139.414C1187.2 138.633 1187.2 137.367 1186.41 136.586L1173.69 123.858C1172.91 123.077 1171.64 123.077 1170.86 123.858C1170.08 124.639 1170.08 125.905 1170.86 126.686L1182.17 138L1170.86 149.314C1170.08 150.095 1170.08 151.361 1170.86 152.142C1171.64 152.923 1172.91 152.923 1173.69 152.142L1186.41 139.414ZM1029 138V140H1185V138V136H1029V138Z" fill="#FF0000"/>
<path d="M1585.41 139.414C1586.2 138.633 1586.2 137.367 1585.41 136.586L1572.69 123.858C1571.91 123.077 1570.64 123.077 1569.86 123.858C1569.08 124.639 1569.08 125.905 1569.86 126.686L1581.17 138L1569.86 149.314C1569.08 150.095 1569.08 151.361 1569.86 152.142C1570.64 152.923 1571.91 152.923 1572.69 152.142L1585.41 139.414ZM1428 138V140H1584V138V136H1428V138Z" fill="#FF0000"/>
<rect x="401.5" y="16.5" width="226" height="251" rx="7.5" fill="#350000" stroke="#FF0000" stroke-width="5"/>
<rect x="800.5" y="16.5" width="226" height="251" rx="7.5" fill="#350000" stroke="#FF0000" stroke-width="5"/>
<rect x="1199.5" y="16.5" width="226" height="251" rx="7.5" fill="#350000" stroke="#FF0000" stroke-width="5"/>
<rect x="401.5" y="371.5" width="226" height="251" rx="7.5" fill="#350000" stroke="#FF0000" stroke-width="5"/>
<path d="M479.342 153V130.705H483.619V153H479.342ZM495.133 153.337C490.226 153.337 487.252 150.129 487.252 144.958V144.943C487.252 139.816 490.255 136.521 494.957 136.521C499.659 136.521 502.589 139.743 502.589 144.621V145.954H491.485C491.529 148.605 492.95 150.144 495.221 150.144C497.096 150.144 498.136 149.147 498.429 148.532L498.473 148.444H502.457L502.428 148.591C501.93 150.612 499.85 153.337 495.133 153.337ZM495.03 139.729C493.17 139.729 491.793 140.988 491.529 143.273H498.487C498.224 140.93 496.891 139.729 495.03 139.729ZM504.244 153L509.298 145.017L504.2 136.872H509.107L511.964 142.219H512.228L515.084 136.872H519.742L514.659 144.841L519.771 153H515.04L512.022 147.668H511.759L508.756 153H504.244ZM529.059 153.337C524.151 153.337 521.178 150.129 521.178 144.958V144.943C521.178 139.816 524.181 136.521 528.883 136.521C533.585 136.521 536.515 139.743 536.515 144.621V145.954H525.411C525.455 148.605 526.876 150.144 529.146 150.144C531.021 150.144 532.062 149.147 532.354 148.532L532.398 148.444H536.383L536.354 148.591C535.855 150.612 533.775 153.337 529.059 153.337ZM528.956 139.729C527.096 139.729 525.719 140.988 525.455 143.273H532.413C532.149 140.93 530.816 139.729 528.956 139.729ZM540.016 153V136.872H544.293V139.377H544.557C545.069 137.634 546.534 136.608 548.629 136.608C549.2 136.608 549.801 136.696 550.226 136.813V140.549C549.581 140.402 548.922 140.3 548.263 140.3C545.831 140.3 544.293 141.691 544.293 143.977V153H540.016Z" fill="#FF8400"/>
<path d="M479.342 153V130.705H483.619V153H479.342ZM495.133 153.337C490.226 153.337 487.252 150.129 487.252 144.958V144.943C487.252 139.816 490.255 136.521 494.957 136.521C499.659 136.521 502.589 139.743 502.589 144.621V145.954H491.485C491.529 148.605 492.95 150.144 495.221 150.144C497.096 150.144 498.136 149.147 498.429 148.532L498.473 148.444H502.457L502.428 148.591C501.93 150.612 499.85 153.337 495.133 153.337ZM495.03 139.729C493.17 139.729 491.793 140.988 491.529 143.273H498.487C498.224 140.93 496.891 139.729 495.03 139.729ZM504.244 153L509.298 145.017L504.2 136.872H509.107L511.964 142.219H512.228L515.084 136.872H519.742L514.659 144.841L519.771 153H515.04L512.022 147.668H511.759L508.756 153H504.244ZM529.059 153.337C524.151 153.337 521.178 150.129 521.178 144.958V144.943C521.178 139.816 524.181 136.521 528.883 136.521C533.585 136.521 536.515 139.743 536.515 144.621V145.954H525.411C525.455 148.605 526.876 150.144 529.146 150.144C531.021 150.144 532.062 149.147 532.354 148.532L532.398 148.444H536.383L536.354 148.591C535.855 150.612 533.775 153.337 529.059 153.337ZM528.956 139.729C527.096 139.729 525.719 140.988 525.455 143.273H532.413C532.149 140.93 530.816 139.729 528.956 139.729ZM540.016 153V136.872H544.293V139.377H544.557C545.069 137.634 546.534 136.608 548.629 136.608C549.2 136.608 549.801 136.696 550.226 136.813V140.549C549.581 140.402 548.922 140.3 548.263 140.3C545.831 140.3 544.293 141.691 544.293 143.977V153H540.016Z" fill="#FF0073"/>
<path d="M461.971 503.249C459.686 503.249 457.972 502.238 457.137 500.495H456.873V503H452.596V480.705H456.873V489.45H457.137C457.957 487.692 459.759 486.608 461.971 486.608C466.058 486.608 468.519 489.729 468.519 494.914V494.943C468.519 500.1 465.999 503.249 461.971 503.249ZM460.506 499.704C462.776 499.704 464.168 497.917 464.168 494.943V494.914C464.168 491.97 462.762 490.153 460.506 490.153C458.265 490.153 456.829 491.97 456.829 494.929V494.958C456.829 497.917 458.25 499.704 460.506 499.704ZM476.385 503.249C473.309 503.249 471.126 501.345 471.126 498.415V498.386C471.126 495.485 473.367 493.786 477.381 493.552L481.277 493.317V491.984C481.277 490.593 480.325 489.802 478.567 489.802C477.029 489.802 476.048 490.344 475.711 491.296L475.682 491.354H471.727L471.741 491.223C472.078 488.396 474.744 486.521 478.802 486.521C483.079 486.521 485.496 488.542 485.496 491.984V503H481.277V500.861H481.014C480.193 502.355 478.494 503.249 476.385 503.249ZM475.301 498.151C475.301 499.382 476.341 500.129 477.82 500.129C479.798 500.129 481.277 498.825 481.277 497.126V495.939L478.025 496.145C476.194 496.262 475.301 496.95 475.301 498.122V498.151ZM496.79 503.337C491.751 503.337 488.895 500.275 488.895 494.914V494.885C488.895 489.582 491.736 486.521 496.79 486.521C501.067 486.521 503.602 488.85 503.982 492.453V492.497H499.998L499.983 492.468C499.705 490.9 498.636 489.875 496.805 489.875C494.505 489.875 493.245 491.662 493.245 494.885V494.914C493.245 498.181 494.52 499.982 496.805 499.982C498.562 499.982 499.603 499.147 499.983 497.536L500.013 497.478H503.968L503.953 497.565C503.514 501.081 500.994 503.337 496.79 503.337ZM507.469 503V480.705H511.746V493.244H512.01L517.4 486.872H522.249L516.053 493.713L522.674 503H517.62L512.918 496.35L511.746 497.595V503H507.469ZM531.492 503.337C526.585 503.337 523.611 500.129 523.611 494.958V494.943C523.611 489.816 526.614 486.521 531.316 486.521C536.019 486.521 538.948 489.743 538.948 494.621V495.954H527.845C527.889 498.605 529.31 500.144 531.58 500.144C533.455 500.144 534.495 499.147 534.788 498.532L534.832 498.444H538.816L538.787 498.591C538.289 500.612 536.209 503.337 531.492 503.337ZM531.39 489.729C529.529 489.729 528.152 490.988 527.889 493.273H534.847C534.583 490.93 533.25 489.729 531.39 489.729ZM542.449 503V486.872H546.727V489.362H546.99C547.723 487.619 549.319 486.521 551.619 486.521C555.208 486.521 557.142 488.718 557.142 492.57V503H552.864V493.537C552.864 491.267 551.927 490.065 549.905 490.065C547.928 490.065 546.727 491.486 546.727 493.669V503H542.449ZM567.044 503.249C563.016 503.249 560.496 500.1 560.496 494.943V494.914C560.496 489.729 562.957 486.608 567.044 486.608C569.256 486.608 571.058 487.692 571.863 489.45H572.127V480.705H576.404V503H572.127V500.495H571.863C571.028 502.238 569.314 503.249 567.044 503.249ZM568.494 499.704C570.765 499.704 572.171 497.917 572.171 494.958V494.929C572.171 491.97 570.75 490.153 568.494 490.153C566.238 490.153 564.847 491.97 564.847 494.914V494.943C564.847 497.917 566.238 499.704 568.494 499.704Z" fill="#FF0073"/>
<path d="M866.184 158.347V136.872H870.461V139.362H870.725C871.56 137.634 873.273 136.608 875.559 136.608C879.587 136.608 882.106 139.772 882.106 144.914V144.943C882.106 150.129 879.646 153.249 875.559 153.249C873.347 153.249 871.545 152.18 870.725 150.422H870.461V158.347H866.184ZM874.094 149.704C876.35 149.704 877.756 147.902 877.756 144.943V144.914C877.756 141.955 876.364 140.153 874.094 140.153C871.838 140.153 870.417 141.955 870.417 144.914V144.943C870.417 147.902 871.853 149.704 874.094 149.704ZM890.002 153.249C886.926 153.249 884.743 151.345 884.743 148.415V148.386C884.743 145.485 886.984 143.786 890.998 143.552L894.895 143.317V141.984C894.895 140.593 893.942 139.802 892.185 139.802C890.646 139.802 889.665 140.344 889.328 141.296L889.299 141.354H885.344L885.358 141.223C885.695 138.396 888.361 136.521 892.419 136.521C896.696 136.521 899.113 138.542 899.113 141.984V153H894.895V150.861H894.631C893.811 152.355 892.111 153.249 890.002 153.249ZM888.918 148.151C888.918 149.382 889.958 150.129 891.438 150.129C893.415 150.129 894.895 148.825 894.895 147.126V145.939L891.643 146.145C889.812 146.262 888.918 146.95 888.918 148.122V148.151ZM903.303 153V136.872H907.58V139.377H907.844C908.356 137.634 909.821 136.608 911.916 136.608C912.487 136.608 913.088 136.696 913.513 136.813V140.549C912.868 140.402 912.209 140.3 911.55 140.3C909.118 140.3 907.58 141.691 907.58 143.977V153H903.303ZM922.404 153.337C918.024 153.337 915.534 151.374 915.227 148.605L915.212 148.547H919.416L919.445 148.605C919.782 149.602 920.764 150.319 922.448 150.319C924.089 150.319 925.202 149.616 925.202 148.547V148.518C925.202 147.653 924.558 147.111 922.917 146.745L920.222 146.174C917.146 145.515 915.622 144.006 915.622 141.589V141.574C915.622 138.542 918.317 136.521 922.346 136.521C926.579 136.521 928.923 138.63 929.099 141.223V141.281H925.129L925.114 141.208C924.88 140.344 923.928 139.538 922.331 139.538C920.852 139.538 919.797 140.227 919.797 141.311V141.325C919.797 142.189 920.397 142.688 922.067 143.054L924.748 143.625C927.971 144.313 929.479 145.661 929.479 148.049V148.063C929.479 151.257 926.535 153.337 922.404 153.337ZM940.07 153.337C935.163 153.337 932.189 150.129 932.189 144.958V144.943C932.189 139.816 935.192 136.521 939.895 136.521C944.597 136.521 947.526 139.743 947.526 144.621V145.954H936.423C936.467 148.605 937.888 150.144 940.158 150.144C942.033 150.144 943.073 149.147 943.366 148.532L943.41 148.444H947.395L947.365 148.591C946.867 150.612 944.787 153.337 940.07 153.337ZM939.968 139.729C938.107 139.729 936.73 140.988 936.467 143.273H943.425C943.161 140.93 941.828 139.729 939.968 139.729ZM951.027 153V136.872H955.305V139.377H955.568C956.081 137.634 957.546 136.608 959.641 136.608C960.212 136.608 960.812 136.696 961.237 136.813V140.549C960.593 140.402 959.934 140.3 959.274 140.3C956.843 140.3 955.305 141.691 955.305 143.977V153H951.027Z" fill="#FF0073"/>
<path d="M1248.96 133.337C1244.58 133.337 1242.09 131.374 1241.78 128.605L1241.77 128.547H1245.97L1246 128.605C1246.34 129.602 1247.32 130.319 1249 130.319C1250.64 130.319 1251.76 129.616 1251.76 128.547V128.518C1251.76 127.653 1251.11 127.111 1249.47 126.745L1246.78 126.174C1243.7 125.515 1242.18 124.006 1242.18 121.589V121.574C1242.18 118.542 1244.87 116.521 1248.9 116.521C1253.13 116.521 1255.48 118.63 1255.65 121.223V121.281H1251.68L1251.67 121.208C1251.43 120.344 1250.48 119.538 1248.88 119.538C1247.41 119.538 1246.35 120.227 1246.35 121.311V121.325C1246.35 122.189 1246.95 122.688 1248.62 123.054L1251.3 123.625C1254.52 124.313 1256.03 125.661 1256.03 128.049V128.063C1256.03 131.257 1253.09 133.337 1248.96 133.337ZM1266.62 133.337C1261.72 133.337 1258.74 130.129 1258.74 124.958V124.943C1258.74 119.816 1261.75 116.521 1266.45 116.521C1271.15 116.521 1274.08 119.743 1274.08 124.621V125.954H1262.98C1263.02 128.605 1264.44 130.144 1266.71 130.144C1268.59 130.144 1269.63 129.147 1269.92 128.532L1269.96 128.444H1273.95L1273.92 128.591C1273.42 130.612 1271.34 133.337 1266.62 133.337ZM1266.52 119.729C1264.66 119.729 1263.28 120.988 1263.02 123.273H1269.98C1269.71 120.93 1268.38 119.729 1266.52 119.729ZM1277.58 133V116.872H1281.86V119.392H1282.12C1282.81 117.575 1284.48 116.521 1286.59 116.521C1288.79 116.521 1290.41 117.634 1291.07 119.494H1291.34C1292.07 117.707 1293.94 116.521 1296.2 116.521C1299.41 116.521 1301.41 118.601 1301.41 121.926V133H1297.14V122.995C1297.14 121.047 1296.26 120.065 1294.47 120.065C1292.74 120.065 1291.63 121.34 1291.63 123.083V133H1287.35V122.805C1287.35 121.076 1286.37 120.065 1284.7 120.065C1283.03 120.065 1281.86 121.428 1281.86 123.273V133H1277.58ZM1309.95 133.249C1306.88 133.249 1304.7 131.345 1304.7 128.415V128.386C1304.7 125.485 1306.94 123.786 1310.95 123.552L1314.85 123.317V121.984C1314.85 120.593 1313.89 119.802 1312.14 119.802C1310.6 119.802 1309.62 120.344 1309.28 121.296L1309.25 121.354H1305.3L1305.31 121.223C1305.65 118.396 1308.31 116.521 1312.37 116.521C1316.65 116.521 1319.07 118.542 1319.07 121.984V133H1314.85V130.861H1314.58C1313.76 132.355 1312.06 133.249 1309.95 133.249ZM1308.87 128.151C1308.87 129.382 1309.91 130.129 1311.39 130.129C1313.37 130.129 1314.85 128.825 1314.85 127.126V125.939L1311.59 126.145C1309.76 126.262 1308.87 126.95 1308.87 128.122V128.151ZM1323.25 133V116.872H1327.53V119.362H1327.8C1328.53 117.619 1330.12 116.521 1332.42 116.521C1336.01 116.521 1337.95 118.718 1337.95 122.57V133H1333.67V123.537C1333.67 121.267 1332.73 120.065 1330.71 120.065C1328.73 120.065 1327.53 121.486 1327.53 123.669V133H1323.25ZM1348.79 133.059C1344.86 133.059 1343.28 131.784 1343.28 128.649V120.095H1340.79V116.872H1343.28V113.02H1347.6V116.872H1350.93V120.095H1347.6V127.668C1347.6 129.118 1348.22 129.763 1349.67 129.763C1350.22 129.763 1350.52 129.733 1350.93 129.689V132.868C1350.4 132.971 1349.61 133.059 1348.79 133.059ZM1356.67 114.396C1355.35 114.396 1354.25 113.342 1354.25 112.023C1354.25 110.69 1355.35 109.636 1356.67 109.636C1357.99 109.636 1359.07 110.69 1359.07 112.023C1359.07 113.342 1357.99 114.396 1356.67 114.396ZM1354.51 133V116.872H1358.79V133H1354.51ZM1370.2 133.337C1365.16 133.337 1362.31 130.275 1362.31 124.914V124.885C1362.31 119.582 1365.15 116.521 1370.2 116.521C1374.48 116.521 1377.01 118.85 1377.4 122.453V122.497H1373.41L1373.4 122.468C1373.12 120.9 1372.05 119.875 1370.22 119.875C1367.92 119.875 1366.66 121.662 1366.66 124.885V124.914C1366.66 128.181 1367.93 129.982 1370.22 129.982C1371.98 129.982 1373.02 129.147 1373.4 127.536L1373.43 127.478H1377.38L1377.37 127.565C1376.93 131.081 1374.41 133.337 1370.2 133.337ZM1254.45 173.249C1251.38 173.249 1249.19 171.345 1249.19 168.415V168.386C1249.19 165.485 1251.43 163.786 1255.45 163.552L1259.34 163.317V161.984C1259.34 160.593 1258.39 159.802 1256.63 159.802C1255.1 159.802 1254.11 160.344 1253.78 161.296L1253.75 161.354H1249.79L1249.81 161.223C1250.14 158.396 1252.81 156.521 1256.87 156.521C1261.15 156.521 1263.56 158.542 1263.56 161.984V173H1259.34V170.861H1259.08C1258.26 172.355 1256.56 173.249 1254.45 173.249ZM1253.37 168.151C1253.37 169.382 1254.41 170.129 1255.89 170.129C1257.86 170.129 1259.34 168.825 1259.34 167.126V165.939L1256.09 166.145C1254.26 166.262 1253.37 166.95 1253.37 168.122V168.151ZM1267.75 173V156.872H1272.03V159.362H1272.29C1273.03 157.619 1274.62 156.521 1276.92 156.521C1280.51 156.521 1282.44 158.718 1282.44 162.57V173H1278.17V163.537C1278.17 161.267 1277.23 160.065 1275.21 160.065C1273.23 160.065 1272.03 161.486 1272.03 163.669V173H1267.75ZM1290.98 173.249C1287.91 173.249 1285.73 171.345 1285.73 168.415V168.386C1285.73 165.485 1287.97 163.786 1291.98 163.552L1295.88 163.317V161.984C1295.88 160.593 1294.92 159.802 1293.17 159.802C1291.63 159.802 1290.65 160.344 1290.31 161.296L1290.28 161.354H1286.33L1286.34 161.223C1286.68 158.396 1289.34 156.521 1293.4 156.521C1297.68 156.521 1300.1 158.542 1300.1 161.984V173H1295.88V170.861H1295.61C1294.79 172.355 1293.09 173.249 1290.98 173.249ZM1289.9 168.151C1289.9 169.382 1290.94 170.129 1292.42 170.129C1294.4 170.129 1295.88 168.825 1295.88 167.126V165.939L1292.62 166.145C1290.79 166.262 1289.9 166.95 1289.9 168.122V168.151ZM1304.43 173V150.705H1308.71V173H1304.43ZM1315.05 178.684C1314.55 178.684 1314.01 178.669 1313.51 178.64V175.417C1313.81 175.446 1314.23 175.461 1314.63 175.461C1316.15 175.461 1317.03 174.875 1317.34 173.615L1317.48 173L1311.81 156.872H1316.52L1319.9 169.089H1320.19L1323.58 156.872H1328.09L1322.6 172.985C1321.16 177.248 1319.04 178.684 1315.05 178.684ZM1337.04 173.337C1332.66 173.337 1330.17 171.374 1329.86 168.605L1329.85 168.547H1334.05L1334.08 168.605C1334.42 169.602 1335.4 170.319 1337.08 170.319C1338.72 170.319 1339.84 169.616 1339.84 168.547V168.518C1339.84 167.653 1339.19 167.111 1337.55 166.745L1334.86 166.174C1331.78 165.515 1330.26 164.006 1330.26 161.589V161.574C1330.26 158.542 1332.95 156.521 1336.98 156.521C1341.21 156.521 1343.56 158.63 1343.73 161.223V161.281H1339.76L1339.75 161.208C1339.51 160.344 1338.56 159.538 1336.97 159.538C1335.49 159.538 1334.43 160.227 1334.43 161.311V161.325C1334.43 162.189 1335.03 162.688 1336.7 163.054L1339.38 163.625C1342.61 164.313 1344.11 165.661 1344.11 168.049V168.063C1344.11 171.257 1341.17 173.337 1337.04 173.337ZM1349.8 154.396C1348.48 154.396 1347.38 153.342 1347.38 152.023C1347.38 150.69 1348.48 149.636 1349.8 149.636C1351.12 149.636 1352.2 150.69 1352.2 152.023C1352.2 153.342 1351.12 154.396 1349.8 154.396ZM1347.64 173V156.872H1351.92V173H1347.64ZM1362.64 173.337C1358.26 173.337 1355.77 171.374 1355.47 168.605L1355.45 168.547H1359.66L1359.69 168.605C1360.02 169.602 1361 170.319 1362.69 170.319C1364.33 170.319 1365.44 169.616 1365.44 168.547V168.518C1365.44 167.653 1364.8 167.111 1363.16 166.745L1360.46 166.174C1357.39 165.515 1355.86 164.006 1355.86 161.589V161.574C1355.86 158.542 1358.56 156.521 1362.59 156.521C1366.82 156.521 1369.16 158.63 1369.34 161.223V161.281H1365.37L1365.35 161.208C1365.12 160.344 1364.17 159.538 1362.57 159.538C1361.09 159.538 1360.04 160.227 1360.04 161.311V161.325C1360.04 162.189 1360.64 162.688 1362.31 163.054L1364.99 163.625C1368.21 164.313 1369.72 165.661 1369.72 168.049V168.063C1369.72 171.257 1366.78 173.337 1362.64 173.337Z" fill="#FF0073"/>
<path d="M71.6533 149.337C67.2734 149.337 64.7832 147.374 64.4756 144.605L64.4609 144.547H68.665L68.6943 144.605C69.0312 145.602 70.0127 146.319 71.6973 146.319C73.3379 146.319 74.4512 145.616 74.4512 144.547V144.518C74.4512 143.653 73.8066 143.111 72.166 142.745L69.4707 142.174C66.3945 141.515 64.8711 140.006 64.8711 137.589V137.574C64.8711 134.542 67.5664 132.521 71.5947 132.521C75.8281 132.521 78.1719 134.63 78.3477 137.223V137.281H74.3779L74.3633 137.208C74.1289 136.344 73.1768 135.538 71.5801 135.538C70.1006 135.538 69.0459 136.227 69.0459 137.311V137.325C69.0459 138.189 69.6465 138.688 71.3164 139.054L73.9971 139.625C77.2197 140.313 78.7285 141.661 78.7285 144.049V144.063C78.7285 147.257 75.7842 149.337 71.6533 149.337ZM89.3926 149.337C84.4268 149.337 81.4385 146.188 81.4385 140.943V140.914C81.4385 135.714 84.4707 132.521 89.3926 132.521C94.3145 132.521 97.3467 135.699 97.3467 140.914V140.943C97.3467 146.202 94.3584 149.337 89.3926 149.337ZM89.3926 145.982C91.6631 145.982 92.9668 144.122 92.9668 140.943V140.914C92.9668 137.765 91.6484 135.875 89.3926 135.875C87.1221 135.875 85.8184 137.765 85.8184 140.914V140.943C85.8184 144.122 87.1074 145.982 89.3926 145.982ZM106.165 149.337C102.547 149.337 100.687 147.14 100.687 143.302V132.872H104.964V142.32C104.964 144.605 105.828 145.792 107.85 145.792C109.959 145.792 111.102 144.371 111.102 142.188V132.872H115.379V149H111.102V146.51H110.838C110.105 148.268 108.465 149.337 106.165 149.337ZM119.671 149V132.872H123.948V135.377H124.212C124.725 133.634 126.189 132.608 128.284 132.608C128.855 132.608 129.456 132.696 129.881 132.813V136.549C129.236 136.402 128.577 136.3 127.918 136.3C125.486 136.3 123.948 137.691 123.948 139.977V149H119.671ZM139.461 149.337C134.422 149.337 131.565 146.275 131.565 140.914V140.885C131.565 135.582 134.407 132.521 139.461 132.521C143.738 132.521 146.272 134.85 146.653 138.453V138.497H142.669L142.654 138.468C142.376 136.9 141.307 135.875 139.476 135.875C137.176 135.875 135.916 137.662 135.916 140.885V140.914C135.916 144.181 137.19 145.982 139.476 145.982C141.233 145.982 142.273 145.147 142.654 143.536L142.684 143.478H146.639L146.624 143.565C146.185 147.081 143.665 149.337 139.461 149.337ZM157.083 149.337C152.176 149.337 149.202 146.129 149.202 140.958V140.943C149.202 135.816 152.205 132.521 156.907 132.521C161.609 132.521 164.539 135.743 164.539 140.621V141.954H153.436C153.479 144.605 154.9 146.144 157.171 146.144C159.046 146.144 160.086 145.147 160.379 144.532L160.423 144.444H164.407L164.378 144.591C163.88 146.612 161.8 149.337 157.083 149.337ZM156.98 135.729C155.12 135.729 153.743 136.988 153.479 139.273H160.438C160.174 136.93 158.841 135.729 156.98 135.729Z" fill="#FF0073"/>
<path d="M276.104 104.249C273.819 104.249 272.105 103.238 271.271 101.495H271.007V104H266.729V81.7051H271.007V90.4502H271.271C272.091 88.6924 273.893 87.6084 276.104 87.6084C280.191 87.6084 282.652 90.7285 282.652 95.9141V95.9434C282.652 101.1 280.133 104.249 276.104 104.249ZM274.64 100.704C276.91 100.704 278.302 98.917 278.302 95.9434V95.9141C278.302 92.9697 276.896 91.1533 274.64 91.1533C272.398 91.1533 270.963 92.9697 270.963 95.9287V95.958C270.963 98.917 272.384 100.704 274.64 100.704ZM287.369 109.684C286.871 109.684 286.329 109.669 285.831 109.64V106.417C286.124 106.446 286.549 106.461 286.944 106.461C288.468 106.461 289.347 105.875 289.654 104.615L289.801 104L284.132 87.8721H288.834L292.218 100.089H292.511L295.895 87.8721H300.406L294.913 103.985C293.478 108.248 291.354 109.684 287.369 109.684ZM310.074 104.059C306.148 104.059 304.566 102.784 304.566 99.6494V91.0947H302.076V87.8721H304.566V84.0195H308.888V87.8721H312.213V91.0947H308.888V98.668C308.888 100.118 309.503 100.763 310.953 100.763C311.51 100.763 311.803 100.733 312.213 100.689V103.868C311.686 103.971 310.895 104.059 310.074 104.059ZM322.745 104.337C317.838 104.337 314.864 101.129 314.864 95.958V95.9434C314.864 90.8164 317.867 87.5205 322.569 87.5205C327.271 87.5205 330.201 90.7432 330.201 95.6211V96.9541H319.098C319.142 99.6055 320.562 101.144 322.833 101.144C324.708 101.144 325.748 100.147 326.041 99.5322L326.085 99.4443H330.069L330.04 99.5908C329.542 101.612 327.462 104.337 322.745 104.337ZM322.643 90.7285C320.782 90.7285 319.405 91.9883 319.142 94.2734H326.1C325.836 91.9297 324.503 90.7285 322.643 90.7285ZM340.118 104.337C335.738 104.337 333.248 102.374 332.94 99.6055L332.926 99.5469H337.13L337.159 99.6055C337.496 100.602 338.478 101.319 340.162 101.319C341.803 101.319 342.916 100.616 342.916 99.5469V99.5176C342.916 98.6533 342.271 98.1113 340.631 97.7451L337.936 97.1738C334.859 96.5146 333.336 95.0059 333.336 92.5889V92.5742C333.336 89.542 336.031 87.5205 340.06 87.5205C344.293 87.5205 346.637 89.6299 346.812 92.2227V92.2812H342.843L342.828 92.208C342.594 91.3438 341.642 90.5381 340.045 90.5381C338.565 90.5381 337.511 91.2266 337.511 92.3105V92.3252C337.511 93.1895 338.111 93.6875 339.781 94.0537L342.462 94.625C345.685 95.3135 347.193 96.6611 347.193 99.0488V99.0635C347.193 102.257 344.249 104.337 340.118 104.337Z" fill="#FF6600"/>
<path d="M663.915 104.059C659.989 104.059 658.407 102.784 658.407 99.6494V91.0947H655.917V87.8721H658.407V84.0195H662.729V87.8721H666.054V91.0947H662.729V98.668C662.729 100.118 663.344 100.763 664.794 100.763C665.351 100.763 665.644 100.733 666.054 100.689V103.868C665.526 103.971 664.735 104.059 663.915 104.059ZM676.659 104.337C671.693 104.337 668.705 101.188 668.705 95.9434V95.9141C668.705 90.7139 671.737 87.5205 676.659 87.5205C681.581 87.5205 684.613 90.6992 684.613 95.9141V95.9434C684.613 101.202 681.625 104.337 676.659 104.337ZM676.659 100.982C678.93 100.982 680.233 99.1221 680.233 95.9434V95.9141C680.233 92.7646 678.915 90.875 676.659 90.875C674.389 90.875 673.085 92.7646 673.085 95.9141V95.9434C673.085 99.1221 674.374 100.982 676.659 100.982ZM688.246 104V81.7051H692.523V94.2441H692.787L698.178 87.8721H703.026L696.83 94.7129L703.451 104H698.397L693.695 97.3496L692.523 98.5947V104H688.246ZM712.27 104.337C707.362 104.337 704.389 101.129 704.389 95.958V95.9434C704.389 90.8164 707.392 87.5205 712.094 87.5205C716.796 87.5205 719.726 90.7432 719.726 95.6211V96.9541H708.622C708.666 99.6055 710.087 101.144 712.357 101.144C714.232 101.144 715.272 100.147 715.565 99.5322L715.609 99.4443H719.594L719.564 99.5908C719.066 101.612 716.986 104.337 712.27 104.337ZM712.167 90.7285C710.307 90.7285 708.93 91.9883 708.666 94.2734H715.624C715.36 91.9297 714.027 90.7285 712.167 90.7285ZM723.227 104V87.8721H727.504V90.3623H727.768C728.5 88.6191 730.097 87.5205 732.396 87.5205C735.985 87.5205 737.919 89.7178 737.919 93.5703V104H733.642V94.5371C733.642 92.2666 732.704 91.0654 730.683 91.0654C728.705 91.0654 727.504 92.4863 727.504 94.6689V104H723.227ZM748.48 104.337C744.101 104.337 741.61 102.374 741.303 99.6055L741.288 99.5469H745.492L745.521 99.6055C745.858 100.602 746.84 101.319 748.524 101.319C750.165 101.319 751.278 100.616 751.278 99.5469V99.5176C751.278 98.6533 750.634 98.1113 748.993 97.7451L746.298 97.1738C743.222 96.5146 741.698 95.0059 741.698 92.5889V92.5742C741.698 89.542 744.394 87.5205 748.422 87.5205C752.655 87.5205 754.999 89.6299 755.175 92.2227V92.2812H751.205L751.19 92.208C750.956 91.3438 750.004 90.5381 748.407 90.5381C746.928 90.5381 745.873 91.2266 745.873 92.3105V92.3252C745.873 93.1895 746.474 93.6875 748.144 94.0537L750.824 94.625C754.047 95.3135 755.556 96.6611 755.556 99.0488V99.0635C755.556 102.257 752.611 104.337 748.48 104.337Z" fill="#FF6600"/>
<path d="M1072.22 69.3467V47.8721H1076.49V50.3623H1076.76C1077.59 48.6338 1079.31 47.6084 1081.59 47.6084C1085.62 47.6084 1088.14 50.7725 1088.14 55.9141V55.9434C1088.14 61.1289 1085.68 64.249 1081.59 64.249C1079.38 64.249 1077.58 63.1797 1076.76 61.4219H1076.49V69.3467H1072.22ZM1080.13 60.7041C1082.38 60.7041 1083.79 58.9023 1083.79 55.9434V55.9141C1083.79 52.9551 1082.4 51.1533 1080.13 51.1533C1077.87 51.1533 1076.45 52.9551 1076.45 55.9141V55.9434C1076.45 58.9023 1077.89 60.7041 1080.13 60.7041ZM1096.04 64.249C1092.96 64.249 1090.78 62.3447 1090.78 59.415V59.3857C1090.78 56.4854 1093.02 54.7861 1097.03 54.5518L1100.93 54.3174V52.9844C1100.93 51.5928 1099.98 50.8018 1098.22 50.8018C1096.68 50.8018 1095.7 51.3438 1095.36 52.2959L1095.33 52.3545H1091.38L1091.39 52.2227C1091.73 49.3955 1094.39 47.5205 1098.45 47.5205C1102.73 47.5205 1105.15 49.542 1105.15 52.9844V64H1100.93V61.8613H1100.66C1099.84 63.3555 1098.14 64.249 1096.04 64.249ZM1094.95 59.1514C1094.95 60.3818 1095.99 61.1289 1097.47 61.1289C1099.45 61.1289 1100.93 59.8252 1100.93 58.126V56.9395L1097.68 57.1445C1095.84 57.2617 1094.95 57.9502 1094.95 59.1221V59.1514ZM1109.34 64V47.8721H1113.61V50.377H1113.88C1114.39 48.6338 1115.85 47.6084 1117.95 47.6084C1118.52 47.6084 1119.12 47.6963 1119.55 47.8135V51.5488C1118.9 51.4023 1118.24 51.2998 1117.58 51.2998C1115.15 51.2998 1113.61 52.6914 1113.61 54.9766V64H1109.34ZM1128.44 64.3369C1124.06 64.3369 1121.57 62.374 1121.26 59.6055L1121.25 59.5469H1125.45L1125.48 59.6055C1125.82 60.6016 1126.8 61.3193 1128.48 61.3193C1130.12 61.3193 1131.24 60.6162 1131.24 59.5469V59.5176C1131.24 58.6533 1130.59 58.1113 1128.95 57.7451L1126.25 57.1738C1123.18 56.5146 1121.66 55.0059 1121.66 52.5889V52.5742C1121.66 49.542 1124.35 47.5205 1128.38 47.5205C1132.61 47.5205 1134.96 49.6299 1135.13 52.2227V52.2812H1131.16L1131.15 52.208C1130.91 51.3438 1129.96 50.5381 1128.36 50.5381C1126.88 50.5381 1125.83 51.2266 1125.83 52.3105V52.3252C1125.83 53.1895 1126.43 53.6875 1128.1 54.0537L1130.78 54.625C1134 55.3135 1135.51 56.6611 1135.51 59.0488V59.0635C1135.51 62.2568 1132.57 64.3369 1128.44 64.3369ZM1146.1 64.3369C1141.2 64.3369 1138.22 61.1289 1138.22 55.958V55.9434C1138.22 50.8164 1141.23 47.5205 1145.93 47.5205C1150.63 47.5205 1153.56 50.7432 1153.56 55.6211V56.9541H1142.46C1142.5 59.6055 1143.92 61.1436 1146.19 61.1436C1148.07 61.1436 1149.11 60.1475 1149.4 59.5322L1149.44 59.4443H1153.43L1153.4 59.5908C1152.9 61.6123 1150.82 64.3369 1146.1 64.3369ZM1146 50.7285C1144.14 50.7285 1142.76 51.9883 1142.5 54.2734H1149.46C1149.19 51.9297 1147.86 50.7285 1146 50.7285ZM1090.75 104.059C1086.82 104.059 1085.24 102.784 1085.24 99.6494V91.0947H1082.75V87.8721H1085.24V84.0195H1089.56V87.8721H1092.89V91.0947H1089.56V98.668C1089.56 100.118 1090.18 100.763 1091.63 100.763C1092.18 100.763 1092.48 100.733 1092.89 100.689V103.868C1092.36 103.971 1091.57 104.059 1090.75 104.059ZM1096.45 104V87.8721H1100.72V90.377H1100.99C1101.5 88.6338 1102.96 87.6084 1105.06 87.6084C1105.63 87.6084 1106.23 87.6963 1106.66 87.8135V91.5488C1106.01 91.4023 1105.35 91.2998 1104.69 91.2998C1102.26 91.2998 1100.72 92.6914 1100.72 94.9766V104H1096.45ZM1116.22 104.337C1111.31 104.337 1108.34 101.129 1108.34 95.958V95.9434C1108.34 90.8164 1111.34 87.5205 1116.04 87.5205C1120.75 87.5205 1123.68 90.7432 1123.68 95.6211V96.9541H1112.57C1112.62 99.6055 1114.04 101.144 1116.31 101.144C1118.18 101.144 1119.22 100.147 1119.52 99.5322L1119.56 99.4443H1123.54L1123.52 99.5908C1123.02 101.612 1120.94 104.337 1116.22 104.337ZM1116.12 90.7285C1114.26 90.7285 1112.88 91.9883 1112.62 94.2734H1119.58C1119.31 91.9297 1117.98 90.7285 1116.12 90.7285ZM1134.27 104.337C1129.36 104.337 1126.39 101.129 1126.39 95.958V95.9434C1126.39 90.8164 1129.39 87.5205 1134.09 87.5205C1138.79 87.5205 1141.72 90.7432 1141.72 95.6211V96.9541H1130.62C1130.66 99.6055 1132.08 101.144 1134.36 101.144C1136.23 101.144 1137.27 100.147 1137.56 99.5322L1137.61 99.4443H1141.59L1141.56 99.5908C1141.06 101.612 1138.98 104.337 1134.27 104.337ZM1134.17 90.7285C1132.3 90.7285 1130.93 91.9883 1130.66 94.2734H1137.62C1137.36 91.9297 1136.03 90.7285 1134.17 90.7285Z" fill="#FF6600"/>
<path d="M1482.03 24L1476.42 7.87207H1481L1484.34 20.001H1484.61L1487.92 7.87207H1492.41L1486.83 24H1482.03ZM1499.17 24.249C1496.09 24.249 1493.91 22.3447 1493.91 19.415V19.3857C1493.91 16.4854 1496.15 14.7861 1500.16 14.5518L1504.06 14.3174V12.9844C1504.06 11.5928 1503.11 10.8018 1501.35 10.8018C1499.81 10.8018 1498.83 11.3438 1498.49 12.2959L1498.46 12.3545H1494.51L1494.52 12.2227C1494.86 9.39551 1497.53 7.52051 1501.58 7.52051C1505.86 7.52051 1508.28 9.54199 1508.28 12.9844V24H1504.06V21.8613H1503.79C1502.97 23.3555 1501.28 24.249 1499.17 24.249ZM1498.08 19.1514C1498.08 20.3818 1499.12 21.1289 1500.6 21.1289C1502.58 21.1289 1504.06 19.8252 1504.06 18.126V16.9395L1500.81 17.1445C1498.98 17.2617 1498.08 17.9502 1498.08 19.1221V19.1514ZM1512.61 24V1.70508H1516.89V24H1512.61ZM1523.5 5.39648C1522.18 5.39648 1521.08 4.3418 1521.08 3.02344C1521.08 1.69043 1522.18 0.635742 1523.5 0.635742C1524.82 0.635742 1525.9 1.69043 1525.9 3.02344C1525.9 4.3418 1524.82 5.39648 1523.5 5.39648ZM1521.34 24V7.87207H1525.62V24H1521.34ZM1535.68 24.249C1531.66 24.249 1529.14 21.0996 1529.14 15.9434V15.9141C1529.14 10.7285 1531.6 7.6084 1535.68 7.6084C1537.9 7.6084 1539.7 8.69238 1540.5 10.4502H1540.77V1.70508H1545.04V24H1540.77V21.4951H1540.5C1539.67 23.2383 1537.96 24.249 1535.68 24.249ZM1537.13 20.7041C1539.41 20.7041 1540.81 18.917 1540.81 15.958V15.9287C1540.81 12.9697 1539.39 11.1533 1537.13 11.1533C1534.88 11.1533 1533.49 12.9697 1533.49 15.9141V15.9434C1533.49 18.917 1534.88 20.7041 1537.13 20.7041ZM1471.22 69.3467V47.8721H1475.49V50.3623H1475.76C1476.59 48.6338 1478.31 47.6084 1480.59 47.6084C1484.62 47.6084 1487.14 50.7725 1487.14 55.9141V55.9434C1487.14 61.1289 1484.68 64.249 1480.59 64.249C1478.38 64.249 1476.58 63.1797 1475.76 61.4219H1475.49V69.3467H1471.22ZM1479.13 60.7041C1481.38 60.7041 1482.79 58.9023 1482.79 55.9434V55.9141C1482.79 52.9551 1481.4 51.1533 1479.13 51.1533C1476.87 51.1533 1475.45 52.9551 1475.45 55.9141V55.9434C1475.45 58.9023 1476.89 60.7041 1479.13 60.7041ZM1495.04 64.249C1491.96 64.249 1489.78 62.3447 1489.78 59.415V59.3857C1489.78 56.4854 1492.02 54.7861 1496.03 54.5518L1499.93 54.3174V52.9844C1499.93 51.5928 1498.98 50.8018 1497.22 50.8018C1495.68 50.8018 1494.7 51.3438 1494.36 52.2959L1494.33 52.3545H1490.38L1490.39 52.2227C1490.73 49.3955 1493.39 47.5205 1497.45 47.5205C1501.73 47.5205 1504.15 49.542 1504.15 52.9844V64H1499.93V61.8613H1499.66C1498.84 63.3555 1497.14 64.249 1495.04 64.249ZM1493.95 59.1514C1493.95 60.3818 1494.99 61.1289 1496.47 61.1289C1498.45 61.1289 1499.93 59.8252 1499.93 58.126V56.9395L1496.68 57.1445C1494.84 57.2617 1493.95 57.9502 1493.95 59.1221V59.1514ZM1508.34 64V47.8721H1512.61V50.377H1512.88C1513.39 48.6338 1514.85 47.6084 1516.95 47.6084C1517.52 47.6084 1518.12 47.6963 1518.55 47.8135V51.5488C1517.9 51.4023 1517.24 51.2998 1516.58 51.2998C1514.15 51.2998 1512.61 52.6914 1512.61 54.9766V64H1508.34ZM1527.44 64.3369C1523.06 64.3369 1520.57 62.374 1520.26 59.6055L1520.25 59.5469H1524.45L1524.48 59.6055C1524.82 60.6016 1525.8 61.3193 1527.48 61.3193C1529.12 61.3193 1530.24 60.6162 1530.24 59.5469V59.5176C1530.24 58.6533 1529.59 58.1113 1527.95 57.7451L1525.25 57.1738C1522.18 56.5146 1520.66 55.0059 1520.66 52.5889V52.5742C1520.66 49.542 1523.35 47.5205 1527.38 47.5205C1531.61 47.5205 1533.96 49.6299 1534.13 52.2227V52.2812H1530.16L1530.15 52.208C1529.91 51.3438 1528.96 50.5381 1527.36 50.5381C1525.88 50.5381 1524.83 51.2266 1524.83 52.3105V52.3252C1524.83 53.1895 1525.43 53.6875 1527.1 54.0537L1529.78 54.625C1533 55.3135 1534.51 56.6611 1534.51 59.0488V59.0635C1534.51 62.2568 1531.57 64.3369 1527.44 64.3369ZM1545.1 64.3369C1540.2 64.3369 1537.22 61.1289 1537.22 55.958V55.9434C1537.22 50.8164 1540.23 47.5205 1544.93 47.5205C1549.63 47.5205 1552.56 50.7432 1552.56 55.6211V56.9541H1541.46C1541.5 59.6055 1542.92 61.1436 1545.19 61.1436C1547.07 61.1436 1548.11 60.1475 1548.4 59.5322L1548.44 59.4443H1552.43L1552.4 59.5908C1551.9 61.6123 1549.82 64.3369 1545.1 64.3369ZM1545 50.7285C1543.14 50.7285 1541.76 51.9883 1541.5 54.2734H1548.46C1548.19 51.9297 1546.86 50.7285 1545 50.7285ZM1489.75 104.059C1485.82 104.059 1484.24 102.784 1484.24 99.6494V91.0947H1481.75V87.8721H1484.24V84.0195H1488.56V87.8721H1491.89V91.0947H1488.56V98.668C1488.56 100.118 1489.18 100.763 1490.63 100.763C1491.18 100.763 1491.48 100.733 1491.89 100.689V103.868C1491.36 103.971 1490.57 104.059 1489.75 104.059ZM1495.45 104V87.8721H1499.72V90.377H1499.99C1500.5 88.6338 1501.96 87.6084 1504.06 87.6084C1504.63 87.6084 1505.23 87.6963 1505.66 87.8135V91.5488C1505.01 91.4023 1504.35 91.2998 1503.69 91.2998C1501.26 91.2998 1499.72 92.6914 1499.72 94.9766V104H1495.45ZM1515.22 104.337C1510.31 104.337 1507.34 101.129 1507.34 95.958V95.9434C1507.34 90.8164 1510.34 87.5205 1515.04 87.5205C1519.75 87.5205 1522.68 90.7432 1522.68 95.6211V96.9541H1511.57C1511.62 99.6055 1513.04 101.144 1515.31 101.144C1517.18 101.144 1518.22 100.147 1518.52 99.5322L1518.56 99.4443H1522.54L1522.52 99.5908C1522.02 101.612 1519.94 104.337 1515.22 104.337ZM1515.12 90.7285C1513.26 90.7285 1511.88 91.9883 1511.62 94.2734H1518.58C1518.31 91.9297 1516.98 90.7285 1515.12 90.7285ZM1533.27 104.337C1528.36 104.337 1525.39 101.129 1525.39 95.958V95.9434C1525.39 90.8164 1528.39 87.5205 1533.09 87.5205C1537.79 87.5205 1540.72 90.7432 1540.72 95.6211V96.9541H1529.62C1529.66 99.6055 1531.08 101.144 1533.36 101.144C1535.23 101.144 1536.27 100.147 1536.56 99.5322L1536.61 99.4443H1540.59L1540.56 99.5908C1540.06 101.612 1537.98 104.337 1533.27 104.337ZM1533.17 90.7285C1531.3 90.7285 1529.93 91.9883 1529.66 94.2734H1536.62C1536.36 91.9297 1535.03 90.7285 1533.17 90.7285Z" fill="#FF6600"/>
<path d="M277.027 385L271.417 368.872H276.002L279.342 381.001H279.605L282.916 368.872H287.413L281.832 385H277.027ZM294.166 385.249C291.09 385.249 288.907 383.345 288.907 380.415V380.386C288.907 377.485 291.148 375.786 295.162 375.552L299.059 375.317V373.984C299.059 372.593 298.106 371.802 296.349 371.802C294.811 371.802 293.829 372.344 293.492 373.296L293.463 373.354H289.508L289.522 373.223C289.859 370.396 292.525 368.521 296.583 368.521C300.86 368.521 303.277 370.542 303.277 373.984V385H299.059V382.861H298.795C297.975 384.355 296.275 385.249 294.166 385.249ZM293.082 380.151C293.082 381.382 294.122 382.129 295.602 382.129C297.579 382.129 299.059 380.825 299.059 379.126V377.939L295.807 378.145C293.976 378.262 293.082 378.95 293.082 380.122V380.151ZM307.613 385V362.705H311.891V385H307.613ZM318.497 366.396C317.179 366.396 316.08 365.342 316.08 364.023C316.08 362.69 317.179 361.636 318.497 361.636C319.815 361.636 320.899 362.69 320.899 364.023C320.899 365.342 319.815 366.396 318.497 366.396ZM316.344 385V368.872H320.621V385H316.344ZM330.685 385.249C326.656 385.249 324.137 382.1 324.137 376.943V376.914C324.137 371.729 326.598 368.608 330.685 368.608C332.896 368.608 334.698 369.692 335.504 371.45H335.768V362.705H340.045V385H335.768V382.495H335.504C334.669 384.238 332.955 385.249 330.685 385.249ZM332.135 381.704C334.405 381.704 335.812 379.917 335.812 376.958V376.929C335.812 373.97 334.391 372.153 332.135 372.153C329.879 372.153 328.487 373.97 328.487 376.914V376.943C328.487 379.917 329.879 381.704 332.135 381.704ZM266.217 430.347V408.872H270.494V411.362H270.758C271.593 409.634 273.307 408.608 275.592 408.608C279.62 408.608 282.14 411.772 282.14 416.914V416.943C282.14 422.129 279.679 425.249 275.592 425.249C273.38 425.249 271.578 424.18 270.758 422.422H270.494V430.347H266.217ZM274.127 421.704C276.383 421.704 277.789 419.902 277.789 416.943V416.914C277.789 413.955 276.397 412.153 274.127 412.153C271.871 412.153 270.45 413.955 270.45 416.914V416.943C270.45 419.902 271.886 421.704 274.127 421.704ZM290.035 425.249C286.959 425.249 284.776 423.345 284.776 420.415V420.386C284.776 417.485 287.018 415.786 291.031 415.552L294.928 415.317V413.984C294.928 412.593 293.976 411.802 292.218 411.802C290.68 411.802 289.698 412.344 289.361 413.296L289.332 413.354H285.377L285.392 413.223C285.729 410.396 288.395 408.521 292.452 408.521C296.729 408.521 299.146 410.542 299.146 413.984V425H294.928V422.861H294.664C293.844 424.355 292.145 425.249 290.035 425.249ZM288.951 420.151C288.951 421.382 289.991 422.129 291.471 422.129C293.448 422.129 294.928 420.825 294.928 419.126V417.939L291.676 418.145C289.845 418.262 288.951 418.95 288.951 420.122V420.151ZM303.336 425V408.872H307.613V411.377H307.877C308.39 409.634 309.854 408.608 311.949 408.608C312.521 408.608 313.121 408.696 313.546 408.813V412.549C312.901 412.402 312.242 412.3 311.583 412.3C309.151 412.3 307.613 413.691 307.613 415.977V425H303.336ZM322.438 425.337C318.058 425.337 315.567 423.374 315.26 420.605L315.245 420.547H319.449L319.479 420.605C319.815 421.602 320.797 422.319 322.481 422.319C324.122 422.319 325.235 421.616 325.235 420.547V420.518C325.235 419.653 324.591 419.111 322.95 418.745L320.255 418.174C317.179 417.515 315.655 416.006 315.655 413.589V413.574C315.655 410.542 318.351 408.521 322.379 408.521C326.612 408.521 328.956 410.63 329.132 413.223V413.281H325.162L325.147 413.208C324.913 412.344 323.961 411.538 322.364 411.538C320.885 411.538 319.83 412.227 319.83 413.311V413.325C319.83 414.189 320.431 414.688 322.101 415.054L324.781 415.625C328.004 416.313 329.513 417.661 329.513 420.049V420.063C329.513 423.257 326.568 425.337 322.438 425.337ZM340.104 425.337C335.196 425.337 332.223 422.129 332.223 416.958V416.943C332.223 411.816 335.226 408.521 339.928 408.521C344.63 408.521 347.56 411.743 347.56 416.621V417.954H336.456C336.5 420.605 337.921 422.144 340.191 422.144C342.066 422.144 343.106 421.147 343.399 420.532L343.443 420.444H347.428L347.398 420.591C346.9 422.612 344.82 425.337 340.104 425.337ZM340.001 411.729C338.141 411.729 336.764 412.988 336.5 415.273H343.458C343.194 412.93 341.861 411.729 340.001 411.729ZM284.747 465.059C280.821 465.059 279.239 463.784 279.239 460.649V452.095H276.749V448.872H279.239V445.02H283.561V448.872H286.886V452.095H283.561V459.668C283.561 461.118 284.176 461.763 285.626 461.763C286.183 461.763 286.476 461.733 286.886 461.689V464.868C286.358 464.971 285.567 465.059 284.747 465.059ZM290.445 465V448.872H294.723V451.377H294.986C295.499 449.634 296.964 448.608 299.059 448.608C299.63 448.608 300.23 448.696 300.655 448.813V452.549C300.011 452.402 299.352 452.3 298.692 452.3C296.261 452.3 294.723 453.691 294.723 455.977V465H290.445ZM310.221 465.337C305.313 465.337 302.34 462.129 302.34 456.958V456.943C302.34 451.816 305.343 448.521 310.045 448.521C314.747 448.521 317.677 451.743 317.677 456.621V457.954H306.573C306.617 460.605 308.038 462.144 310.309 462.144C312.184 462.144 313.224 461.147 313.517 460.532L313.561 460.444H317.545L317.516 460.591C317.018 462.612 314.938 465.337 310.221 465.337ZM310.118 451.729C308.258 451.729 306.881 452.988 306.617 455.273H313.575C313.312 452.93 311.979 451.729 310.118 451.729ZM328.268 465.337C323.36 465.337 320.387 462.129 320.387 456.958V456.943C320.387 451.816 323.39 448.521 328.092 448.521C332.794 448.521 335.724 451.743 335.724 456.621V457.954H324.62C324.664 460.605 326.085 462.144 328.355 462.144C330.23 462.144 331.271 461.147 331.563 460.532L331.607 460.444H335.592L335.562 460.591C335.064 462.612 332.984 465.337 328.268 465.337ZM328.165 451.729C326.305 451.729 324.928 452.988 324.664 455.273H331.622C331.358 452.93 330.025 451.729 328.165 451.729Z" fill="#FF6600"/>
<path d="M697.735 420.337C692.696 420.337 689.84 417.275 689.84 411.914V411.885C689.84 406.582 692.682 403.521 697.735 403.521C702.013 403.521 704.547 405.85 704.928 409.453V409.497H700.943L700.929 409.468C700.65 407.9 699.581 406.875 697.75 406.875C695.45 406.875 694.19 408.662 694.19 411.885V411.914C694.19 415.181 695.465 416.982 697.75 416.982C699.508 416.982 700.548 416.147 700.929 414.536L700.958 414.478H704.913L704.898 414.565C704.459 418.081 701.939 420.337 697.735 420.337ZM715.431 420.337C710.465 420.337 707.477 417.188 707.477 411.943V411.914C707.477 406.714 710.509 403.521 715.431 403.521C720.353 403.521 723.385 406.699 723.385 411.914V411.943C723.385 417.202 720.396 420.337 715.431 420.337ZM715.431 416.982C717.701 416.982 719.005 415.122 719.005 411.943V411.914C719.005 408.765 717.687 406.875 715.431 406.875C713.16 406.875 711.856 408.765 711.856 411.914V411.943C711.856 415.122 713.146 416.982 715.431 416.982ZM726.871 420V403.872H731.148V406.392H731.412C732.101 404.575 733.771 403.521 735.88 403.521C738.077 403.521 739.703 404.634 740.362 406.494H740.626C741.358 404.707 743.233 403.521 745.489 403.521C748.697 403.521 750.704 405.601 750.704 408.926V420H746.427V409.995C746.427 408.047 745.548 407.065 743.761 407.065C742.032 407.065 740.919 408.34 740.919 410.083V420H736.642V409.805C736.642 408.076 735.66 407.065 733.99 407.065C732.32 407.065 731.148 408.428 731.148 410.273V420H726.871ZM754.85 425.347V403.872H759.127V406.362H759.391C760.226 404.634 761.939 403.608 764.225 403.608C768.253 403.608 770.772 406.772 770.772 411.914V411.943C770.772 417.129 768.312 420.249 764.225 420.249C762.013 420.249 760.211 419.18 759.391 417.422H759.127V425.347H754.85ZM762.76 416.704C765.016 416.704 766.422 414.902 766.422 411.943V411.914C766.422 408.955 765.03 407.153 762.76 407.153C760.504 407.153 759.083 408.955 759.083 411.914V411.943C759.083 414.902 760.519 416.704 762.76 416.704ZM779.605 420.337C775.987 420.337 774.127 418.14 774.127 414.302V403.872H778.404V413.32C778.404 415.605 779.269 416.792 781.29 416.792C783.399 416.792 784.542 415.371 784.542 413.188V403.872H788.819V420H784.542V417.51H784.278C783.546 419.268 781.905 420.337 779.605 420.337ZM799.806 420.059C795.88 420.059 794.298 418.784 794.298 415.649V407.095H791.808V403.872H794.298V400.02H798.619V403.872H801.944V407.095H798.619V414.668C798.619 416.118 799.234 416.763 800.685 416.763C801.241 416.763 801.534 416.733 801.944 416.689V419.868C801.417 419.971 800.626 420.059 799.806 420.059ZM809.898 420.249C806.822 420.249 804.64 418.345 804.64 415.415V415.386C804.64 412.485 806.881 410.786 810.895 410.552L814.791 410.317V408.984C814.791 407.593 813.839 406.802 812.081 406.802C810.543 406.802 809.562 407.344 809.225 408.296L809.195 408.354H805.24L805.255 408.223C805.592 405.396 808.258 403.521 812.315 403.521C816.593 403.521 819.01 405.542 819.01 408.984V420H814.791V417.861H814.527C813.707 419.355 812.008 420.249 809.898 420.249ZM808.814 415.151C808.814 416.382 809.854 417.129 811.334 417.129C813.312 417.129 814.791 415.825 814.791 414.126V412.939L811.539 413.145C809.708 413.262 808.814 413.95 808.814 415.122V415.151ZM829.894 420.059C825.968 420.059 824.386 418.784 824.386 415.649V407.095H821.896V403.872H824.386V400.02H828.707V403.872H832.032V407.095H828.707V414.668C828.707 416.118 829.322 416.763 830.772 416.763C831.329 416.763 831.622 416.733 832.032 416.689V419.868C831.505 419.971 830.714 420.059 829.894 420.059ZM837.774 401.396C836.456 401.396 835.357 400.342 835.357 399.023C835.357 397.69 836.456 396.636 837.774 396.636C839.093 396.636 840.177 397.69 840.177 399.023C840.177 400.342 839.093 401.396 837.774 401.396ZM835.621 420V403.872H839.898V420H835.621ZM851.368 420.337C846.402 420.337 843.414 417.188 843.414 411.943V411.914C843.414 406.714 846.446 403.521 851.368 403.521C856.29 403.521 859.322 406.699 859.322 411.914V411.943C859.322 417.202 856.334 420.337 851.368 420.337ZM851.368 416.982C853.639 416.982 854.942 415.122 854.942 411.943V411.914C854.942 408.765 853.624 406.875 851.368 406.875C849.098 406.875 847.794 408.765 847.794 411.914V411.943C847.794 415.122 849.083 416.982 851.368 416.982ZM862.809 420V403.872H867.086V406.362H867.35C868.082 404.619 869.679 403.521 871.979 403.521C875.567 403.521 877.501 405.718 877.501 409.57V420H873.224V410.537C873.224 408.267 872.286 407.065 870.265 407.065C868.287 407.065 867.086 408.486 867.086 410.669V420H862.809Z" fill="#FF6600"/>
<path d="M853.3 503L858.354 495.017L853.256 486.872H858.163L861.02 492.219H861.283L864.14 486.872H868.798L863.715 494.841L868.827 503H864.096L861.078 497.668H860.814L857.812 503H853.3ZM880.18 503.469C875.097 503.469 871.596 500.935 871.596 497.272V497.243C871.596 494.489 873.646 492.453 876.532 491.882V491.794C874.057 491.193 872.372 489.406 872.372 487.106V487.077C872.372 483.796 875.58 481.394 880.18 481.394C884.765 481.394 887.987 483.796 887.987 487.077V487.106C887.987 489.406 886.288 491.179 883.827 491.794V491.882C886.698 492.438 888.764 494.489 888.764 497.243V497.272C888.764 500.935 885.263 503.469 880.18 503.469ZM880.18 490.461C882.201 490.461 883.607 489.26 883.607 487.531V487.502C883.607 485.773 882.187 484.587 880.18 484.587C878.158 484.587 876.737 485.773 876.737 487.502V487.531C876.737 489.26 878.144 490.461 880.18 490.461ZM880.18 500.246C882.494 500.246 884.135 498.884 884.135 496.979V496.95C884.135 495.046 882.523 493.669 880.18 493.669C877.836 493.669 876.21 495.046 876.21 496.95V496.979C876.21 498.884 877.851 500.246 880.18 500.246ZM901.01 503.542C896.103 503.542 892.279 500.07 892.279 492.629V492.6C892.279 485.524 895.619 481.32 901.024 481.32C905.111 481.32 908.158 483.737 908.803 487.048L908.832 487.194H904.511L904.452 487.062C903.954 485.744 902.753 484.851 901.039 484.851C897.978 484.851 896.645 487.854 896.483 491.691C896.469 491.853 896.469 492.014 896.469 492.175H896.762C897.523 490.534 899.296 489.084 902.211 489.084C906.327 489.084 909.11 492.014 909.11 496.013V496.042C909.11 500.363 905.771 503.542 901.01 503.542ZM897.128 496.101C897.128 498.327 898.827 500.041 900.98 500.041C903.119 500.041 904.833 498.356 904.833 496.188V496.159C904.833 493.947 903.222 492.336 901.01 492.336C898.827 492.336 897.128 493.903 897.128 496.086V496.101ZM930.351 503.249C928.065 503.249 926.352 502.238 925.517 500.495H925.253V503H920.976V480.705H925.253V489.45H925.517C926.337 487.692 928.139 486.608 930.351 486.608C934.438 486.608 936.898 489.729 936.898 494.914V494.943C936.898 500.1 934.379 503.249 930.351 503.249ZM928.886 499.704C931.156 499.704 932.548 497.917 932.548 494.943V494.914C932.548 491.97 931.142 490.153 928.886 490.153C926.645 490.153 925.209 491.97 925.209 494.929V494.958C925.209 497.917 926.63 499.704 928.886 499.704ZM942.553 484.396C941.234 484.396 940.136 483.342 940.136 482.023C940.136 480.69 941.234 479.636 942.553 479.636C943.871 479.636 944.955 480.69 944.955 482.023C944.955 483.342 943.871 484.396 942.553 484.396ZM940.399 503V486.872H944.677V503H940.399ZM948.983 503V486.872H953.261V489.362H953.524C954.257 487.619 955.854 486.521 958.153 486.521C961.742 486.521 963.676 488.718 963.676 492.57V503H959.398V493.537C959.398 491.267 958.461 490.065 956.439 490.065C954.462 490.065 953.261 491.486 953.261 493.669V503H948.983ZM972.216 503.249C969.14 503.249 966.957 501.345 966.957 498.415V498.386C966.957 495.485 969.198 493.786 973.212 493.552L977.108 493.317V491.984C977.108 490.593 976.156 489.802 974.398 489.802C972.86 489.802 971.879 490.344 971.542 491.296L971.513 491.354H967.558L967.572 491.223C967.909 488.396 970.575 486.521 974.633 486.521C978.91 486.521 981.327 488.542 981.327 491.984V503H977.108V500.861H976.845C976.024 502.355 974.325 503.249 972.216 503.249ZM971.132 498.151C971.132 499.382 972.172 500.129 973.651 500.129C975.629 500.129 977.108 498.825 977.108 497.126V495.939L973.856 496.145C972.025 496.262 971.132 496.95 971.132 498.122V498.151ZM985.517 503V486.872H989.794V489.377H990.058C990.57 487.634 992.035 486.608 994.13 486.608C994.701 486.608 995.302 486.696 995.727 486.813V490.549C995.082 490.402 994.423 490.3 993.764 490.3C991.332 490.3 989.794 491.691 989.794 493.977V503H985.517ZM1000.79 508.684C1000.3 508.684 999.755 508.669 999.257 508.64V505.417C999.55 505.446 999.975 505.461 1000.37 505.461C1001.89 505.461 1002.77 504.875 1003.08 503.615L1003.23 503L997.558 486.872H1002.26L1005.64 499.089H1005.94L1009.32 486.872H1013.83L1008.34 502.985C1006.9 507.248 1004.78 508.684 1000.79 508.684Z" fill="#FF0073"/>
</svg>
